<?xml version="1.0" standalone="no"?>
<!DOCTYPE svg PUBLIC "-//W3C//DTD SVG 20010904//EN"
 "http://www.w3.org/TR/2001/REC-SVG-20010904/DTD/svg10.dtd">
<svg version="1.0" xmlns="http://www.w3.org/2000/svg"
 width="1149.000000pt" height="1149.000000pt" viewBox="0 0 1149.000000 1149.000000"
 preserveAspectRatio="xMidYMid meet">
<metadata>
Created by potrace 1.14, written by Peter Selinger 2001-2017
</metadata>
<g transform="translate(0.000000,1149.000000) scale(0.100000,-0.100000)"
fill="#000000" stroke="none">
<path d="M5458 11485 c-2 -1 -50 -6 -108 -9 -99 -6 -131 -9 -240 -21 -118 -14
-181 -22 -220 -30 -14 -2 -42 -7 -62 -9 -21 -3 -63 -10 -95 -16 -91 -16 -99
-18 -180 -35 -13 -3 -33 -7 -45 -10 -13 -2 -36 -8 -53 -12 -37 -8 -33 -8 -75
-17 -19 -4 -57 -14 -85 -21 -203 -58 -300 -87 -307 -91 -4 -3 -16 -7 -25 -9
-31 -6 -256 -86 -300 -106 -23 -10 -45 -19 -48 -19 -7 0 -53 -19 -121 -51 -23
-10 -44 -19 -48 -19 -3 0 -67 -29 -142 -65 -75 -36 -138 -65 -141 -65 -3 0
-18 -9 -34 -21 -16 -11 -29 -17 -29 -14 0 3 -13 -3 -29 -14 -15 -11 -39 -25
-52 -31 -13 -5 -51 -26 -84 -45 -33 -19 -67 -38 -75 -42 -52 -26 -396 -246
-410 -262 -3 -3 -34 -26 -70 -51 -36 -24 -70 -49 -76 -55 -6 -5 -22 -17 -34
-25 -12 -8 -28 -19 -34 -25 -6 -5 -45 -37 -86 -69 -41 -33 -77 -63 -80 -66 -3
-3 -32 -28 -65 -56 -92 -76 -108 -91 -228 -206 -62 -60 -115 -108 -119 -108
-5 0 -8 -3 -8 -8 0 -4 -30 -39 -67 -78 -112 -116 -232 -253 -303 -345 -14 -18
-30 -37 -36 -43 -5 -6 -37 -47 -70 -91 -32 -44 -65 -86 -71 -93 -7 -7 -13 -17
-13 -20 0 -4 -11 -20 -25 -35 -14 -15 -23 -27 -20 -27 6 0 -8 -19 -55 -77 -6
-7 -10 -16 -10 -22 0 -5 -4 -11 -8 -13 -4 -1 -36 -48 -70 -103 -33 -55 -65
-104 -69 -110 -24 -29 -261 -467 -268 -495 -1 -3 -16 -36 -34 -75 -18 -38 -50
-113 -72 -165 -22 -52 -44 -104 -49 -115 -70 -151 -227 -656 -269 -865 -6 -30
-14 -66 -17 -80 -3 -14 -10 -45 -14 -70 -5 -25 -12 -56 -15 -70 -5 -23 -8 -44
-20 -125 -3 -16 -7 -39 -9 -50 -2 -12 -7 -48 -11 -80 -4 -33 -9 -71 -11 -85
-2 -14 -7 -52 -10 -85 -3 -33 -7 -71 -9 -84 -27 -153 -27 -866 0 -1076 2 -16
7 -57 10 -90 13 -118 21 -182 41 -300 8 -49 17 -103 20 -120 3 -16 7 -38 10
-48 3 -11 7 -29 9 -40 5 -40 35 -171 56 -252 12 -44 22 -84 24 -90 8 -38 18
-74 26 -95 5 -14 11 -34 13 -45 6 -28 55 -186 66 -210 5 -11 16 -45 26 -75 20
-65 119 -315 164 -414 17 -39 38 -86 47 -105 35 -78 166 -333 209 -406 13 -22
33 -57 44 -78 55 -100 323 -504 350 -527 3 -3 17 -21 30 -40 28 -40 32 -45 63
-81 12 -15 33 -41 47 -59 14 -18 30 -37 35 -44 6 -6 25 -29 44 -51 96 -114
269 -301 358 -388 55 -54 171 -161 223 -206 35 -31 71 -63 80 -71 9 -8 36 -31
60 -50 153 -123 131 -105 205 -160 33 -25 69 -53 79 -62 11 -10 23 -18 27 -18
5 0 59 -39 96 -70 7 -5 15 -10 18 -10 6 0 64 -39 75 -50 12 -13 172 -110 181
-110 5 0 9 -4 9 -10 0 -5 5 -10 10 -10 6 0 27 -11 48 -23 20 -13 63 -38 95
-55 31 -18 81 -45 110 -61 28 -16 104 -54 167 -85 63 -31 123 -61 132 -66 10
-6 25 -10 33 -10 8 0 15 -4 15 -10 0 -5 6 -10 13 -10 8 0 27 -6 43 -14 26 -12
65 -29 129 -56 43 -19 124 -50 195 -75 41 -15 91 -33 110 -41 32 -12 78 -27
90 -29 7 -1 83 -26 100 -32 20 -8 26 -10 90 -27 30 -8 96 -25 145 -39 94 -26
226 -57 260 -62 11 -2 22 -4 25 -5 3 -1 10 -3 15 -4 13 -2 94 -17 120 -22 11
-2 31 -6 45 -9 14 -2 41 -7 60 -10 19 -4 49 -8 65 -11 17 -2 48 -6 70 -10 22
-4 53 -8 70 -9 16 -1 57 -6 90 -10 33 -4 75 -8 93 -11 239 -26 811 -26 1077 1
85 9 151 16 175 20 14 3 45 7 70 9 54 6 119 16 140 21 8 2 35 7 60 10 25 4 88
16 140 27 52 10 106 22 120 24 62 12 376 96 475 128 61 19 112 35 115 34 3 -1
15 4 28 11 13 7 31 14 40 16 15 3 219 81 282 107 14 6 30 12 35 13 25 6 407
186 415 196 3 3 34 20 70 38 36 17 79 40 95 49 112 65 170 99 193 114 15 10
34 21 42 25 47 22 468 316 490 343 3 3 21 17 40 30 19 14 42 32 50 40 9 8 35
30 57 48 163 131 447 405 613 591 41 46 84 94 95 107 12 12 32 37 45 55 14 18
39 49 55 69 17 20 41 51 55 69 14 18 32 40 40 51 8 10 22 28 30 40 34 50 85
115 92 118 4 2 8 7 8 12 0 6 94 151 127 196 4 5 14 21 22 35 8 13 39 63 69
112 91 149 264 482 331 637 12 30 32 75 43 100 11 25 21 50 22 55 1 6 4 15 8
20 13 21 129 338 133 365 0 3 10 34 22 70 18 56 42 138 49 163 1 4 2 8 4 10 1
1 3 9 5 17 1 8 8 35 15 60 7 25 14 53 16 62 2 10 6 26 8 36 2 9 9 35 14 57 10
37 13 52 27 123 3 15 8 34 10 42 2 8 13 67 25 130 11 63 22 124 24 135 2 11 7
47 11 80 4 33 8 71 10 85 32 246 39 387 39 720 0 259 -8 481 -18 537 -2 10 -7
47 -10 83 -8 73 -15 132 -21 171 -3 14 -7 42 -9 62 -12 88 -51 289 -83 427
-14 58 -27 116 -30 130 -3 14 -19 72 -35 130 -17 58 -31 110 -33 115 -1 6 -5
17 -8 25 -3 8 -20 60 -37 115 -18 55 -38 114 -46 132 -8 17 -14 36 -14 42 0 6
-7 27 -16 48 -9 21 -20 47 -24 58 -5 11 -15 36 -24 57 -9 20 -16 38 -16 41 0
2 -8 22 -17 43 -9 22 -17 41 -18 44 -1 3 -11 28 -24 55 -13 28 -37 79 -53 115
-56 122 -175 351 -219 420 -5 8 -13 24 -18 35 -5 11 -21 37 -35 58 -14 21 -26
40 -26 42 0 3 -17 31 -37 62 -21 32 -42 66 -48 75 -23 39 -159 235 -176 254
-11 11 -19 25 -19 30 0 5 -8 17 -17 25 -10 9 -27 29 -38 44 -34 48 -109 140
-117 143 -4 2 -8 8 -8 13 0 6 -10 21 -22 34 -13 13 -32 34 -43 48 -82 99 -155
177 -326 347 -107 107 -220 215 -249 240 -29 25 -63 54 -75 65 -12 11 -47 40
-78 64 -31 24 -57 47 -57 52 0 5 -7 9 -15 9 -8 0 -15 4 -15 8 0 4 -12 15 -27
24 -16 9 -40 28 -55 42 -15 14 -30 26 -32 26 -5 0 -78 53 -119 86 -9 8 -21 14
-26 14 -5 0 -11 4 -13 8 -7 17 -331 224 -488 312 -199 110 -527 264 -740 346
-140 54 -384 137 -440 149 -8 2 -17 4 -20 6 -3 1 -9 3 -15 4 -5 2 -12 4 -15 5
-3 1 -12 3 -20 5 -8 2 -78 20 -154 40 -148 39 -486 108 -494 101 -2 -3 -14 -1
-26 4 -13 4 -47 11 -77 14 -52 6 -96 11 -169 21 -32 4 -93 10 -210 21 -53 6
-707 14 -712 9z"/>
</g>
</svg>
