<?xml version="1.0" encoding="utf-8"?>
<!-- Generator: Adobe Illustrator 23.0.1, SVG Export Plug-In . SVG Version: 6.00 Build 0)  -->
<svg version="1.1"
	 id="svg3220" xmlns:cc="http://creativecommons.org/ns#" xmlns:dc="http://purl.org/dc/elements/1.1/" xmlns:rdf="http://www.w3.org/1999/02/22-rdf-syntax-ns#" xmlns:svg="http://www.w3.org/2000/svg"
	 xmlns="http://www.w3.org/2000/svg" xmlns:xlink="http://www.w3.org/1999/xlink" x="0px" y="0px" viewBox="0 0 1300 405.4"
	 style="enable-background:new 0 0 1300 405.4;" xml:space="preserve">
<style type="text/css">
	.st0{fill:#8BD7E8;}
</style>
<g id="layer1" transform="translate(-681.1566,286.43405)">
	<path id="path5185" class="st0" d="M1587.8-235.9c0-0.3,0.4-0.5,0.8-0.5c0.5,0,0.7,0.2,0.5,0.5s-0.6,0.5-0.8,0.5
		C1588-235.4,1587.8-235.6,1587.8-235.9z M1584.1-232.1c0-0.3,0.2-0.5,0.5-0.5s0.5,0.2,0.5,0.5s-0.2,0.5-0.5,0.5
		C1584.3-231.6,1584.1-231.8,1584.1-232.1z M1651.3-230.5c0-0.3,0.1-0.5,0.2-0.5s0.4,0.2,0.6,0.5s0.1,0.5-0.2,0.5
		C1651.5-230,1651.3-230.2,1651.3-230.5z M1590.9-230.3c0.4-0.1,1-0.1,1.3,0c0.4,0.1,0.1,0.3-0.7,0.3
		C1590.8-230.1,1590.5-230.2,1590.9-230.3L1590.9-230.3z M1693.2-230c0-0.3,0.4-0.5,0.8-0.5c0.5,0,0.7,0.2,0.5,0.5s-0.6,0.5-0.8,0.5
		C1693.4-229.4,1693.2-229.7,1693.2-230L1693.2-230z M1690.8-230c-0.2-0.3-0.1-0.5,0.2-0.5c0.3,0,0.7,0.2,0.9,0.5
		c0.2,0.3,0.1,0.5-0.2,0.5S1691-229.7,1690.8-230z M1630.3-228.3c0-0.3,0.4-0.7,0.9-0.9s0.8-0.1,0.6,0.3
		C1631.5-228,1630.3-227.6,1630.3-228.3L1630.3-228.3z M1585.4-229.3c-1.3-1.1-1.4-1.4-0.8-1.8c0.4-0.3,1.1-0.5,1.6-0.5
		c0.7,0,0.7,0.1,0,0.6c-0.6,0.4-0.4,0.5,0.9,0.2c1.4-0.3,1.7-0.2,1.7,0.5c0,0.5,0.4,0.8,0.8,0.8s0.8,0.3,0.8,0.6s-0.5,0.4-1.1,0.2
		s-1.4-0.1-1.7,0.2C1587.2-228.1,1586.5-228.3,1585.4-229.3L1585.4-229.3z M1705.3-227.8c-0.2-0.3,0-0.4,0.5-0.2
		c0.9,0.4,1.1,0.7,0.3,0.7C1705.9-227.3,1705.5-227.5,1705.3-227.8L1705.3-227.8z M1517.4-227.8c0-0.3,0.2-0.5,0.5-0.5
		s0.5,0.2,0.5,0.5s-0.2,0.5-0.5,0.5S1517.4-227.5,1517.4-227.8z M1725.5-227.3c0-0.3,0.2-0.5,0.5-0.5s0.5,0.2,0.5,0.5
		s-0.2,0.5-0.5,0.5S1725.5-227,1725.5-227.3z M1710.3-227.4c0.3-0.3,0.9-0.5,1.3-0.3c0.4,0.1,0.2,0.4-0.6,0.6
		C1710.1-226.9,1709.9-227,1710.3-227.4z M1583-227c0-0.1,0.2-0.4,0.5-0.6c0.3-0.2,0.5-0.1,0.5,0.2s-0.2,0.6-0.5,0.6
		S1583-226.9,1583-227L1583-227z M1524.6-227.3c-0.2-0.3,0.3-0.5,1.2-0.5c1.2,0,1.3,0.1,0.7,0.5
		C1525.5-226.6,1525-226.6,1524.6-227.3z M1632.8-226.6c-0.5-0.5-0.4-1.3,0.2-1.3c0.3,0,0.4,0.2,0.3,0.5c-0.2,0.3,0,0.6,0.4,0.8
		s0.4,0.3,0.1,0.3C1633.4-226.2,1633-226.4,1632.8-226.6L1632.8-226.6z M1687.8-226.2c-0.6-0.4-0.6-0.5,0.4-0.5
		c0.7,0,1.1,0.2,0.9,0.5C1688.8-225.6,1688.8-225.6,1687.8-226.2z M1713.4-225.5c0.3-0.2,0.6-0.6,0.8-0.9c0.2-0.2,0.5-0.1,0.7,0.4
		c0.2,0.6,0,0.9-0.8,0.9C1713.5-225.1,1713.2-225.3,1713.4-225.5z M1273.9-225.8c0.3-1,1.3-1.1,1.3-0.2c0,0.5-0.3,0.8-0.8,0.8
		S1273.8-225.4,1273.9-225.8L1273.9-225.8z M1182.3-225.6c0-0.3,0.2-0.6,0.5-0.6s0.5,0.1,0.5,0.2c0,0.1-0.2,0.4-0.5,0.6
		C1182.6-225.2,1182.3-225.3,1182.3-225.6L1182.3-225.6z M1611.5-224.9c0.8-0.9,1.1-1,1.1-0.3c0,0.3-0.4,0.6-0.9,0.8
		C1610.9-224.1,1610.9-224.2,1611.5-224.9L1611.5-224.9z M1629-224.1c0.2-0.3,0.6-0.5,0.8-0.5c0.3,0,0.5,0.2,0.5,0.5
		s-0.4,0.5-0.8,0.5S1628.8-223.8,1629-224.1z M1616.3-224.1c0-0.3,0.1-0.5,0.2-0.5s0.4,0.2,0.6,0.5s0.1,0.5-0.2,0.5
		C1616.6-223.5,1616.3-223.8,1616.3-224.1z M1587-224.1c-0.2-0.3,0-0.7,0.5-0.9s0.8-0.7,0.8-1.1c0-0.4,0.2-0.7,0.5-0.7
		c0.7,0,0.7,1.5,0,1.9c-0.3,0.2-0.4,0.6-0.2,0.8c0.2,0.3-0.1,0.5-0.5,0.5C1587.7-223.5,1587.2-223.8,1587-224.1L1587-224.1z
		 M1582.4-224.1c0-0.3,0.2-0.5,0.5-0.5s0.5,0.2,0.5,0.5s-0.2,0.5-0.5,0.5C1582.7-223.5,1582.4-223.8,1582.4-224.1z M1580.8-224.1
		c0-0.3,0.2-0.5,0.5-0.5s0.5,0.2,0.5,0.5s-0.2,0.5-0.5,0.5C1581.1-223.5,1580.8-223.8,1580.8-224.1z M1679.8-223.2
		c0-0.1,0.2-0.4,0.5-0.6c0.3-0.2,0.5-0.1,0.5,0.2s-0.2,0.6-0.5,0.6S1679.8-223.1,1679.8-223.2L1679.8-223.2z M1601.8-222.7
		c0-0.1,0.2-0.4,0.5-0.6c0.3-0.2,0.5-0.1,0.5,0.2s-0.2,0.6-0.5,0.6S1601.8-222.6,1601.8-222.7z M1562.8-223c0.2-0.3,0.8-0.5,1.3-0.5
		s1.2,0.2,1.3,0.5c0.2,0.3-0.4,0.5-1.3,0.5C1563.2-222.5,1562.6-222.7,1562.8-223z M1591.9-222.3c-0.7-0.7-0.4-1.2,0.4-0.9
		c0.4,0.2,0.8,0.5,0.8,0.8C1593.2-221.8,1592.5-221.8,1591.9-222.3L1591.9-222.3z M1556.9-222.5c-0.2-0.3-0.1-0.5,0.2-0.5
		c0.3,0,0.6,0.2,0.6,0.5s-0.1,0.5-0.2,0.5C1557.3-221.9,1557.1-222.2,1556.9-222.5z M1731.2-222.5c0.2-0.6,0.3-1.1,0.4-1.1
		s0.3,0.5,0.4,1.1c0.2,0.7,0,1.1-0.4,1.1S1731.1-221.8,1731.2-222.5z M1543.6-221.8c1.3-0.8,2.1-1,2.9-0.7c1.1,0.4,1,0.5-0.8,0.8
		c-1.1,0.2-2.4,0.5-2.9,0.7C1542.2-220.9,1542.6-221.2,1543.6-221.8z M1606.6-220.8c-0.7-0.4-0.7-0.5,0.1-0.5c0.5,0,1.1,0.2,1.2,0.5
		C1608.4-220.2,1607.7-220.2,1606.6-220.8L1606.6-220.8z M1610.9-220c0-0.1,0.4-0.4,0.8-0.5c0.4-0.2,0.8-0.1,0.8,0.2
		s-0.4,0.5-0.8,0.5S1610.9-219.9,1610.9-220L1610.9-220z M1552.5-220.4c-0.2-0.2,0.1-0.6,0.6-0.8s0.7-0.5,0.5-0.8s0.1-0.5,0.6-0.5
		c0.6,0,0.8,0.3,0.6,0.9c-0.2,0.5-0.3,1-0.3,1.3C1554.5-219.8,1552.9-219.8,1552.5-220.4L1552.5-220.4z M1626.1-219.6
		c0.2-0.2,0.6-0.2,1,0s0.3,0.3-0.3,0.3C1626.3-219.2,1626-219.4,1626.1-219.6L1626.1-219.6z M1578.1-219.7c0-0.7,1-1.2,1.3-0.6
		c0.2,0.3-0.1,0.6-0.5,0.8C1578.5-219.4,1578.1-219.5,1578.1-219.7z M1559.7-220c0.2-0.4,0.7-0.8,1.1-0.8c0.7,0,0.7,0.1,0.1,0.8
		c-0.4,0.4-0.9,0.8-1.1,0.8S1559.5-219.6,1559.7-220L1559.7-220z M1646.4-218.4c0-0.1,0.2-0.4,0.5-0.6c0.3-0.2,0.5-0.1,0.5,0.2
		s-0.2,0.6-0.5,0.6C1646.7-218.2,1646.4-218.3,1646.4-218.4z M1585.7-218.9c0-0.6,0.1-0.9,0.3-0.7c0.2,0.2,0.2,0.6,0,1
		C1585.9-218.2,1585.7-218.3,1585.7-218.9L1585.7-218.9z M1634.6-218.7c0-0.6,0.2-1.1,0.5-1.1s0.4,0.5,0.2,1.1
		c-0.2,0.6-0.4,1.1-0.5,1.1C1634.7-217.6,1634.6-218.1,1634.6-218.7L1634.6-218.7z M1600-218.4c0.2-0.4,0.6-0.8,1-0.8
		s0.7,0.4,0.7,0.8c0,0.4-0.4,0.8-1,0.8C1600-217.6,1599.8-217.9,1600-218.4L1600-218.4z M1729.9-218.9c-1.2-1-2-2-1.7-2.2
		c0.6-0.3,4.7,3.3,4.3,3.7C1732.2-217.2,1731.1-217.9,1729.9-218.9z M1714.5-217.6c-0.2-0.3-0.1-0.5,0.2-0.5c0.3,0,0.7,0.2,0.9,0.5
		c0.2,0.3,0.1,0.5-0.2,0.5C1715-217.1,1714.6-217.3,1714.5-217.6z M1619.9-217.9c0.2-0.4,0.4-0.8,0.5-0.8s0.2,0.4,0.2,0.8
		c0,0.4-0.2,0.8-0.5,0.8C1619.8-217.1,1619.7-217.4,1619.9-217.9z M1581.9-217.7c0-0.3-0.2-0.4-0.5-0.2s-0.5,0.1-0.5-0.2
		c0-0.7,1.1-0.7,2.1-0.1c0.6,0.4,0.6,0.5-0.1,0.8C1582.3-217.3,1581.9-217.4,1581.9-217.7L1581.9-217.7z M1577.6-217.6
		c0-0.3,0.2-0.5,0.5-0.5s0.7,0.2,0.8,0.5c0.2,0.3,0,0.5-0.5,0.5C1578-217.1,1577.6-217.3,1577.6-217.6z M1735.2-217.3
		c-0.5-0.6-0.4-0.7,0.3-0.6c0.5,0.1,1.4,0.2,1.9,0.2c1.3,0.1,0.6,1.1-0.7,1.1C1736.3-216.5,1735.6-216.9,1735.2-217.3L1735.2-217.3z
		 M1728.5-216.9c-0.6-0.6-0.4-1.3,0.4-1.3c0.4,0,0.8,0.4,0.8,0.8C1729.8-216.5,1729.2-216.3,1728.5-216.9L1728.5-216.9z M1613-216.9
		c0.4-0.1,1-0.1,1.3,0c0.4,0.1,0.1,0.3-0.7,0.3C1612.9-216.6,1612.6-216.7,1613-216.9L1613-216.9z M1617.9-216.5
		c0-0.3,0.2-0.6,0.5-0.6s0.5,0.1,0.5,0.2c0,0.1-0.2,0.4-0.5,0.6C1618.2-216.1,1617.9-216.2,1617.9-216.5z M1583.5-216.5
		c0-0.3,0.2-0.6,0.5-0.6s0.5,0.1,0.5,0.2c0,0.1-0.2,0.4-0.5,0.6C1583.8-216.1,1583.5-216.2,1583.5-216.5z M1730.2-215.5
		c0.4-0.4,0.8-0.5,1-0.4c0.2,0.2-0.1,0.5-0.7,0.7C1729.7-214.9,1729.7-215,1730.2-215.5L1730.2-215.5z M1724.4-216.2
		c0-1.2,0.2-1.4,1.5-1c0.8,0.2,1.6,0.4,1.7,0.6c0.4,0.3-0.7,1.1-2,1.5C1724.6-214.9,1724.4-215,1724.4-216.2z M1722.6-215.3
		c-0.2-0.2-0.4-0.6-0.4-0.9c0-0.3,0.3-0.3,0.6,0.1c0.4,0.4,0.5,0.8,0.4,0.9C1723.1-215,1722.8-215.1,1722.6-215.3L1722.6-215.3z
		 M1718.1-215.3c-0.9-0.4-0.9-1.8,0-1.8c0.4,0,0.7,0.5,0.8,1.1c0,0.6,0,1.1,0,1C1718.8-215,1718.5-215.1,1718.1-215.3L1718.1-215.3z
		 M1578.3-214.6c-0.2-0.4-0.7-0.6-1.1-0.4c-0.6,0.2-0.7,0.1-0.5-0.3c0.6-0.9,1.3-0.8,1.9,0.4c0.3,0.6,0.4,1.1,0.3,1.1
		S1578.5-214.2,1578.3-214.6L1578.3-214.6z M1629.2-213.8c-0.9-0.6-0.4-1.2,0.7-1c0.5,0.1,0.7,0.4,0.4,0.8
		C1630.2-213.6,1629.7-213.5,1629.2-213.8L1629.2-213.8z M1721.6-212.6c0.5-0.2,0.5-0.5-0.3-1c-0.9-0.7-0.7-0.7,1.5-0.7
		c1.9,0,2.2,0.1,1.3,0.5c-0.6,0.3-1.3,0.7-1.5,1s-0.6,0.6-1,0.5C1721.1-212.3,1721.1-212.4,1721.6-212.6L1721.6-212.6z
		 M1640.8-219.8c-0.2-0.3-0.6-0.4-0.8-0.2c-0.7,0.5-0.6,0.8,0.3,0.8C1640.7-219.2,1641-219.5,1640.8-219.8L1640.8-219.8z
		 M1641.1-213.1c0-0.7-0.6-1-1.7-0.8c-0.2,0-0.4-0.2-0.5-0.6c-0.2-1.9-0.2-2.3,0.3-2.7c0.3-0.2,0-0.4-0.7-0.4
		c-1.1,0-1.2-0.1-0.6-0.9c0.6-0.7,0.6-0.9-0.2-1.4c-0.5-0.3-0.9-0.8-0.9-1.1s0.3-0.4,0.6-0.2c0.3,0.2,1.4,0.4,2.4,0.3
		c1,0,1.8,0.2,1.8,0.5s0.4,0.5,0.8,0.5s0.8,0.2,0.8,0.5s-0.2,0.5-0.5,0.5s-0.5,0.2-0.5,0.5s0.4,0.5,0.9,0.5s0.8,0.3,0.6,0.8
		c-0.4,1.1,0.6,1.6,2.6,1.4c2.1-0.2,1.3,0.5-2.3,2C1641.6-212.5,1641.1-212.4,1641.1-213.1L1641.1-213.1z M1794.3-212.2
		c0-0.3,0.1-0.5,0.2-0.5s0.4,0.2,0.6,0.5s0.1,0.5-0.2,0.5C1794.6-211.7,1794.3-211.9,1794.3-212.2z M1728.4-213
		c-1.7-1.4-1.3-1.9,0.5-0.5c1.2,0.9,2.1,1,1.6,0.3c-0.2-0.3-0.1-0.5,0.2-0.5c0.7,0,0.7,0.1,0.2,1.3
		C1730.6-211.4,1730.3-211.5,1728.4-213L1728.4-213z M1586.1-212.1c0.4-0.1,1-0.1,1.3,0c0.4,0.1,0.1,0.3-0.7,0.3
		C1586-211.8,1585.7-211.9,1586.1-212.1L1586.1-212.1z M1580.6-212.7c-0.2-0.7-0.3-1.4-0.1-1.5c0.5-0.5,3.1,0.4,2.7,1
		c-0.2,0.4,0.1,0.5,0.9,0.3l1.3-0.3l-1.3,0.7c-1.1,0.5-1.4,0.5-2-0.3c-0.7-0.9-0.7-0.9-0.9,0.3l-0.2,1.3L1580.6-212.7z
		 M1738.3-211.4c-0.1-0.1-1-0.3-2-0.4c-0.9-0.1-1.8-0.4-2-0.8c-0.1-0.4-0.6-0.5-1.1-0.4c-0.6,0.2-0.8,0-0.8-1c0-0.7,0.2-1,0.3-0.6
		c0.1,0.4,0.6,0.7,1,0.7s0.8,0.3,0.9,0.6c0.1,0.4,0.6,0.5,1.3,0.2c1.8-0.8,2.4-0.8,2.4,0c0,0.4,0.2,0.8,0.5,0.8s0.5,0.2,0.5,0.5
		C1739.5-211.1,1738.8-211,1738.3-211.4L1738.3-211.4z M1576.8-211.7c-0.9-0.4-0.9-0.5-0.2-0.5c0.5,0,1.1,0.2,1.2,0.5
		C1578.3-211.1,1578.2-211.1,1576.8-211.7z M1726.3-210.6c-0.2-0.3-0.1-0.7,0.2-0.8c0.3-0.2,0.5,0,0.5,0.5
		C1727.1-210,1726.8-209.8,1726.3-210.6L1726.3-210.6z M1633.7-210.4c-0.5-0.5-0.4-0.7,0.5-1c2.6-0.7,3.6,0.1,1.3,1.1
		C1634.6-209.8,1634.2-209.9,1633.7-210.4L1633.7-210.4z M1723.5-209.9c-0.5-1.3,0.4-1.9,1.4-0.8c0.5,0.6,1.3,1.2,1.7,1.3
		c0.4,0.2,0,0.3-1,0.2C1724.6-209.2,1723.6-209.5,1723.5-209.9L1723.5-209.9z M1624.2-210.2c-0.4-0.7-0.8-2.1-0.7-3.1
		c0-1,0.2-1.6,0.3-1.2c0.4,1.1,2.5,0.8,3.3-0.5c0.4-0.6,0.5-1,0.2-0.8s-0.8-0.1-1.1-0.7c-0.5-0.9-0.4-1,0.5-0.8
		c1.3,0.3,1.9,2.1,1.1,3.1c-0.4,0.4-0.5,0.8-0.3,0.8s0.5,0.1,0.7,0.1c0.7,0.1,1.7,0.9,1.7,1.4c0,0.6-2,1.9-3.6,2.4
		C1625.3-209,1624.8-209.3,1624.2-210.2L1624.2-210.2z M1762.1-208.2c0-0.5,1.5-1.8,2.1-1.8c0.9,0,1.3,1.2,0.5,1.7
		C1763.8-207.9,1762.1-207.8,1762.1-208.2L1762.1-208.2z M1735.7-208.4c0-0.3,0.2-0.6,0.5-0.6s0.5,0.1,0.5,0.2
		c0,0.1-0.2,0.4-0.5,0.6C1735.9-208,1735.7-208.1,1735.7-208.4z M1754-207.9c0-0.3,0.4-0.5,0.8-0.5s0.8,0.1,0.8,0.2
		s-0.4,0.4-0.8,0.5C1754.4-207.6,1754-207.7,1754-207.9L1754-207.9z M1784.1-207.4c0-0.3,0.2-0.5,0.5-0.5s0.7,0.2,0.8,0.5
		c0.2,0.3,0,0.5-0.5,0.5C1784.5-206.9,1784.1-207.1,1784.1-207.4z M1738.4-207.4c-0.4-0.3-0.6-0.5-0.3-0.5c0.3,0,0.2-0.3-0.3-0.5
		c-0.7-0.4-0.7-0.5,0.1-0.5c0.5,0,0.9-0.3,0.9-0.6s0.2-0.4,0.5-0.2c0.6,0.4,0.7,3,0.1,2.9C1739.4-206.9,1738.8-207.1,1738.4-207.4
		L1738.4-207.4z M1675.2-207.8c-0.2-0.5-0.4-1.1-0.3-1.3c0-0.2-0.3-0.4-0.7-0.4c-0.4,0-0.9-0.5-1.1-1.1s-0.5-1.1-0.8-1.1
		c-0.2,0-0.3-0.5-0.2-1c0.2-0.9,3.2-2.2,5.1-2.2c0.8,0,2.9,2,2.7,2.6c-0.1,0.2,0.1,0.4,0.4,0.5s0.5,0,0.5-0.3
		c-0.3-1.7,1.2-2.4,3.5-1.5c0.9,0.4,1.2,2.1,0.3,2.6c-0.3,0.2-0.4,0.5-0.3,0.8c0.1,0.2-0.3,0.6-1.1,0.8c-1.5,0.4-1.8,1.4-0.4,1.5
		c1.7,0.1-2.2,0.9-4.8,0.9C1676.2-206.9,1675.5-207.1,1675.2-207.8L1675.2-207.8z M1376.1-207.2c0.2-0.2,0.6-0.2,1,0
		s0.3,0.3-0.3,0.3C1376.2-206.9,1375.9-207,1376.1-207.2L1376.1-207.2z M1755.1-206.3c0-0.3,0.1-0.5,0.2-0.5s0.4,0.2,0.6,0.5
		s0.1,0.5-0.2,0.5C1755.3-205.8,1755.1-206,1755.1-206.3z M1752.9-206.3c0-0.3,0.2-0.5,0.5-0.5s0.7,0.2,0.8,0.5
		c0.2,0.3,0,0.5-0.5,0.5C1753.3-205.8,1752.9-206,1752.9-206.3z M1750.2-209c0-0.3-0.4-0.5-0.9-0.5c-0.8,0-0.8,0.1-0.1,0.5
		C1750.2-208.4,1750.2-208.4,1750.2-209L1750.2-209z M1747.6-205.5c-0.4-0.4-1-0.6-1.4-0.5c-0.4,0.2-0.8,0-0.8-0.3
		c0-1.1,1.1-2.7,1.9-2.7c0.9,0,1-0.3,0.3-1.6c-0.4-0.8-0.3-1,0.8-1c0.9,0,1.2,0.2,1,0.7c-0.3,0.8,0.3,0.9,1.7,0.4
		c0.5-0.2,0.7-0.5,0.6-0.8c-0.2-0.3-0.1-0.5,0.2-0.5c0.9,0,1.3,1.8,0.5,2.3c-2,1.4-2.7,1.6-3.3,1c-0.5-0.4-1-0.3-1.7,0.2
		c-0.8,0.6-0.8,0.7-0.1,0.5c0.5-0.2,1.3-0.1,1.8,0.2c0.8,0.4,0.8,0.6,0.1,1.3c-0.5,0.5-0.7,1-0.5,1.2s0.2,0.3,0,0.3
		C1748.3-204.7,1747.9-205.1,1747.6-205.5L1747.6-205.5z M1673.2-205.1c0.4-0.1,1-0.1,1.3,0c0.4,0.1,0.1,0.3-0.7,0.3
		S1672.8-204.9,1673.2-205.1L1673.2-205.1z M1700.1-204.4c-1.3-1-1.4-3-0.3-3.7c1.3-0.8,3.9,0.2,4,1.5
		C1703.8-203.9,1702.1-202.9,1700.1-204.4L1700.1-204.4z M1686.4-204c-0.4-0.1-0.7-0.7-0.7-1.3c0-0.5-0.2-1.1-0.5-1.3
		c-0.6-0.4-0.1-2,0.7-2.6c1.1-0.8,4.8-0.4,5.9,0.5c0.8,0.7,1.1,0.8,1.3,0.3c0.3-0.9,2.6-0.8,3.4,0.2c0.6,0.7,0.6,1.1,0,2.2
		c-0.4,0.7-1,1.3-1.3,1.4c-0.3,0-0.1,0.2,0.5,0.5c0.9,0.4,0.9,0.5-0.4,0.5c-1,0-1.4-0.2-1.1-0.6c0.3-0.4,0.1-0.5-0.5-0.3
		c-0.5,0.2-0.9,0.1-0.9-0.1c0-0.6-1.6-0.4-3.1,0.4C1688.4-203.6,1687.5-203.5,1686.4-204L1686.4-204z M1441.7-204
		c0.2-0.2,0.6-0.2,1,0s0.3,0.3-0.3,0.3C1441.8-203.7,1441.5-203.8,1441.7-204L1441.7-204z M1734.6-204.3c-0.4-1-0.4-1.6,0-2.3
		c0.3-0.5,0.6-0.7,0.6-0.3s0.4,0.7,0.9,0.7c0.8,0,0.8,0.1-0.1,0.8c-1,0.8-1,0.8,0.2,0.8c0.7,0,1.2,0.3,1.2,0.6s-0.1,0.5-0.2,0.5
		s-0.6,0.1-1.1,0.3C1735.5-203.1,1735-203.4,1734.6-204.3L1734.6-204.3z M1439.4-203.6c0-0.3,0.2-0.6,0.5-0.6s0.5,0.1,0.5,0.2
		c0,0.1-0.2,0.4-0.5,0.6S1439.4-203.3,1439.4-203.6z M1690.8-203.1c-0.2-0.3,0.2-0.5,0.8-0.5c1.3,0,1.4,0.3,0.3,0.7
		C1691.5-202.7,1691-202.8,1690.8-203.1L1690.8-203.1z M1614.9-202.9c0.2-0.2,0.6-0.2,1,0s0.3,0.3-0.3,0.3
		C1615-202.6,1614.7-202.7,1614.9-202.9L1614.9-202.9z M1597-203.1c0-0.3,0.2-0.6,0.5-0.6s0.5,0.1,0.5,0.2c0,0.1-0.2,0.4-0.5,0.6
		C1597.2-202.6,1597-202.7,1597-203.1L1597-203.1z M1740-202.6c0-0.3,0.2-0.5,0.5-0.5c0.2,0,0.7-0.6,1.1-1.3c0.5-1,0.5-1.3,0-1.3
		c-0.3,0-0.5-0.1-0.3-0.3c0.5-0.5,1.9,0.4,2.2,1.4c0.1,0.6,0.7,1,1.3,1c0.7,0,0.6,0.2-0.5,0.8C1742.4-201.9,1740-201.8,1740-202.6
		L1740-202.6z M1601.4-202.3c0.2-0.2,0.6-0.2,1,0s0.3,0.3-0.3,0.3C1601.5-202,1601.2-202.2,1601.4-202.3L1601.4-202.3z
		 M1682.1-201.8c0.2-0.2,0.6-0.2,1,0s0.3,0.3-0.3,0.3C1682.2-201.5,1681.9-201.6,1682.1-201.8L1682.1-201.8z M1751.8-202
		c0-1.4,1.4-1.9,2.5-1c0.8,0.6,0.8,0.8-0.1,1.4C1752.8-200.6,1751.8-200.8,1751.8-202L1751.8-202z M1708.3-201.9
		c-0.9-1.7-0.7-3.2,0.5-3.9c2.2-1.2,3.1,1.2,1.3,3.5C1709-200.8,1708.9-200.8,1708.3-201.9L1708.3-201.9z M1646.4-201.2
		c0-0.1,0.4-0.4,0.8-0.5c0.5-0.2,0.7-0.1,0.5,0.2C1647.5-201,1646.4-200.7,1646.4-201.2L1646.4-201.2z M1621.7-201.4
		c0-0.3,0.5-0.4,1.1-0.2s1.1,0.4,1.1,0.5s-0.5,0.2-1.1,0.2S1621.7-201.2,1621.7-201.4L1621.7-201.4z M1634.1-200.9
		c1.9-0.6,2.7-0.6,2.7,0c0,0.3-0.9,0.5-2,0.5C1632.9-200.5,1632.9-200.6,1634.1-200.9z M1770.4-200.4c-0.5-0.8,0-1.2,1.1-1
		c0.8,0.2,0.8,0.3,0.1,0.9C1771-200,1770.6-200,1770.4-200.4L1770.4-200.4z M1733.3-200.4c-0.2-0.3,0-0.5,0.5-0.5
		c0.9,0,1.1,0.3,0.3,0.8C1733.9-200,1733.5-200.1,1733.3-200.4L1733.3-200.4z M1752-198.6c0.2-0.2,0.6-0.2,1,0s0.3,0.3-0.3,0.3
		C1752.1-198.3,1751.8-198.4,1752-198.6L1752-198.6z M1845-191.4c0.2-0.9,1-1.5,2.2-1.5c0.8,0,0.9,0.2,0.4,1.1
		C1846.9-190.6,1844.8-190.3,1845-191.4L1845-191.4z M1841.8-188.9c0.2-0.2,0.6-0.2,1,0s0.3,0.3-0.3,0.3
		C1841.9-188.6,1841.6-188.7,1841.8-188.9L1841.8-188.9z M788.8-177.1c0.2-0.2,0.6-0.2,1,0s0.3,0.3-0.3,0.3
		C789-176.8,788.7-176.9,788.8-177.1L788.8-177.1z M1927.5-169.9c-0.7-1-0.7-1.3-0.1-2c0.9-0.9,3.3-0.5,3.7,0.7
		c0.3,0.9-1,2.4-2.1,2.4C1928.6-168.7,1927.9-169.2,1927.5-169.9L1927.5-169.9z M783.6-168.7c-0.7-0.3-0.8-0.5-0.3-0.5
		c0.4,0,1.2,0.2,1.6,0.5C785.9-168,785.1-168,783.6-168.7L783.6-168.7z M1872.2-166.3c0.4-0.1,1-0.1,1.3,0c0.4,0.1,0.1,0.3-0.7,0.3
		S1871.8-166.2,1872.2-166.3L1872.2-166.3z M1880.8-165.9c-0.8-0.1-1.6-0.5-1.7-0.9c-0.2-0.6,0.2-0.8,1.8-0.8c1.2,0,2.1,0.3,2.1,0.6
		c0,0.4,0.5,0.5,1.5,0.2c2.9-0.7,5.6-0.9,5.3-0.3c-0.2,0.3-0.1,0.6,0.2,0.6c0.3,0,0.7-0.2,0.9-0.5c0.2-0.3,1.2-0.5,2.3-0.5
		c1.1,0,2.6-0.1,3.3-0.3c0.9-0.3,1.2-0.2,0.9,0.2c-0.3,0.4,0.1,0.5,1.1,0.3c1.1-0.2,1.3-0.2,0.8,0.2c-0.6,0.4-0.6,0.6,0.3,0.8
		C1901.3-165.9,1884.3-165.5,1880.8-165.9L1880.8-165.9z M1851.3-159c0-0.7,0.6-0.7,1.6,0c0.7,0.4,0.6,0.5-0.4,0.5
		C1851.9-158.5,1851.3-158.7,1851.3-159z M794.9-159c0.2-0.3,0.6-0.5,0.9-0.5c0.3,0,0.4,0.2,0.2,0.5s-0.6,0.5-0.9,0.5
		S794.7-158.7,794.9-159L794.9-159z M782.4-152.3c0.2-0.2,0.6-0.2,1,0s0.3,0.3-0.3,0.3C782.5-152,782.2-152.1,782.4-152.3
		L782.4-152.3z M787.1-152c0-0.3,0.2-0.6,0.5-0.6s0.5,0.1,0.5,0.2c0,0.1-0.2,0.4-0.5,0.6C787.3-151.6,787.1-151.7,787.1-152z
		 M788.1-145.4c-0.5-0.1-1-0.6-1.2-1.1c-0.3-0.7,0.1-0.8,2.7-0.5c3.4,0.4,4,0.7,2.8,1.4C791.6-145,789.7-144.9,788.1-145.4
		L788.1-145.4z M794.6-145c0-0.3,0.7-0.4,1.7-0.2c2.5,0.5,2.5,0.7,0.2,0.7C795.5-144.5,794.6-144.7,794.6-145L794.6-145z
		 M1884.3-143.5c0.1-0.4,0.5-0.7,0.9-0.9c0.4-0.1,0.5,0.1,0.3,0.6C1885-142.7,1883.9-142.5,1884.3-143.5L1884.3-143.5z
		 M1869.8-135.1c0.2-0.2,0.6-0.2,1,0s0.3,0.3-0.3,0.3C1869.9-134.8,1869.6-134.9,1869.8-135.1L1869.8-135.1z M796.8-134.8
		c-0.6-0.4-0.2-0.4,1.3-0.2c2.7,0.4,3.1,0.8,1,0.7C798.3-134.3,797.2-134.5,796.8-134.8L796.8-134.8z M793-134.3
		c-1.3-0.4-1.3-0.4-0.1-0.5c0.7,0,1.4-0.1,1.6-0.2c0.2-0.1,0.5,0.2,0.6,0.5C795.3-133.6,795-133.6,793-134.3L793-134.3z
		 M1883.1-129.4c-0.7-0.4-0.6-0.5,0.4-0.5c0.6,0,1.3,0.2,1.5,0.5C1885.4-128.7,1884.1-128.7,1883.1-129.4z M814.7-129.2
		c0.2-0.2,0.6-0.2,1,0s0.3,0.3-0.3,0.3C814.8-128.9,814.5-129,814.7-129.2L814.7-129.2z M1881.3-127.6c0.4-0.1,1-0.1,1.3,0
		c0.4,0.1,0.1,0.3-0.7,0.3S1880.9-127.5,1881.3-127.6L1881.3-127.6z M854.5-120.1c0.2-0.2,0.6-0.2,1,0s0.3,0.3-0.3,0.3
		C854.6-119.8,854.3-119.9,854.5-120.1L854.5-120.1z M1875-118.7c0-0.3,0.1-0.5,0.2-0.5s0.4,0.2,0.6,0.5s0.1,0.5-0.2,0.5
		C1875.2-118.1,1875-118.4,1875-118.7z M1863.3-117.9c0.2-0.2,0.6-0.2,1,0s0.3,0.3-0.3,0.3C1863.4-117.6,1863.1-117.7,1863.3-117.9
		L1863.3-117.9z M1860.3-117.9c0.4-0.1,1.1-0.2,1.6,0c0.5,0.1,0.2,0.3-0.7,0.3C1860.4-117.7,1860-117.8,1860.3-117.9L1860.3-117.9z
		 M1875.8-117c-0.2-0.3,0.2-0.5,0.8-0.5c0.6,0,1.1,0.2,1.1,0.5s-0.3,0.5-0.8,0.5S1876-116.8,1875.8-117z M829-114.3
		c0-0.3,0.2-0.6,0.5-0.8c0.7-0.4,2.3,0.3,1.9,0.8C831-113.7,829-113.7,829-114.3L829-114.3z M816.8-110.4c0.2-0.2,0.6-0.2,1,0
		s0.3,0.3-0.3,0.3S816.6-110.2,816.8-110.4L816.8-110.4z M847.2-101.3c0.4-0.1,1.1-0.2,1.6,0c0.5,0.1,0.2,0.3-0.7,0.3
		C847.2-101,846.8-101.1,847.2-101.3L847.2-101.3z M809.7-97.6c0-0.6,6.4-0.7,6.7-0.1c0.2,0.3-1.1,0.5-3.2,0.5
		C811.3-97.2,809.7-97.3,809.7-97.6L809.7-97.6z M749.6-93.7c0.2-0.2,0.6-0.2,1,0s0.3,0.3-0.3,0.3C749.7-93.4,749.4-93.5,749.6-93.7
		L749.6-93.7z M745.4-93.9c0.2-0.3,0.8-0.4,1.4-0.2c1.5,0.4,1.3,0.7-0.3,0.7C745.7-93.4,745.2-93.6,745.4-93.9z M739-93.9
		c-1.3-0.3-1.1-0.4,1.3-0.4c2.1,0,2.6,0.1,1.9,0.4C740.9-93.4,741.1-93.4,739-93.9z M1849.3-89.4c0.2-0.2,0.6-0.2,1,0
		s0.3,0.3-0.3,0.3C1849.5-89.1,1849.1-89.2,1849.3-89.4L1849.3-89.4z M760.5-89.1c-0.4-0.7,4.3-1,6.4-0.5c1.1,0.3,2,0.7,2,0.8
		C768.8-88.3,760.7-88.7,760.5-89.1z M786.3-86.9c0.6-0.3,1.4-0.5,1.9-0.5s0.4,0.2-0.3,0.5c-0.6,0.3-1.4,0.5-1.9,0.5
		C785.5-86.5,785.6-86.6,786.3-86.9L786.3-86.9z M797.4-80.6c-2.6-0.7-1.6-1.6,1.4-1.2c1.4,0.2,3.3,0.3,4.2,0.3
		c1.5,0,3.1,0.9,1.9,1.1C803.3-80.1,798.9-80.2,797.4-80.6L797.4-80.6z M761.5-80.4c-0.5-0.5-0.8-0.6-0.6-0.3
		c0.2,0.4-0.3,0.6-1.5,0.6c-2.1-0.1-2.6-0.9-0.5-0.9c0.7,0,1.3-0.2,1.3-0.5c0-0.5,2.2-1.1,4.7-1.2c0.7,0,1.2-0.2,1.2-0.4
		s2.2-0.3,4.8-0.3c2.7,0,4.7,0.2,4.5,0.5s0.2,0.3,1,0.1c1.4-0.5,1.3-0.5,6.1,0c1.8,0.2,4.4,0.3,5.8,0.3c1.4,0,2.6,0.2,2.6,0.5
		s0.4,0.4,0.8,0.2c1-0.4,3.5,0.2,3.5,0.8c0,0.2-4,0.4-8.8,0.4c-6.3,0-9.1,0.2-9.6,0.6c-0.6,0.5-2.8,0.6-7.5,0.6
		C763.8-79.5,762.3-79.7,761.5-80.4L761.5-80.4z M1841.6-77.8c0-0.3,0.2-0.5,0.5-0.5s0.7,0.2,0.8,0.5c0.2,0.3,0,0.5-0.5,0.5
		C1842-77.3,1841.6-77.5,1841.6-77.8z M806.2-75.1c-0.2-0.3-0.1-0.5,0.2-0.5s0.6,0.2,0.6,0.5s-0.1,0.5-0.2,0.5
		C806.6-74.6,806.4-74.8,806.2-75.1z M803.5-75.1c-1-0.4-1-0.5,0.1-0.5c0.6,0,1.3,0.2,1.5,0.5C805.5-74.5,805-74.5,803.5-75.1
		L803.5-75.1z M800.5-74.5c0-0.3,0.2-0.6,0.5-0.6s0.5,0.1,0.5,0.2s-0.2,0.4-0.5,0.6C800.8-74.1,800.5-74.2,800.5-74.5z M785.3-74.7
		c0.1-0.2-0.7-0.2-1.7-0.1c-1.3,0.2-1.9,0.1-1.6-0.3c0.5-0.8,12.7-0.9,12.7-0.1c0,0.3-0.8,0.6-1.7,0.6
		C788-74.3,785.1-74.3,785.3-74.7L785.3-74.7z M816.7-74.1c0-0.4-0.7-0.4-1.9-0.2c-1.2,0.2-1.9,0.1-1.9-0.2c0-0.3,0.9-0.6,2.1-0.6
		c1.2,0,2.6-0.1,3.1-0.3c0.9-0.3,0.9-0.3,0.1,0.5c-0.5,0.4-0.8,0.9-0.6,1.1s0.1,0.4-0.3,0.4C816.9-73.5,816.7-73.7,816.7-74.1
		L816.7-74.1z M781.2-73.2c0-0.1,0.5-0.3,1.1-0.5s0.9-0.1,0.8,0.2C782.7-73,781.2-72.7,781.2-73.2L781.2-73.2z M769.3-70.5
		c0-0.1,0.5-0.3,1.1-0.5s0.9-0.1,0.8,0.2C770.9-70.3,769.3-70,769.3-70.5L769.3-70.5z M759.7-67.1c0-0.3,0.4-0.3,0.8-0.2
		s0.8,0.1,0.8-0.2c0-0.3,0.6-0.5,1.3-0.5s1.3,0.2,1.3,0.5s0.3,0.3,0.8-0.1c0.6-0.5,1.1-0.5,1.7-0.1c0.9,0.5,0.9,0.6-0.1,0.6
		C761.1-66.6,759.7-66.7,759.7-67.1L759.7-67.1z M745.2-67c-0.4-0.3-1.1-0.4-1.6-0.2c-0.7,0.2-0.7,0.2-0.1-0.3
		c0.8-0.6,2.8-0.2,2.8,0.5C746.2-66.4,746.1-66.4,745.2-67L745.2-67z M746.8-66.5c0-0.3,0.4-0.6,0.9-0.6c0.8,0,0.8-0.1-0.1-0.5
		c-1-0.4-1-0.4,0.3-0.6c0.7-0.1,2.3,0,3.5,0.2s2.6,0.1,3.1-0.1c0.5-0.3,1.4-0.5,1.9-0.4c0.6,0,0.2,0.4-0.9,0.8l-1.9,0.8l1.8-0.2
		c1.2-0.1,1.6,0,1.2,0.4c-0.7,0.7-5.6,0.6-5.8-0.1c-0.1-0.3-0.4-0.6-0.7-0.6s-0.4,0.2-0.2,0.5s-0.1,0.6-0.6,0.8
		C747.8-65.8,746.8-65.9,746.8-66.5L746.8-66.5z M822.4-65.8c0.4-0.1,1.1-0.2,1.6,0c0.5,0.1,0.2,0.3-0.7,0.3
		C822.5-65.5,822.1-65.6,822.4-65.8L822.4-65.8z M817.2-53.6c-0.4-0.3-1.5-0.4-2.4-0.2c-1.6,0.2-1.6,0.2-0.3-0.3
		c1.4-0.6,5.2-0.2,5.7,0.6C820.6-52.9,818.2-52.9,817.2-53.6L817.2-53.6z M806.2-53.6c-0.8-0.3-0.5-0.5,1.3-0.7
		c1.3-0.2,2.8-0.1,3.2,0.2c0.6,0.4,0.6,0.5-0.4,0.2c-0.7-0.2-1.6-0.1-2.2,0.2S806.8-53.4,806.2-53.6L806.2-53.6z M778.6-46.4
		c0.2-0.2,0.6-0.2,1,0s0.3,0.3-0.3,0.3C778.8-46.1,778.4-46.2,778.6-46.4L778.6-46.4z M782.2-45c-1.3-0.4-1.3-0.4-0.2-0.5
		c0.6,0,1.3,0.2,1.5,0.5s0.3,0.5,0.2,0.5C783.7-44.5,783-44.8,782.2-45z M746.9-38.3c0.2-0.2,0.6-0.2,1,0s0.3,0.3-0.3,0.3
		C747-38,746.7-38.1,746.9-38.3L746.9-38.3z M748.2-34.6c0.4-0.1,1-0.1,1.3,0s0.1,0.3-0.7,0.3C748.2-34.3,747.9-34.4,748.2-34.6
		L748.2-34.6z M740-27.2c-0.8-0.4-0.5-0.5,1.3-0.5c1.3,0,2.8,0.2,3.2,0.5C745.6-26.6,741.6-26.6,740-27.2z M738.5-18.5
		c-0.1-0.2,0.2-0.4,0.8-0.4s1,0.2,1,0.4c0,0.2-0.3,0.4-0.8,0.4C739.1-18.1,738.6-18.3,738.5-18.5z M768.5-16.5
		c-0.9-0.4-0.9-0.5,0.4-0.4c0.8,0,1.5,0.3,1.5,0.5C770.4-15.9,769.9-15.9,768.5-16.5z M744.3-17c-0.9-1-0.9-1.1,0.2-1.1
		c0.7,0,1,0.2,0.9,0.5c-0.2,0.3,0,0.4,0.5,0.2c0.5-0.2,0.8-0.1,0.8,0.2c0,0.3,0.7,0.7,1.5,0.8c1.1,0.2,0.9,0.2-0.7,0.3
		C745.9-16,745-16.3,744.3-17L744.3-17z M736.6-16c0.7-0.4,0.7-0.5,0-0.5c-0.6,0-0.6-0.1-0.1-0.7c0.5-0.5,0.8-0.5,1.1,0
		c0.3,0.4,1.1,0.6,2.3,0.5c1-0.1,1.4-0.1,0.9,0s-0.9,0.4-0.9,0.6c0,0.2-0.9,0.4-2,0.5C736.3-15.5,736-15.6,736.6-16L736.6-16z
		 M769.7-14.7c-0.6-0.6-4.7-1.7-4.4-1.2c0.4,0.6-0.8,0.9-2.7,0.8c-0.9-0.1-2.5-0.2-3.5-0.2c-1.7-0.1-1.8-0.1-0.6-0.6
		c0.7-0.3,2.3-0.6,3.6-0.7s2.5-0.3,2.7-0.5c0.6-0.6,2.2-0.4,2.5,0.3c0.3,0.7,3.8,2,5.6,2c0.9,0,0.9-0.1,0.2-0.5
		c-0.6-0.4-0.4-0.5,0.9-0.5c1.2,0,1.7,0.2,1.7,0.8c0,0.4-0.4,0.8-0.8,0.8c-0.5,0-0.7-0.3-0.5-0.7c0.3-0.5,0.2-0.5-0.3,0
		C773.4-14.3,770.3-14.1,769.7-14.7L769.7-14.7z M766.8-14.7c0.2-0.2,0.6-0.2,1,0s0.3,0.3-0.3,0.3S766.6-14.5,766.8-14.7L766.8-14.7
		z M787.8-13.1c0.2-0.2,0.6-0.2,1,0s0.3,0.3-0.3,0.3C787.9-12.7,787.6-12.9,787.8-13.1L787.8-13.1z M752.1-12.7
		c-0.7-0.4-0.6-0.5,0.4-0.5c0.7,0,1.2,0.2,1.2,0.5C753.7-12.1,753.2-12.1,752.1-12.7z M749.6-12.5c0.2-0.2,0.6-0.2,1,0
		s0.3,0.3-0.3,0.3S749.4-12.3,749.6-12.5L749.6-12.5z M769.2-12c0.4-0.1,1-0.1,1.3,0c0.4,0.1,0.1,0.3-0.7,0.3
		C769.1-11.7,768.8-11.9,769.2-12L769.2-12z M761.4-12c0.2-0.2,0.6-0.2,1,0s0.3,0.3-0.3,0.3C761.6-11.7,761.2-11.8,761.4-12
		L761.4-12z M734.1-11.6c-0.2-0.3,0-0.4,0.5-0.2c0.9,0.4,1.1,0.7,0.3,0.7C734.7-11.1,734.3-11.4,734.1-11.6L734.1-11.6z M760.7-9.5
		c0-0.4,8.1-0.1,8.6,0.4c0.2,0.2-1.7,0.2-4.1,0.2C762.7-9.1,760.7-9.3,760.7-9.5L760.7-9.5z M753.6-9.3c0.4-0.1,1-0.1,1.3,0
		c0.4,0.1,0.1,0.3-0.7,0.3C753.5-9,753.2-9.2,753.6-9.3L753.6-9.3z M731.2,14c0-0.1,0.5-0.3,1.1-0.5s0.9-0.1,0.8,0.2
		C732.7,14.1,731.2,14.4,731.2,14L731.2,14z M733.3,22.8c-1.1-0.4-1.2-0.4-0.3-0.5c0.6,0,1.4,0.2,1.9,0.5
		C735.9,23.4,735.2,23.4,733.3,22.8L733.3,22.8z M740.8,33.5c0-0.3,0.5-0.5,1.2-0.5c1,0,1.1,0.1,0.4,0.5
		C741.4,34.2,740.8,34.2,740.8,33.5z M756.6,39.7c0.2-0.2,0.6-0.2,1,0s0.3,0.3-0.3,0.3S756.4,39.8,756.6,39.7L756.6,39.7z
		 M1769.6,54.5c0-0.3,0.2-0.5,0.5-0.5s0.5,0.2,0.5,0.5s-0.2,0.5-0.5,0.5C1769.8,55,1769.6,54.8,1769.6,54.5z M1816.6,58.3
		c0.2-0.3,0.6-0.5,0.9-0.5s0.4,0.2,0.2,0.5c-0.2,0.3-0.6,0.5-0.9,0.5C1816.5,58.8,1816.5,58.6,1816.6,58.3L1816.6,58.3z M1331,60.9
		c-0.7-0.3-0.8-0.5-0.3-0.5c0.4,0,1.3,0.2,1.9,0.5c0.7,0.3,0.8,0.5,0.3,0.5C1332.5,61.4,1331.6,61.2,1331,60.9z M1154.5-220.7
		c-0.4-0.2-0.9-0.1-1,0c-0.2,0.2,0.1,0.3,0.7,0.3C1154.8-220.4,1154.9-220.5,1154.5-220.7L1154.5-220.7z M1156.4-217.6
		c-0.8-1.2-2-1.4-2-0.3c0,0.8,0.8,1.3,2,1.3C1156.9-216.5,1156.9-216.8,1156.4-217.6L1156.4-217.6z M1157.9-214.9
		c-0.2-0.3-0.6-0.5-0.8-0.5s-0.5,0.2-0.5,0.5s0.4,0.5,0.8,0.5S1158.1-214.6,1157.9-214.9z M1155.5-215.3c0-0.7-0.1-0.8-0.9-0.2
		c-0.5,0.4-1,0.8-1.2,0.9c-0.1,0.1,0.3,0.2,0.9,0.2C1155-214.4,1155.5-214.7,1155.5-215.3z M1288-213.3c0.2-0.3,0.1-0.5-0.2-0.5
		c-0.3,0-0.7,0.2-0.9,0.5c-0.2,0.3-0.1,0.5,0.2,0.5C1287.4-212.8,1287.8-213,1288-213.3z M1227.8-213.3c0.2-0.3-0.2-0.5-0.8-0.5
		s-1,0.2-0.8,0.5s0.5,0.5,0.8,0.5C1227.2-212.8,1227.6-213,1227.8-213.3z M1211.9-213.3c0-0.3-0.2-0.5-0.5-0.5s-0.5,0.2-0.5,0.5
		s0.2,0.5,0.5,0.5S1211.9-213,1211.9-213.3z M1172.4-213.3c-0.2-0.3-0.6-0.5-0.9-0.5s-0.4,0.2-0.2,0.5c0.2,0.3,0.6,0.5,0.9,0.5
		S1172.6-213,1172.4-213.3z M1157.6-213c-0.4-0.4-0.9-0.8-1.3-0.8c-0.3,0-0.1,0.4,0.4,0.8C1158.1-212,1158.5-212,1157.6-213
		L1157.6-213z M1220.5-212.2c0-0.3-0.2-0.5-0.5-0.5s-0.5,0.2-0.5,0.5s0.2,0.5,0.5,0.5S1220.5-211.9,1220.5-212.2z M1191.5-212.3
		c0.6-0.4,0.4-0.5-0.7-0.2c-0.9,0.2-1.9,0.1-2.4-0.4c-0.8-0.6-0.8-0.6-0.2,0.2C1189-211.6,1190.3-211.4,1191.5-212.3L1191.5-212.3z
		 M1198-211.5c-0.4-0.2-0.9-0.1-1,0c-0.2,0.2,0.1,0.3,0.7,0.3C1198.3-211.2,1198.5-211.4,1198-211.5L1198-211.5z M1225.4-210.6
		c0-0.3-0.2-0.5-0.5-0.5s-0.5,0.2-0.5,0.5s0.2,0.5,0.5,0.5C1225.1-210.1,1225.4-210.3,1225.4-210.6z M1209.8-210.9
		c0-0.1-0.2-0.2-0.5-0.2s-0.5,0.3-0.5,0.6s0.2,0.4,0.5,0.2C1209.5-210.5,1209.8-210.8,1209.8-210.9z M1187.5-210.6
		c0.2-0.3,0.2-0.5,0.1-0.5s-0.6-0.1-1.1-0.3c-0.6-0.2-0.8-0.1-0.5,0.5C1186.3-210,1187-209.8,1187.5-210.6L1187.5-210.6z
		 M1164.4-211c-0.2-0.2-0.3,0.1-0.3,0.7c0,0.6,0.2,0.8,0.3,0.3C1164.6-210.4,1164.6-210.8,1164.4-211L1164.4-211z M1149.8-209
		c-0.2-0.3-0.6-0.5-0.9-0.5s-0.4,0.2-0.2,0.5c0.2,0.3,0.6,0.5,0.9,0.5S1150-208.7,1149.8-209z M1146.3-209c0-0.3-0.3-0.5-0.6-0.5
		c-0.3,0-0.4,0.2-0.2,0.5c0.2,0.3,0.4,0.5,0.6,0.5C1146.2-208.5,1146.3-208.7,1146.3-209z M1270.9-208.7c-0.4-0.4-1-0.8-1.2-0.8
		s-0.1,0.4,0.3,0.8c0.4,0.4,0.9,0.8,1.2,0.8S1271.3-208.3,1270.9-208.7z M1267.8-208.6c0-0.3-0.3-0.4-0.8-0.2
		c-0.4,0.2-0.9,0.1-1-0.2s-0.6-0.4-1.2-0.1c-1,0.4-1,0.4,0.3,0.7C1267.1-208,1267.8-208,1267.8-208.6L1267.8-208.6z M1243.9-209.3
		c0.2-0.4,0.1-0.9-0.2-1.1c-0.8-0.5-0.6-1.3,0.3-1.3c0.4,0,0.8-0.2,0.8-0.4c0-1-0.7-1-1.7-0.2c-1.3,1.1-1.5,4.5-0.3,4.1
		C1243.2-208.4,1243.7-208.9,1243.9-209.3L1243.9-209.3z M1231.7-209.4c-0.1-0.8,0-1.8,0.3-2.2c0.2-0.4,0.3-0.9,0.1-1.2
		c-0.2-0.3,0.2-0.6,0.9-0.8c0.7-0.1,0.3-0.2-0.9-0.2c-1.9,0.1-2.1,0.2-2.1,1.3c0,0.7-0.2,1.2-0.5,1.2s0,0.5,0.6,1
		c0.7,0.6,1.2,1.3,1.2,1.6s0.1,0.6,0.3,0.6C1231.8-207.9,1231.8-208.6,1231.7-209.4L1231.7-209.4z M1225.1-208.5
		c0.2-0.3,0.1-0.5-0.2-0.5c-0.3,0-0.7,0.2-0.9,0.5c-0.2,0.3-0.1,0.5,0.2,0.5C1224.5-207.9,1224.9-208.2,1225.1-208.5z M1298.7-209
		c-0.2-0.6-0.5-1.1-0.8-1.1c-0.6,0-0.6,0.9,0.1,1.3c0.3,0.2,0.4,0.6,0.2,0.9c-0.2,0.3-0.1,0.4,0.2,0.2
		C1298.7-207.8,1298.8-208.4,1298.7-209L1298.7-209z M1225.5-206.7c-0.4-0.2-0.9-0.1-1,0c-0.2,0.2,0.1,0.3,0.7,0.3
		C1225.8-206.4,1225.9-206.5,1225.5-206.7L1225.5-206.7z M1215.7-209.3c-0.3-0.3-0.4-0.8-0.2-1c0.2-0.2,0.1-0.4-0.3-0.4
		c-0.3,0-0.6,0.3-0.6,0.7c0,0.5-0.7,0.8-1.9,1c-1.3,0.2-1.9,0-1.9-0.5c0-0.4-0.2-0.6-0.5-0.4c-0.3,0.2-0.2,0.9,0.1,1.6
		c0.5,1,0.9,1.2,1.8,1c0.7-0.2,1.2-0.1,1.2,0.3c0,0.3,0.6,0.1,1.3-0.6C1215.8-208.3,1216-208.8,1215.7-209.3L1215.7-209.3z
		 M1239.6-206.3c0.2-0.3,0.1-0.5-0.2-0.5c-0.3,0-0.6-0.4-0.7-0.9c-0.1-0.7-0.3-0.5-0.5,0.5C1237.9-205.8,1238.9-205.1,1239.6-206.3
		L1239.6-206.3z M1236.7-206.4c0-0.3-0.3-0.5-0.7-0.5c-0.4,0-0.5-0.1-0.1-0.4c0.7-0.5,0.7-3.4,0-3.4c-0.3,0-0.8-0.4-1.1-0.9
		c-0.4-0.6-1-0.8-1.6-0.5c-0.8,0.3-0.8,0.5-0.3,1.2c0.4,0.4,0.5,0.8,0.3,0.8s-0.1,0.6,0.2,1.3c0.4,1.1,0.3,1.3-0.8,1.6
		c-2.2,0.6-1.4,1.3,1.4,1.3C1235.4-205.9,1236.7-206.1,1236.7-206.4z M1204.5-206.1c-0.4-0.2-0.5-0.6-0.2-1.2
		c0.3-0.5,0.4-1.3,0.3-1.8s0.1-0.9,0.4-0.9s0.3-0.3-0.1-0.8c-0.5-0.7-0.5-0.8,0.2-0.8c0.5,0,0.9,0.3,1.1,0.7
		c0.2,0.5,0.4,0.5,1.1-0.1c0.6-0.5,1.5-0.6,2.5-0.4c1.9,0.4,2,0.2,0.5-1.4c-0.6-0.6-1.1-0.9-1.1-0.5s-0.4,0.6-0.8,0.6
		s-0.7-0.2-0.5-0.5c0.6-1-4.2-0.4-5.1,0.6c-1,1.3-2.7,0.7-2.3-0.7c0.3-1.2-0.2-1.3-2.6-0.3l-1.8,0.8l1.5,0.6c0.8,0.3,1.8,0.6,2,0.6
		s0.4,0.2,0.3,0.4c-0.4,0.7,1,2.2,2.1,2.1c1.3-0.1,1.8,2.2,0.7,2.9c-0.5,0.3-0.2,0.4,0.9,0.4C1204.5-205.9,1204.9-206,1204.5-206.1
		L1204.5-206.1z M1147.4-206.3c0-0.3-0.3-0.5-0.6-0.5c-0.3,0-0.4,0.2-0.2,0.5c0.2,0.3,0.4,0.5,0.6,0.5
		C1147.3-205.8,1147.4-206,1147.4-206.3z M1219.4-205.7c0.6,0,0.6-0.2,0.1-0.8c-0.7-0.9-0.3-1.4,1.2-1.4c0.9,0,0.9-0.1,0.4-0.6
		c-0.4-0.4-0.6-1.1-0.6-1.6s-0.5-1-1.1-1.2c-1-0.3-1.1-0.1-0.9,1c0.1,0.7,0,1.3-0.3,1.3s-0.4,0.5-0.2,1.1c0.2,0.7,0,1.2-0.5,1.4
		c-1.1,0.4-0.9,1.2,0.2,1C1218.2-205.6,1219-205.7,1219.4-205.7L1219.4-205.7z M1216.2-206.1c0-0.1-0.2-0.2-0.5-0.2
		s-0.5,0.3-0.5,0.6s0.2,0.4,0.5,0.2S1216.2-206,1216.2-206.1L1216.2-206.1z M1192.1-205.7c1.4-0.3,2.1-0.3,2.3,0.1
		c0.2,0.3,0.2,0,0.2-0.7c-0.1-1,0.3-1.6,1.4-2.3c1.9-1.2,1.9-2.2,0.1-1.7c-0.7,0.2-2.4,0.4-3.8,0.4c-2.8,0.1-4,1-3.1,2.1
		c0.3,0.4,0.5,1.2,0.3,1.6C1189.2-205.1,1189.4-205.1,1192.1-205.7L1192.1-205.7z M1173.2-206c0-0.5,0.3-0.7,0.8-0.5
		c1.1,0.4,3.6-0.3,3.2-0.9c-0.2-0.3,0-0.5,0.4-0.6c0.5,0,0.5-0.1,0-0.3c-1.4-0.5-0.7-1.7,0.9-1.7c1.5,0,2.4,1,1,1
		c-0.4,0-0.4,0.2,0.1,0.8c0.4,0.4,1,0.8,1.3,0.8s1-0.4,1.3-0.8c0.5-0.7,0.5-0.8-0.2-0.8c-0.5,0-0.9-0.4-0.9-0.8
		c0-0.4,0.2-0.8,0.4-0.8c0.7,0,3.4,3.8,3.1,4.3c-0.4,0.6-0.3,0.6,2.2,0.8c1.5,0.1,1.7,0,1.6-1.1c-0.1-1-0.3-1.2-1-1s-0.9,0-0.9-0.8
		c0-0.6-0.2-1.1-0.5-1.1s-0.9-0.4-1.4-0.9s-1.3-0.9-1.8-1c-0.6-0.1-0.9-0.5-0.8-1.2c0.1-0.9,0.1-0.9-0.4-0.1c-0.3,0.6-1,0.8-1.9,0.6
		c-0.7-0.1-1.8-0.1-2.3,0.2c-1.2,0.5-1.6,0.6-2.6,0.7c-0.4,0-0.8,0.3-0.8,0.6s0.2,0.4,0.4,0.3c0.2-0.2,0.4,0.1,0.4,0.5
		s-0.3,0.9-0.7,1c-0.4,0.2-0.6,0-0.4-0.5s0-0.8-0.7-0.8c-1.6,0-2.5,0.8-2,1.7c0.5,0.8,0.6,1.1,0.7,2.3
		C1172.1-205,1173.2-205,1173.2-206L1173.2-206z M1280.5-205.7c-0.6-1-1.3-0.6-1,0.5c0.2,0.7,0.5,0.9,0.8,0.6
		C1280.6-204.9,1280.7-205.4,1280.5-205.7L1280.5-205.7z M1204.9-204.7c0-0.3-0.2-0.5-0.5-0.5s-0.5,0.2-0.5,0.5s0.2,0.5,0.5,0.5
		S1204.9-204.4,1204.9-204.7z M1151.2-204.7c0-0.3-0.2-0.6-0.4-0.8c-0.2-0.2-0.4,0.1-0.4,0.5s0.2,0.8,0.4,0.8
		S1151.2-204.4,1151.2-204.7z M1243.1-204.2c0-0.3-0.2-0.5-0.5-0.5s-0.5,0.2-0.5,0.5s0.2,0.5,0.5,0.5
		C1242.9-203.6,1243.1-203.9,1243.1-204.2z M1211.5-204.7c0.3-1.2,0-1.6-1.2-1.6c-0.7,0-0.7,0.1-0.1,0.5c0.5,0.3,0.5,0.6,0.1,0.8
		c-0.8,0.5-0.7,1.4,0.1,1.4C1210.9-203.6,1211.4-204.1,1211.5-204.7L1211.5-204.7z M1270.1-204.3c1.1-1.3,1.2-1.5,0.5-1.5
		c-0.8,0-2.8,2-2.4,2.3C1268.8-202.9,1269-203,1270.1-204.3z M1228.7-205.1c1-2,0.5-5.1-0.6-4.4c-0.4,0.3-0.6,0.5-0.3,0.5
		c0.3,0,0.3,0.2-0.1,0.4c-0.8,0.5-1.5,2.8-0.8,2.8c0.3,0,0.5,0.6,0.4,1.3C1227.1-202.8,1227.7-203.1,1228.7-205.1L1228.7-205.1z
		 M1398.6-202.9c-0.4-0.2-0.9-0.1-1,0c-0.2,0.2,0.1,0.3,0.7,0.3C1398.9-202.6,1399.1-202.8,1398.6-202.9L1398.6-202.9z M1215-202.9
		c-0.5-0.1-1.2-0.1-1.6,0s0.1,0.3,1,0.2C1215.2-202.7,1215.5-202.8,1215-202.9L1215-202.9z M1224.9-202.5c-0.6-0.4-0.6-0.5,0-0.7
		c0.4-0.1,0.6-0.4,0.4-0.6c-0.2-0.2-0.7-0.2-1.2,0c-0.7,0.3-0.8,0.5-0.3,1.1c0.3,0.4,0.9,0.7,1.2,0.7
		C1225.4-202,1225.3-202.2,1224.9-202.5L1224.9-202.5z M1188.4-202.7c-0.1-0.2-0.1-0.7-0.1-1s-0.2-0.4-0.5-0.2s-0.4,0.6-0.2,0.8
		c0.2,0.3,0.1,0.5-0.3,0.5s-0.6-0.2-0.6-0.5s-0.6-0.5-1.3-0.5c-0.9,0-1.2,0.2-1,0.7C1184.6-202.1,1188.6-201.9,1188.4-202.7
		L1188.4-202.7z M1206-202.3c0-0.1-0.2-0.2-0.5-0.2s-0.5,0.3-0.5,0.6s0.2,0.4,0.5,0.2S1206-202.2,1206-202.3L1206-202.3z
		 M1202.1-202.9c0-0.4-0.2-0.8-0.4-0.8c-0.2,0-0.4-0.5-0.4-1c0-0.6-0.4-1.2-0.8-1.3c-0.9-0.4-1.1,0.5-0.2,1c0.4,0.3,0.4,0.5-0.1,0.8
		c-1,0.6-0.2,2.6,1,2.3C1201.6-202,1202.1-202.4,1202.1-202.9L1202.1-202.9z M1618-201.3c-0.4-0.2-0.9-0.1-1,0
		c-0.2,0.2,0.1,0.3,0.7,0.3C1618.3-201,1618.5-201.1,1618-201.3L1618-201.3z M1260-201.8c0.6-1.5,0.3-2.1-0.5-1.1
		c-0.4,0.6-0.8,1.2-0.8,1.5C1258.7-200.6,1259.7-200.9,1260-201.8L1260-201.8z M1164.9-204.2c-0.2-1.5-0.1-1.6,1.1-1.3
		c1.1,0.3,1.2,0.2,0.9-0.7c-0.3-0.9-0.3-0.9,0.5-0.3c1,0.8,0.7,2.2-0.5,2.2c-0.5,0-0.7,0.5-0.6,1.5c0.1,1.1,0.5,1.5,1.5,1.6
		c1.1,0.1,1.2,0.1,0.4-0.4c-1-0.6-1.3-2.1-0.4-2.1c0.3,0,0.5,0.3,0.5,0.6s0.5,0.4,1.2,0.2s0.9-0.2,0.6,0.1c-1.1,0.7,0,1.6,1.5,1.2
		c0.7-0.2,1.1-0.4,0.7-0.4c-0.7-0.1-0.7-1,0-2.1c0.3-0.4,0.1-0.7-0.4-0.7s-0.8,0.2-0.8,0.5c0,0.9-0.8,0.6-1.7-0.8
		c-0.9-1.2-0.9-1.4-0.1-2.1c0.5-0.5,0.6-0.8,0.2-0.8c-0.3,0-0.5-0.2-0.3-0.5c0.2-0.4-0.1-0.4-1.1,0c-1.8,0.7-1.9,0.7-1.9-0.3
		c0-0.4-0.2-0.8-0.5-0.8s-0.5,0.3-0.5,0.7c0,0.5-0.9,0.7-3,0.7s-3-0.2-3-0.7s0.4-0.6,1.1-0.4c0.6,0.2,1.1,0.1,1.1-0.2
		s-0.5-0.6-1-0.6c-1.4,0-1.9-0.9-0.7-1.2c0.6-0.2,0.4-0.3-0.6-0.3s-1.4,0.2-1.2,0.5c0.4,0.6-1.1,2.2-2.6,2.8
		c-1.4,0.5-0.8,1.7,0.9,1.7c0.8,0,1.4,0,1.4,0.1s-0.8,0.6-1.9,1.2c-2.1,1.2-2.5,2.2-0.8,2.2c0.7,0,1.1-0.4,1.1-1.1
		c0-1,0.1-1,0.8-0.5c0.5,0.4,0.7,1,0.6,1.3c-0.2,0.4,0.1,0.6,0.8,0.4c0.6-0.2,1-0.6,0.8-1s0.1-0.9,0.5-1.1c0.5-0.2,0.7-0.7,0.5-1.1
		c-0.4-1,0.7-1.4,2.6-0.7c1.6,0.5,1.6,0.5,0.1,0.3c-1.9-0.2-1.9,0.4-0.1,1.2c0.8,0.4,1.3,0.8,1.1,1c-0.2,0.2-0.6,0.1-0.9-0.2
		c-0.7-0.7-2.6-0.3-2.6,0.5c0,0.3,0.4,0.4,1,0.2s1.3,0,1.7,0.5c0.6,0.7,0.5,0.8-0.1,0.8c-0.5,0-0.4,0.3,0.3,0.8
		c0.9,0.7,1.1,0.7,1.5,0C1165-202.2,1165.1-203.3,1164.9-204.2L1164.9-204.2z M1246.3-201.2c0-0.4-0.3-0.8-0.6-0.8
		c-0.3,0-0.4,0.2-0.3,0.5c0.2,0.3-0.1,0.6-0.6,0.7c-0.7,0.2-0.7,0.3,0.3,0.3C1245.9-200.4,1246.3-200.7,1246.3-201.2L1246.3-201.2z
		 M1200.9-200.8c-1.1-0.8-2-0.7-2.2,0.1c-0.1,0.3,0.6,0.5,1.5,0.6C1201.8-200,1201.8-200.1,1200.9-200.8L1200.9-200.8z
		 M1164.7-200.2c-0.4-0.1-1-0.1-1.3,0c-0.4,0.1-0.1,0.3,0.7,0.3C1164.8-200,1165.1-200.1,1164.7-200.2L1164.7-200.2z M1161.9-200.4
		c0-0.3-0.2-0.6-0.4-0.8c-0.2-0.2-0.4,0.1-0.4,0.5s0.2,0.8,0.4,0.8C1161.7-199.9,1161.9-200.1,1161.9-200.4z M1685.4-199.9
		c-0.2-0.3-0.4-0.5-0.6-0.5s-0.2,0.2-0.2,0.5s0.3,0.5,0.6,0.5C1685.5-199.3,1685.6-199.6,1685.4-199.9z M1085.3-199.8
		c0.2-0.3-0.2-0.5-0.8-0.4c-0.6,0-1.1,0.3-1.1,0.5C1083.4-199.2,1084.9-199.2,1085.3-199.8L1085.3-199.8z M1682.6-199.2
		c-0.4-0.2-0.9-0.1-1,0c-0.2,0.2,0.1,0.3,0.7,0.3C1682.9-198.9,1683-199,1682.6-199.2L1682.6-199.2z M1667.4-199.3
		c0-0.3-0.4-0.5-0.9-0.5c-0.8,0-0.8,0.1-0.1,0.5C1667.3-198.7,1667.4-198.7,1667.4-199.3L1667.4-199.3z M1659.3-199
		c0-0.1-0.5-0.3-1.1-0.5s-0.9-0.1-0.8,0.2C1657.8-198.8,1659.3-198.6,1659.3-199L1659.3-199z M1649.9-199.6c0.4-1.2,0.4-1.3-0.3-1.3
		c-0.3,0-0.5,0.2-0.3,0.4s0.1,0.7-0.2,1.1c-0.4,0.5-0.4,0.7-0.1,0.7C1649.3-198.8,1649.7-199.2,1649.9-199.6L1649.9-199.6z
		 M1605-199.3c0-0.3-0.3-0.5-0.6-0.5c-0.3,0-0.4,0.2-0.2,0.5c0.2,0.3,0.4,0.5,0.6,0.5C1604.9-198.8,1605-199,1605-199.3z
		 M1222.7-199.5c0-0.4-0.4-0.9-0.8-1.1c-0.5-0.2-0.8,0-0.8,0.7c0,0.6,0.4,1.1,0.8,1.1C1222.3-198.8,1222.7-199.1,1222.7-199.5z
		 M1239.6-198.8c-0.2-0.3-0.4-0.5-0.6-0.5c-0.1,0-0.2,0.2-0.2,0.5s0.3,0.5,0.6,0.5S1239.8-198.5,1239.6-198.8z M1225.7-199.3
		c-0.2-0.3-0.8-0.6-1.3-0.6c-0.8,0-0.8,0.1,0.1,0.8C1225.6-198.2,1226.2-198.3,1225.7-199.3L1225.7-199.3z M1220.3-199.8
		c-0.2-0.6-0.6-1-0.8-0.8c-0.3,0.2-0.6,0-0.8-0.2c-0.2-0.3,0.3-0.7,1.1-0.9c1.4-0.4,1.4-0.4,0.3-0.8c-0.6-0.2-1.2-0.8-1.2-1.3
		c0-0.9-0.3-1-1.9-0.3c-1,0.4-1,0.5-0.1,0.8c1.1,0.4,1.3,2.2,0.3,2.6c-0.4,0.2-0.3,0.3,0.3,0.3c0.5,0,0.9,0.3,0.9,0.6
		s0.4,0.5,0.8,0.5s0.8,0.3,0.8,0.6s0.1,0.5,0.3,0.3C1220.5-198.6,1220.5-199.2,1220.3-199.8L1220.3-199.8z M1692.9-198
		c1.2-0.4,0.5-1.3-0.9-1.2c-0.6,0-0.9,0.2-0.5,0.3s0.5,0.5,0.4,0.8C1691.5-197.6,1691.7-197.6,1692.9-198L1692.9-198z M1191.6-198.6
		c1-0.6-0.7-2.4-2.3-2.4c-1.7,0-2.2,0.9-0.8,1.4c0.4,0.2,0.7,0.5,0.5,0.8s-0.7,0.4-1.1,0.2s-0.9,0-1.1,0.3c-0.3,0.4,0.3,0.5,1.9,0.2
		C1190.1-198.1,1191.3-198.4,1191.6-198.6L1191.6-198.6z M1183.1-200.9c-0.2-0.3-0.1-0.5,0.2-0.5s0.6,0.2,0.6,0.5s-0.1,0.5-0.2,0.5
		S1183.3-200.6,1183.1-200.9z M1184.1-198.1c-0.5-0.2-0.5-0.5,0.2-1.6s0.8-1.5,0.2-2.1c-0.8-0.8-3.3-0.4-2.8,0.5
		c0.2,0.4,0,0.4-0.5,0.2s-1.2,0.1-1.6,0.7c-1.1,1.5-1.5,0.6-0.6-1.1c0.7-1.4,0.7-1.5,0-1.2c-0.4,0.2-0.7,0.5-0.5,0.8
		c0.2,0.2-0.2,0.6-0.8,0.8s-1.2,0.7-1.4,1.2c-0.2,0.6-0.1,0.8,0.4,0.6c0.4-0.2,1.6,0.1,2.6,0.7c1,0.5,2.7,1,3.7,1
		S1184.4-198,1184.1-198.1L1184.1-198.1z M1177.8-198.3c0.4-0.7-0.3-0.7-1.3,0c-0.7,0.4-0.7,0.5,0.1,0.5
		C1177-197.7,1177.6-198,1177.8-198.3L1177.8-198.3z M1175.2-199.7c0-0.9-1-0.9-1.8-0.1c-0.4,0.4-0.4,0.8,0,1.3
		C1174-197.8,1175.2-198.5,1175.2-199.7L1175.2-199.7z M1230.2-198.1c0.7,0.2,1,0,0.9-0.8c0-0.6-0.3-1-0.6-1c-0.3,0-0.2-0.2,0.2-0.5
		c0.7-0.5,0.7-0.5,0-0.5s-0.7-0.1,0-0.5c0.6-0.4,0.7-0.6,0.1-1.3c-0.4-0.5-1.1-0.8-1.6-0.8c-0.7,0-0.7,0.1-0.2,0.6
		c0.8,0.8,0.8,1.7,0.1,1.2c-0.4-0.2-0.5,0-0.2,0.8c0.2,0.8,0.1,1.1-0.3,1.2c-0.5,0-0.5,0.2,0.1,0.6c0.6,0.4,0.5,0.5-0.7,0.3
		c-1.6-0.3-1.6-0.3-1.2,0.9c0.3,0.7,0.6,0.7,1.4,0.3C1228.8-198.1,1229.7-198.2,1230.2-198.1L1230.2-198.1z M1200.6-197.7
		c0-0.3-0.4-0.5-0.8-0.5c-0.5,0-0.7,0.2-0.5,0.5s0.6,0.5,0.8,0.5C1200.4-197.2,1200.6-197.4,1200.6-197.7z M1225.9-197.2
		c0-0.3-0.4-0.5-0.8-0.5s-0.8,0.2-0.8,0.5s0.4,0.5,0.8,0.5S1225.9-196.9,1225.9-197.2z M1221.7-196.9c-0.7-0.5-1.5-0.7-1.9-0.4
		c-0.5,0.3-0.2,0.5,0.7,0.8C1222.7-196,1223-196.1,1221.7-196.9z M1087.7-196.8c0-0.4,0.6-1,1.3-1.3c1.3-0.6,1.9-2.8,0.8-2.8
		c-0.3,0-0.4,0.3-0.2,0.6c0.2,0.4,0.1,0.5-0.2,0.3c-0.3-0.2-1.2-0.2-2,0c-1.4,0.3-1.7,1.4-1,3.1
		C1086.8-195.9,1087.7-195.8,1087.7-196.8L1087.7-196.8z M1566.9-195.9c-0.4-0.2-0.9-0.1-1,0c-0.2,0.2,0.1,0.3,0.7,0.3
		C1567.2-195.6,1567.4-195.8,1566.9-195.9L1566.9-195.9z M1237.6-196.6c-0.4-0.6-1-1.1-1.5-1.1c-0.7,0-0.7-0.1,0-0.6
		c0.6-0.5,0.6-0.5-0.4-0.3s-1.1,0.1-0.7-0.7s0.3-0.9-0.5-0.7c-0.7,0.2-0.9,0.6-0.7,1.2c0.1,0.5-0.1,1.1-0.5,1.2
		c-0.4,0.1-0.1,0.2,0.8,0.1c1-0.1,1.8,0.2,2.4,0.9C1237.7-195.2,1238.5-195.3,1237.6-196.6L1237.6-196.6z M1222.8-195.4
		c-0.4-0.1-1-0.1-1.3,0c-0.4,0.1-0.1,0.3,0.7,0.3C1222.9-195.1,1223.2-195.2,1222.8-195.4L1222.8-195.4z M1213.9-197
		c-0.2-0.2-0.2-0.6-0.1-0.8c0.3-0.6,1.3-0.1,1.3,0.7C1215.1-196.6,1214.4-196.5,1213.9-197L1213.9-197z M1213.3-195.8
		c-0.3-0.9-0.3-0.9,1-0.5c0.5,0.2,0.7,0.5,0.6,0.8c-0.2,0.3,0.1,0.3,0.5,0.2c0.5-0.2,0.7-0.5,0.6-0.8c-0.1-0.2,0.2-0.3,0.8-0.2
		c1.7,0.5,0.7-1.8-1.1-2.5c-2-0.7-2-1.3-0.1-0.9c1.5,0.3,1.5,0.3,0.2-0.3c-0.9-0.4-1.8-0.4-2.8-0.1c-1,0.3-1.6,0.3-2-0.1
		c-0.7-0.7-1-0.5-1.2,0.9c-0.1,0.7,0.2,1.1,1.2,1.4c1.2,0.3,1.2,0.4,0.4,0.7c-1,0.4-0.8,1.5,0.3,1.4c0.4,0,0.3-0.2-0.2-0.5
		c-0.7-0.4-0.7-0.5,0.1-0.5c0.5,0,0.9,0.4,0.9,0.8c0,0.4,0.3,0.8,0.6,0.8C1213.4-195,1213.5-195.4,1213.3-195.8L1213.3-195.8z
		 M1205.1-195.9c-0.3-0.7,0-0.8,1-0.5c0.9,0.2,1.5,0,2-0.8c0.4-0.7,0.5-1,0.1-0.8s-0.7-0.1-0.9-0.8c-0.2-0.6-0.4-1.1-0.6-1.1
		c-0.7,0-1.6,0.8-1.5,1.3c0,0.3-0.5,0.8-1.3,1.2c-1,0.5-1.1,0.7-0.4,0.7c0.5,0,0.8,0.2,0.7,0.5c-0.3,0.4,0,0.7,1.2,1.1
		C1205.4-195,1205.3-195.4,1205.1-195.9L1205.1-195.9z M1088.3-195.4c-0.4-0.2-0.9-0.1-1,0c-0.2,0.2,0.1,0.3,0.7,0.3
		C1088.6-195.1,1088.8-195.2,1088.3-195.4L1088.3-195.4z M1232.9-195c0.5-0.3,0.6-0.7,0.3-1c-0.3-0.3-0.9-0.1-1.5,0.5
		C1230.7-194.4,1231.5-194.1,1232.9-195L1232.9-195z M1218.9-195.6c0-0.2-0.5-0.3-1.1-0.1s-1.1,0.5-1.1,0.7s0.5,0.3,1.1,0.1
		S1218.9-195.3,1218.9-195.6z M1090.7-195c-0.5-0.9-1.4-0.2-1,0.8c0.2,0.5,0.5,0.6,0.8,0.3S1090.9-194.7,1090.7-195L1090.7-195z
		 M1081.2-193.9c0-0.3-0.4-0.4-0.8-0.2s-0.8,0.4-0.8,0.5s0.4,0.2,0.8,0.2S1081.2-193.6,1081.2-193.9L1081.2-193.9z M1078-194
		c-0.7-0.4-0.6-0.5,0.4-0.5c0.8,0,1.1-0.3,0.9-0.8s-0.7-0.6-1.4-0.5c-0.9,0.2-1.1,0.1-0.8-0.6c0.5-1.2,0.1-1.1-1.2,0.2
		c-0.6,0.6-0.8,1.1-0.5,1.1s0.9,0.4,1.4,0.8c0.4,0.4,1.1,0.8,1.4,0.8C1078.6-193.4,1078.5-193.6,1078-194L1078-194z M1231.8-193.1
		c0-0.1-0.7-0.3-1.6-0.4c-0.9-0.1-1.5,0-1.3,0.2C1229.2-192.9,1231.8-192.7,1231.8-193.1L1231.8-193.1z M1085-193.4
		c0-0.3-0.2-0.4-0.5-0.2s-0.5,0.4-0.5,0.6c0,0.1,0.2,0.2,0.5,0.2C1084.8-192.9,1085-193.1,1085-193.4z M1058.8-194
		c-0.2-0.6-0.5-1.1-0.7-1.1s-0.3,0.5-0.1,1.1s0.5,1.1,0.7,1.1S1059-193.4,1058.8-194z M1074.3-190.4c0-0.1-0.4-0.7-0.9-1.3
		c-0.6-0.7-1-0.9-1.3-0.5c-0.2,0.3-1.1,0.6-2,0.7c-1.6,0.1-2,0.3-1.3,1C1069.1-190.1,1074.3-190,1074.3-190.4L1074.3-190.4z
		 M1838-188.9c-0.4-0.2-0.9-0.1-1,0c-0.2,0.2,0.1,0.3,0.7,0.3C1838.3-188.6,1838.4-188.8,1838-188.9L1838-188.9z M1829.9-179.8
		c-0.4-0.1-1-0.1-1.3,0c-0.4,0.1-0.1,0.3,0.7,0.3S1830.3-179.6,1829.9-179.8L1829.9-179.8z M1863.8-166.9c-0.4-0.2-0.9-0.1-1,0
		c-0.2,0.2,0.1,0.3,0.7,0.3C1864.1-166.6,1864.2-166.7,1863.8-166.9L1863.8-166.9z M1872.4-145.4c-0.4-0.2-0.9-0.1-1,0
		c-0.2,0.2,0.1,0.3,0.7,0.3C1872.7-145.1,1872.8-145.2,1872.4-145.4L1872.4-145.4z M1870.2-145.4c-0.4-0.2-0.9-0.1-1,0
		c-0.2,0.2,0.1,0.3,0.7,0.3C1870.5-145.1,1870.7-145.2,1870.2-145.4L1870.2-145.4z M1861.1-145.4c-0.4-0.2-0.9-0.1-1,0
		c-0.2,0.2,0.1,0.3,0.7,0.3C1861.4-145.1,1861.5-145.2,1861.1-145.4L1861.1-145.4z M1872.4-144.3c-0.4-0.2-0.9-0.1-1,0
		c-0.2,0.2,0.1,0.3,0.7,0.3S1872.8-144.1,1872.4-144.3L1872.4-144.3z M822-125.1c0-0.3-0.2-0.5-0.5-0.5s-0.5,0.2-0.5,0.5
		s0.2,0.5,0.5,0.5S822-124.8,822-125.1z M1868-95.5c0.4-0.1-0.1-0.3-1.3-0.6c-2.2-0.5-2.8-0.4-2.3,0.5
		C1864.7-95.2,1865.2-95.2,1868-95.5L1868-95.5z M1871.6-94.7c0.7-0.7,0.7-0.8-0.3-0.8c-0.6,0-1.1,0.3-1.1,0.8
		c0,0.4,0.1,0.8,0.3,0.8C1870.6-93.9,1871.1-94.3,1871.6-94.7z M1854.1-93.2c-0.4-0.2-0.9-0.1-1,0c-0.2,0.2,0.1,0.3,0.7,0.3
		C1854.4-92.9,1854.5-93,1854.1-93.2L1854.1-93.2z M797.9-92.5c-0.8-0.4-1.4-0.4-1.7,0c-0.4,0.4,0,0.5,1.2,0.5
		C799-92,799-92,797.9-92.5z M788.5-92.6c-0.6-0.4-1.3-0.8-1.6-0.8s-0.1,0.4,0.5,0.8s1.3,0.8,1.6,0.8
		C789.3-91.8,789-92.2,788.5-92.6z M779.2-92.2c-1-0.1-2.5-0.1-3.5,0s-0.2,0.2,1.7,0.2C779.3-91.9,780.1-92,779.2-92.2z M783.9-92.1
		c0-0.1-0.5-0.2-1.1-0.2s-1,0.2-0.8,0.5C782.2-91.3,783.9-91.6,783.9-92.1L783.9-92.1z M827.3-88.4c-0.5-0.1-1.2-0.1-1.6,0
		c-0.4,0.1,0.1,0.3,1,0.2C827.5-88.1,827.8-88.2,827.3-88.4L827.3-88.4z M1831-82.5c-0.4-0.2-0.9-0.1-1,0c-0.2,0.2,0.1,0.3,0.7,0.3
		C1831.3-82.2,1831.4-82.3,1831-82.5L1831-82.5z M832.8-79.9c1.1-0.1,1.2-0.2,0.5-0.6c-1-0.6-6-0.1-5.6,0.6c0.1,0.2,1,0.3,2,0.3
		C830.7-79.8,832.1-79.9,832.8-79.9L832.8-79.9z M1850.8-76.9c0-0.5-1.6-0.8-1.9-0.3c-0.2,0.3,0.2,0.5,0.8,0.5
		C1850.3-76.7,1850.8-76.8,1850.8-76.9L1850.8-76.9z M1848.1-76.2c0-0.3-0.4-0.5-0.8-0.5s-0.8,0.2-0.8,0.5s0.4,0.5,0.8,0.5
		C1847.7-75.6,1848.1-75.9,1848.1-76.2z M827.4-74.1c0-0.3-0.2-0.4-0.5-0.2c-0.3,0.2-0.5,0.4-0.5,0.6c0,0.1,0.2,0.2,0.5,0.2
		S827.4-73.7,827.4-74.1z M823.4-75c-0.2-0.2-0.3,0.1-0.3,0.7s0.2,0.8,0.3,0.3C823.6-74.3,823.6-74.8,823.4-75L823.4-75z
		 M1841.8-72.8c-0.4-0.1-1-0.1-1.3,0c-0.4,0.1-0.1,0.3,0.7,0.3C1841.8-72.5,1842.1-72.6,1841.8-72.8L1841.8-72.8z M805.4-71.9
		c0-0.3-0.4-0.5-0.9-0.5c-0.8,0-0.8,0.1-0.1,0.5C805.3-71.2,805.4-71.2,805.4-71.9z M795.3-71.7c-0.4-0.1-1-0.1-1.3,0
		s-0.1,0.3,0.7,0.3C795.4-71.4,795.7-71.5,795.3-71.7L795.3-71.7z M827.5-70.6c-0.4-0.2-0.9-0.1-1,0c-0.2,0.2,0.1,0.3,0.7,0.3
		C827.8-70.3,827.9-70.5,827.5-70.6L827.5-70.6z M820-70.6c-0.4-0.1-1-0.1-1.3,0c-0.4,0.1-0.1,0.3,0.7,0.3
		C820.1-70.4,820.4-70.5,820-70.6L820-70.6z M814.2-70.8c-0.2-0.3-0.7-0.5-1.2-0.5s-0.7-0.3-0.5-0.7c0.2-0.5,0-0.7-0.7-0.5
		c-0.8,0.2-0.9,0.4-0.3,1c0.4,0.4,1.2,0.8,1.7,1c0.6,0.1,1.1,0.3,1.2,0.3C814.5-70.3,814.4-70.5,814.2-70.8z M1894.5-70.1
		c-0.4-0.1-1-0.1-1.3,0c-0.4,0.1-0.1,0.3,0.7,0.3S1894.8-69.9,1894.5-70.1L1894.5-70.1z M783.9-69.7c-1.9-0.6-2.7-0.6-2.7,0
		c0,0.3,0.9,0.5,2,0.5C785-69.3,785.1-69.3,783.9-69.7z M801.1-69.5c-0.5-0.6-4.3-0.4-4.3,0.2c0,0.2,1.1,0.4,2.4,0.4
		C800.8-68.9,801.4-69.1,801.1-69.5L801.1-69.5z M828.9-69.2c0.1-0.4-0.1-0.6-0.5-0.5s-0.8,0.6-0.9,0.9c-0.1,0.4,0.1,0.6,0.5,0.5
		C828.4-68.3,828.8-68.8,828.9-69.2L828.9-69.2z M826.6-68.7c0.1-0.2,0-0.6-0.4-0.8c-0.4-0.2-0.7-0.1-0.9,0.2
		c-0.1,0.3-0.7,0.6-1.3,0.6c-0.9,0-1-0.1-0.4-0.8c0.6-0.7,0.4-0.8-1.1-0.8c-1,0-1.5,0.2-1.1,0.3c1.1,0.4,0.8,1.2-0.5,1.4
		c-0.7,0.1,0.3,0.2,2.2,0.2C824.9-68.3,826.5-68.5,826.6-68.7L826.6-68.7z M794.4-68.9c-0.9-0.9-2.2-1-3.8-0.2
		c-0.8,0.4-0.5,0.4,0.9,0.2c1.2-0.2,2.1-0.1,2.3,0.3c0.2,0.3,0.6,0.6,0.9,0.6C795-68.1,794.9-68.5,794.4-68.9L794.4-68.9z
		 M818.1-68.3c-0.5-0.4-0.8-0.9-0.6-1.1s0.1-0.4-0.3-0.4c-0.7,0-0.9,1.2-0.3,1.8c0.2,0.2,0.7,0.4,1.2,0.3
		C819-67.6,819-67.7,818.1-68.3L818.1-68.3z M813.7-69.5c-1-0.4-3-0.5-4.4-0.4c-3,0.3-5.3,0.6-6.1,0.7c-0.3,0-0.5,0.3-0.5,0.5
		s0.9,0.4,2.1,0.4c1.2,0,2-0.2,1.8-0.5s0.5-0.4,1.7-0.2c1.1,0.2,2.1,0.1,2.3-0.2c0.2-0.3,0.5-0.4,0.8-0.2c0.3,0.2,0.4,0.5,0.2,0.8
		s-0.1,0.5,0.2,0.5s0.7-0.2,0.9-0.5c0.5-0.9,1.3-0.6,1,0.3c-0.3,0.8-0.2,0.8,0.8,0.1C815.6-68.9,815.5-68.9,813.7-69.5L813.7-69.5z
		 M809.1-68.1c-1.1-0.7-1.8-0.7-1.3,0c0.2,0.3,0.7,0.5,1.2,0.5C809.8-67.6,809.8-67.7,809.1-68.1L809.1-68.1z M792.6-67.9
		c-0.4-0.2-0.9-0.1-1,0c-0.2,0.2,0.1,0.3,0.7,0.3S793-67.8,792.6-67.9L792.6-67.9z M773.7-67.9c-0.4-0.2-0.9-0.1-1,0
		c-0.2,0.2,0.1,0.3,0.7,0.3C774-67.6,774.2-67.8,773.7-67.9L773.7-67.9z M781.3-67.4c-0.4-0.2-0.9-0.1-1,0c-0.2,0.2,0.1,0.3,0.7,0.3
		C781.6-67.1,781.7-67.2,781.3-67.4L781.3-67.4z M782.2-59.3c0-0.1-0.2-0.2-0.5-0.2s-0.5,0.3-0.5,0.6s0.2,0.4,0.5,0.2
		S782.2-59.1,782.2-59.3z M1879.3-55.2c0-0.3-0.2-0.5-0.5-0.5s-0.5,0.2-0.5,0.5s0.2,0.5,0.5,0.5C1879-54.7,1879.3-54.9,1879.3-55.2z
		 M816.8-42.7c-0.4-0.2-0.9-0.1-1,0c-0.2,0.2,0.1,0.3,0.7,0.3C817.1-42.4,817.2-42.5,816.8-42.7L816.8-42.7z M1864.2-41.8
		c0-0.3-0.4-0.5-0.9-0.5c-0.8,0-0.8,0.1-0.1,0.5C1864.2-41.1,1864.2-41.1,1864.2-41.8L1864.2-41.8z M1862.6-40.8
		c0-0.6-2.2-0.5-3.1,0c-0.4,0.3,0.1,0.4,1.2,0.4C1861.8-40.4,1862.6-40.6,1862.6-40.8L1862.6-40.8z M782.3-40c-0.4-0.2-0.9-0.1-1,0
		c-0.2,0.2,0.1,0.3,0.7,0.3C782.6-39.7,782.8-39.8,782.3-40L782.3-40z M1858.9-39.3c0-0.1-0.4-0.4-0.8-0.5c-0.4-0.2-0.8-0.1-0.8,0.2
		s0.4,0.5,0.8,0.5S1858.9-39.2,1858.9-39.3z M770.7-39.6c0.2-0.3-0.2-0.5-0.9-0.5c-1,0-1.1,0.1-0.4,0.5
		C770.3-39,770.3-39,770.7-39.6z M1860.8-38.7c0.5,0.2,0.6,0,0.4-0.6c-0.5-1.2-1.1-1.1-1.9,0.3c-0.5,1-0.5,1.1,0,0.6
		C1859.8-38.7,1860.4-38.9,1860.8-38.7L1860.8-38.7z M767-30.5c-0.9-0.3-3.5-0.1-3.5,0.3c0,0.1,1,0.2,2.3,0.1
		C767.2-30.1,767.6-30.2,767-30.5L767-30.5z M759.7-28.9c0.4-0.3,0.6-0.5,0.3-0.5s-0.9,0.2-1.3,0.5c-0.4,0.3-0.6,0.5-0.3,0.5
		C758.6-28.3,759.2-28.6,759.7-28.9z M795.2-18.6c0-0.3-0.2-0.5-0.5-0.5s-0.5,0.2-0.5,0.5s0.2,0.5,0.5,0.5
		C794.9-18.1,795.2-18.3,795.2-18.6z M781.7-3.3c0-0.1-0.4-0.2-0.8-0.2s-0.7,0.2-0.5,0.5C780.7-2.5,781.7-2.8,781.7-3.3L781.7-3.3z
		 M802.6,0.5c-0.1-0.1-0.9-0.3-1.7-0.4s-1.4-0.3-1.4-0.5s-0.2-0.4-0.4-0.4s-0.4,0.4-0.4,0.8c0,0.6,0.6,0.8,2.2,0.8
		C801.9,0.7,802.7,0.6,802.6,0.5L802.6,0.5z M794.9,1.3c-0.2-0.3-0.7-0.5-1.1-0.5c-0.4,0-0.9,0.2-1.1,0.5c-0.2,0.3,0.3,0.5,1.1,0.5
		S795.1,1.6,794.9,1.3z M780.9,3.9c0.2-0.3-0.4-0.5-1.4-0.5c-1.7,0.1-1.7,0.1-0.4,0.5c0.7,0.2,1.4,0.5,1.4,0.5
		C780.5,4.5,780.7,4.2,780.9,3.9z M773.9,6.6c-0.2-0.3-0.4-0.5-0.6-0.5c-0.1,0-0.2,0.2-0.2,0.5s0.3,0.5,0.6,0.5
		C774,7.2,774.1,6.9,773.9,6.6z M777.1,7.2c-0.2-0.3-0.4-0.5-0.6-0.5c-0.1,0-0.2,0.2-0.2,0.5s0.3,0.5,0.6,0.5
		C777.2,7.7,777.3,7.5,777.1,7.2z M748,19.4c-0.4-0.6-1.8-0.5-1.8,0.1c0,0.3,0.5,0.5,1,0.4C747.8,19.9,748.2,19.7,748,19.4L748,19.4
		z M748.5,20.8c-0.4-0.2-0.9-0.1-1,0c-0.2,0.2,0.1,0.3,0.7,0.3C748.8,21.1,748.9,21,748.5,20.8L748.5,20.8z M744.6,22.2
		c0-0.3-0.2-0.4-0.5-0.2c-0.3,0.2-0.5,0.4-0.5,0.6c0,0.1,0.2,0.2,0.5,0.2C744.4,22.8,744.6,22.5,744.6,22.2L744.6,22.2z M757.1,25.1
		c-0.4-0.2-0.9-0.1-1,0c-0.2,0.2,0.1,0.3,0.7,0.3S757.5,25.3,757.1,25.1L757.1,25.1z M754.8,24.9c0-0.3-0.5-0.5-1.1-0.5
		s-1,0.2-0.8,0.5s0.7,0.5,1.1,0.5S754.8,25.2,754.8,24.9z M749.2,27.6c-0.2-0.3-0.7-0.5-1.1-0.5s-0.8,0.2-0.8,0.5s0.5,0.5,1.1,0.5
		S749.4,27.9,749.2,27.6z M752.4,30.3c-0.2-0.3-0.7-0.5-1.1-0.5c-0.4,0-0.9,0.2-1.1,0.5c-0.2,0.3,0.3,0.5,1.1,0.5
		S752.6,30.6,752.4,30.3z M1476.8,68.5c0.2-0.4-0.7-0.5-2.7-0.5c-2.4,0.1-3.2-0.1-4.2-1.1c-1.2-1.1-2.3-1.6-1.8-0.8
		c0.1,0.2-0.8,0.4-2.1,0.3c-1.4-0.1-2.6,0.2-2.9,0.6c-0.4,0.5-1.2,0.6-3.4,0.2c-2.4-0.4-3.7-0.6-6.5-0.9c-0.2,0-0.3-0.3-0.1-0.6
		c0.2-0.3-0.3-0.8-1-1c-1.8-0.7-3.6-2.3-3.2-2.8c0.2-0.2-0.1-0.4-0.6-0.4s-0.7,0.2-0.5,0.5s0,0.5-0.5,0.5c-0.4,0-1.2,0.7-1.8,1.6
		c-1,1.7-2.9,2.2-2.9,0.8c0-0.8-0.1-0.8-3.1,0.7c-0.7,0.4-1.2,0.4-1.2,0.1c0-0.6-3.9-0.1-4.3,0.5c-0.4,0.5-2.2,0.5-2.2,0
		c0-0.2,0.3-0.5,0.7-0.7c0.4-0.2,0.3-0.3-0.3-0.3c-0.5,0-0.9,0.2-0.9,0.5c0,1.1-3,0.8-4.2-0.4c-0.8-0.7-1.9-1.2-3-1.2
		c-0.9,0-2.7-0.5-4-1c-2-0.9-2.4-0.9-3.1-0.3c-0.4,0.4-1.1,0.8-1.4,0.8s-0.5,0.2-0.3,0.5c0.2,0.3-0.3,0.5-1.2,0.5
		c-1.2,0-1.3-0.1-0.7-0.5c0.8-0.5,0.4-0.7-1.2-0.6c-0.5,0.1-0.9-0.3-0.9-0.7c0-0.8-1.1-1.4-2.5-1.4c-0.4,0-0.7,0.2-0.5,0.4
		c0.1,0.2-1.8,0.3-4.3,0.2c-3.9-0.2-4.7-0.1-5.5,0.8c-1,1.1-3.3,1.5-3.3,0.7c0-0.9-1-0.6-2,0.6c-0.5,0.6-1.3,1.1-1.7,1.1
		c-0.7,0-0.7-0.1,0-0.5s0.7-0.6-0.1-0.9c-0.5-0.2-0.9-0.7-0.9-1.1c0-0.4-0.9-1.2-2-1.7c-1.9-1-2.1-1-3.4-0.1
		c-0.7,0.5-2.7,1.1-4.3,1.3c-2.1,0.2-2.7,0.2-2.2-0.2c0.7-0.5,0.7-0.6-0.2-0.6c-1.1,0-3.2,1-3.7,1.7c-0.2,0.3-0.9,0.3-1.5,0.1
		c-0.7-0.2-1.1-0.5-0.9-0.7c0.7-0.7-1.7-2.2-3.4-2.1c-1,0.1-2.6-0.2-3.4-0.6c-1.3-0.6-1.8-0.6-2.8-0.1c-0.9,0.5-1.6,0.5-2.4,0.1
		c-0.9-0.4-1.4-0.3-2.2,0.5c-0.7,0.7-1.5,0.9-2.3,0.8c-0.7-0.1-1.3,0-1.3,0.2c0,0.7-0.8,0.5-1.9-0.5c-1.3-1.1-2.4-1.4-2.4-0.7
		c0,0.3-0.4,0.5-0.8,0.5s-0.7,0.3-0.5,0.7s-0.2,0.7-1.1,0.7c-0.7,0-1.4-0.2-1.6-0.6c-0.2-0.4-1.1-0.6-2.4-0.5
		c-1.5,0.1-2.2-0.1-2.4-0.6c-0.2-0.6-0.6-0.6-1.7-0.2c-0.8,0.3-1.7,0.4-2,0.1c-0.3-0.2-1.8-0.4-3.3-0.4s-3.2-0.2-3.9-0.4
		c-0.9-0.3-1.2-0.2-1.1,0.2c0.3,1.5-1.3,1-1.8-0.5c-0.4-1.2-1-1.8-2.1-2c-0.8-0.2-1.4-0.5-1.3-0.8c0.2-0.3-0.1-0.5-0.5-0.5
		c-0.5,0-0.8-0.2-0.8-0.4s-1.2-0.5-2.6-0.5c-2.3-0.1-2.7,0-3.2,1.2c-0.7,1.5-3,2.3-4,1.5s-3.6-0.2-3.3,0.8c0.2,0.5-0.1,0.8-1.1,0.8
		c-0.8,0-1.3-0.2-1.1-0.5c0.7-1.1-5.8-3.1-7.7-2.3c-0.6,0.2-0.6,0.4,0.2,0.7c1,0.4,1,0.4-0.1,0.4c-1.7,0.1-2.9-0.5-2.5-1.2
		c0.2-0.4,0-0.4-0.6-0.2c-0.5,0.2-1.4,0-2.1-0.4c-0.8-0.6-1.3-0.6-1.8-0.2c-0.4,0.3-1.5,0.6-2.5,0.6s-2,0.2-2.3,0.4
		c-1.3,1-4.1,1.2-5,0.3c-1-0.9-4.3-1-6.4-0.3c-1.3,0.5-3.9-0.4-3.9-1.2c0-0.3-0.6-0.3-1.3-0.1c-0.9,0.2-1.7,0-2.5-0.8
		c-0.7-0.6-1.4-1.1-1.7-1.1c-0.3,0-0.3-0.3-0.1-0.6c0.4-0.7-0.6-0.2-2,1c-0.6,0.5-2.6,0.8-5.9,0.9c-2.8,0.1-6.2,0.5-7.7,0.8
		c-2.1,0.5-2.7,0.5-3.1,0c-0.2-0.4-0.6-0.5-0.8-0.3c-0.5,0.5-2.4-0.6-2.4-1.4c0-0.4-0.6-0.7-1.3-0.7c-0.7,0-1.3,0.2-1.3,0.3
		c0,0.7-2.9,1.1-3.3,0.4c-0.4-0.6-0.5-0.6-0.9,0c-0.3,0.4-0.7,0.6-1.1,0.4c-0.3-0.2-0.9-0.2-1.3,0.1c-1.3,0.8-4.4,1.7-4.9,1.4
		c-0.3-0.2-1.3-0.4-2.2-0.5c-0.9-0.1-1.7-0.3-1.8-0.6c-0.2-0.7-10.1-0.5-11,0.2c-1.1,0.9-3.6,1.3-3.9,0.7c-0.2-0.3-0.8-0.5-1.4-0.5
		s-1-0.2-1-0.5s-1-0.5-2.2-0.5s-2.2,0.2-2.2,0.5s-0.3,0.5-0.6,0.5c-0.3,0-0.9,0.3-1.2,0.8c-1,1.2-3.3,1.6-4.2,0.6
		c-0.5-0.5-1.1-0.8-1.4-0.8s-0.6-0.2-0.6-0.4s-0.7-0.5-1.6-0.5c-1.1-0.1-2,0.3-3,1.3c-0.8,0.8-1.4,1.1-1.4,0.8c0-0.5-4.1-2.8-5-2.8
		c-0.2,0-1.1,0.7-2,1.6c-0.9,0.9-1.6,1.4-1.6,1c0-0.3-0.4-0.5-1-0.3s-1.2,0.1-1.3-0.2c-0.4-0.6-6.3-0.7-7.3-0.1
		c-0.4,0.3-0.6,0.5-0.4,0.5s0.3,0.2,0.1,0.5c-0.2,0.3-0.9,0.3-1.8-0.1c-0.8-0.3-3.6-0.7-6.3-0.8c-2.7-0.1-5.6-0.2-6.5-0.3
		s-2.6,0.1-3.8,0.3c-1.8,0.3-2.4,0.2-3.3-0.7c-1.2-1.1-3.4-1-3.4,0.2c0,0.9-2.7,1.4-3.9,0.8c-0.5-0.3-1.5-0.5-2.3-0.5
		s-1.3-0.2-1.1-0.5c0.2-0.3,0.1-0.5-0.3-0.5c-0.3,0-0.5-0.4-0.3-0.8c0.2-0.4,0.1-0.8-0.2-0.8s-0.6,0.4-0.8,0.8s-0.7,0.8-1.1,0.8
		s-1,0.3-1.2,0.8c-0.7,1.2-1.8,1.2-6-0.2c-3.1-1-4.7-1.2-7.4-1c-1.9,0.2-3.5,0.1-3.6-0.2s-0.8,0.1-1.7,0.9c-1.6,1.4-2.5,1.8-2.5,0.8
		c0-0.3-0.4-0.5-0.8-0.5s-0.8-0.2-0.8-0.5c0-0.6-2.8-0.4-3.8,0.2c-0.4,0.2-1.7,0.5-3,0.5c-1.2,0-2.6,0.4-3.1,0.7
		c-1.1,0.9-3.5,0.3-4.2-1.1c-0.4-0.7-0.9-0.9-1.8-0.7c-0.7,0.2-1.4,0.1-1.6-0.3c-0.5-0.8-3.4-0.7-3.7,0.1c-0.2,0.5-0.5,0.5-1.3,0
		c-0.6-0.4-1.6-0.5-2.2-0.3c-0.7,0.2-1.1,0-1.1-0.4c0-0.5-0.2-0.5-0.4-0.2c-1.1,1.6-11.5,2.8-10.5,1.2c0.2-0.4-0.2-0.5-1.1-0.3
		c-0.8,0.2-1.3,0.1-1.1-0.2c0.2-0.3-0.2-0.4-1-0.1c-0.7,0.2-1.7,0.5-2.2,0.6s-0.9,0-0.9-0.2c0-0.3-0.7-0.4-1.6-0.2
		c-0.9,0.1-2.3-0.1-3.2-0.4c-1.1-0.4-1.8-0.5-2.3-0.1c-0.4,0.3-3.1,0.7-6,0.9c-3,0.2-6.3,0.5-7.4,0.6c-1.3,0.1-2.3-0.1-2.8-0.6
		c-0.7-0.7-1-0.7-2.1,0.1c-1.2,0.8-1.3,0.8-1.3,0.1c0-0.5-0.4-0.8-0.8-0.8s-0.8-0.3-0.8-0.6c0-0.4-0.5-0.3-1.3,0.2
		c-1.1,0.7-1.4,0.7-2.8,0c-2.2-1.1-6.7,0-5.9,1.5c0.3,0.5-0.1,0.6-3.5,0.7c-1.6,0.1-2.6-0.2-3-0.7c-0.5-0.6-0.8-0.7-1.3-0.2
		c-0.4,0.3-1.2,0.4-1.8,0.2s-1.7-0.5-2.6-0.5c-0.8,0-1.5-0.3-1.5-0.5c0-0.5-2.9-1.9-4-1.9c-0.3,0-1.2,0.2-1.8,0.4
		c-0.9,0.3-1.5,0-2.5-1.1c-1.1-1.2-1.5-1.3-2.1-0.8c-1,0.8-8.2,1.1-9.8,0.4c-0.9-0.4-1.8-0.4-3.2,0c-3.1,0.9-6.7,1.3-6.3,0.7
		c0.2-0.3,0.1-0.6-0.2-0.6s-0.6,0.3-0.6,0.6s-0.3,0.4-0.7,0.1c-0.9-0.6-1.5-0.6-2.9-0.1c-0.7,0.2-1.3,0.2-1.5,0
		c-0.2-0.3-2.5-0.4-5.3-0.3s-5.8,0.2-6.8,0.2c-1.1,0-2.1,0.4-2.6,1c-0.4,0.5-0.6,0.7-0.5,0.3c0.6-1.2-2-1.3-6.9-0.5
		c-1.8,0.3-3,0.2-3.9-0.2c-1.3-0.7-6.9-0.5-9.9,0.4c-0.9,0.3-1.2,0.2-0.9-0.2c0.2-0.4,0.1-0.5-0.4-0.3c-0.4,0.2-1.2-0.1-1.6-0.6
		c-0.8-0.8-1-0.8-2.7,0.3c-1.4,0.9-2.1,1-2.9,0.6c-1.1-0.6-4.4-0.6-4.4,0c0,0.2-0.8,0.5-1.9,0.6c-1,0.1-1.9,0-1.9-0.2
		s-0.5-0.4-1.1-0.4s-1.1-0.4-1.1-0.8c0-0.7-1-0.8-6.9-0.5c-3.8,0.1-7.3,0.3-7.9,0.4c-0.6,0.1-1.1-0.2-1.1-0.6c0-0.4-0.5-0.9-1.1-1.1
		c-1.2-0.4-5.1,0.9-5.1,1.7c0,0.3-0.9,0.3-2.2,0.1c-1.4-0.2-2.2-0.2-2.2,0.2c0,0.9-2.5,0.7-2.9-0.3c-0.2-0.5-0.6-0.7-0.9-0.5
		c-0.3,0.2-0.5,0.1-0.5-0.3c0-0.4-0.6-0.5-1.6-0.3c-0.9,0.1-1.7,0-1.9-0.2c-0.2-0.3-0.9-0.3-1.7-0.1s-1.5,0.1-1.7-0.2
		s-2.5-0.7-5.2-0.9s-5.6-0.5-6.5-0.6s-2.1-0.3-2.7-0.3c-0.6,0-2.3-0.4-3.7-0.8c-1.8-0.5-2.8-0.6-3.2-0.2c-0.7,0.7-4.6,0.7-4.6,0
		c0-0.4-0.4-0.4-1.1,0c-0.6,0.3-1.3,0.4-1.6,0.3c-0.3-0.2-0.5,0-0.5,0.3c0,0.4-0.4,0.2-1.1-0.4c-0.9-0.8-2-1-5.8-1.1
		c-2.6,0-5.6-0.2-6.8-0.4s-3.5-0.4-5.1-0.6c-1.6-0.1-3.1-0.3-3.2-0.3c-0.8-0.3-5.9-0.5-19.4-0.8c-8.1-0.2-16.6-0.6-18.8-0.9
		c-2.2-0.3-5.5-0.6-7.3-0.7c-1.8-0.1-3.6-0.3-4-0.4c-2.1-0.8-4.8-1-14.2-1.2c-12-0.3-14.8-0.8-15.8-3c-0.5-1.2-1.1-1.6-2.4-1.6
		c-1.7-0.1-3.7-0.2-5.3-0.4c-0.6,0-0.8-0.4-0.6-0.9c0.2-0.6-0.1-0.8-1.3-0.8c-0.9,0-1.9-0.3-2.3-0.7c-0.6-0.5-0.6-0.5-0.3,0
		c0.4,0.7,0.4,0.7-2.6,0.9c-1.5,0.1-1.8,0-1.2-0.4c0.5-0.3,1.4-0.4,1.9-0.2c0.7,0.2,1,0,1-0.6c0-0.7,0.4-0.8,2-0.5
		c1.4,0.2,1.8,0.2,1.2-0.2c-0.4-0.3-1.8-0.5-3-0.6c-1.2,0-2.6-0.3-3.2-0.5c-1-0.4-1-0.5,0.3-0.6c0.7-0.1,2-0.2,2.8-0.2
		s1.8-0.4,2.1-0.7c0.5-0.5,0.3-0.7-1.1-1c-2-0.4-2.3-0.8-1.7-1.8c0.3-0.4,1.5-0.8,3.1-0.8c2.4,0,2.6-0.2,2.4-1.1
		c-0.2-0.6-0.4-0.8-0.5-0.5s-1.3,0.5-2.7,0.4c-1.8-0.1-2.2,0-1.5,0.3c1,0.4,1,0.5-0.1,0.5c-0.6,0-1.6,0.2-2.2,0.4
		c-0.9,0.3-0.9,0.3,0-0.5c1.2-1,1.2-1.5,0.1-1.5c-0.4,0-0.8-0.2-0.8-0.5s-0.3-0.5-0.6-0.5s-0.4,0.2-0.3,0.5c0.4,0.6-1.5,0.5-1.9-0.2
		c-0.2-0.3-0.7-0.2-1.2,0.2c-0.6,0.5-0.9,0.5-1.6-0.1c-0.4-0.4-1.2-0.9-1.8-1c-0.8-0.2-0.7-0.3,0.4-0.3c0.8,0,1.5-0.3,1.6-0.7
		c0.1-0.4,0.5-0.3,1.1,0.3c0.5,0.5,1.3,0.9,1.9,0.8c0.9,0,0.9-0.1-0.1-0.5s-1-0.5,0.2-0.5c1.3,0,1.3-0.1,0.3-0.9
		c-0.9-0.7-0.9-0.8-0.1-0.6c0.5,0.2,1.1,0,1.3-0.3c0.2-0.4,0.5-0.4,0.8,0.1s0.5,0.3,0.8-0.5c0.2-0.6,0.6-1.1,0.9-1.1
		s0.5-0.2,0.5-0.5s-0.5-0.4-1-0.2c-0.6,0.1-1.1,0.1-1.3-0.2c-0.2-0.3,0.9-0.5,2.3-0.5c1.4,0,3-0.3,3.4-0.7c0.5-0.4,2.3-0.6,5.6-0.4
		c3.7,0.2,4.9,0,5.1-0.5c0.2-0.5-0.2-0.7-1.2-0.7c-1.3,0-1.3-0.1-0.5-0.6c1.2-0.7,1.8-0.8,6.5-1.3c2.6-0.3,3.5-0.6,3.1-1
		c-0.3-0.3-1.6-0.5-2.9-0.4c-1.9,0.1-2.2,0-1.6-0.6c0.5-0.5,2-0.7,5-0.6c4,0.1,5.1-0.3,3.7-1.2c-0.3-0.2-1.6-0.4-2.7-0.4
		c-1.2,0-1.8-0.2-1.5-0.4c0.5-0.3,0.5-0.5,0-0.8c-0.3-0.2-0.9-0.1-1.3,0.1c-0.7,0.6-2.2-0.6-1.6-1.3c0.2-0.2,0.1-0.2-0.3,0
		C765,6.6,764.9,7,765,7.3c0.4,0.6,0.5,0.6-2.7-0.3c-3.2-1-6.6-1-7-0.1c-0.2,0.5-0.3,0.5-0.3,0c0-0.4-0.3-0.7-0.6-0.7
		s-0.5,0.2-0.3,0.4c0.1,0.2-0.6,0.4-1.6,0.5c-1,0-1.7-0.1-1.5-0.4s0.1-0.5-0.2-0.5s-0.9-0.2-1.5-0.4c-0.6-0.2-0.8-0.2-0.5,0.3
		c0.3,0.4,0,0.6-0.8,0.6h-1.2l1.2-0.8c1.6-1.1,1.5-1.9-0.1-1.9c-0.7,0-1.3-0.2-1.3-0.4s2.4-0.5,5.2-0.6c5.5-0.2,7.7-0.4,8.2-0.6
		c0.1-0.1,0.8-0.1,1.5,0s1.2-0.2,1.2-0.5c0-0.4,0.2-0.5,0.7-0.2c0.8,0.6,7.2,0.5,10.5,0c2-0.3,4.4-1.9,3-1.9c-0.3,0-0.4-0.4-0.3-1
		c0.2-0.7,0.6-0.9,1.7-0.8c1.1,0.2,1.3,0.1,0.6-0.3c-0.4-0.3-1.2-0.6-1.7-0.6s-0.9-0.3-0.9-0.6s-0.2-0.5-0.4-0.3s-0.7,0.1-1.2-0.3
		c-0.7-0.6-0.8-0.5-0.5,0.2s-0.2,1-1.9,1.4c-1.2,0.3-2.6,0.6-3.1,0.6c-0.4,0-2.4,0.3-4.3,0.6C763-1,761.1-0.9,760.8-1
		c-0.4-0.1-0.7,0-0.8,0.2c-0.1,0.3-0.9,0.3-1.8,0.2c-1.4-0.3-1.5-0.4-0.5-0.7c0.6-0.2-0.2-0.3-1.9-0.2c-1.6,0.1-3.3-0.1-3.6-0.4
		c-0.4-0.3-1.2-0.4-1.7-0.3c-0.6,0.2-0.9,0.1-0.8-0.2c0.4-0.6-0.1-0.6-1.3,0c-0.6,0.3-1.4,0.2-2.3-0.3c-0.7-0.4-1.1-0.7-0.7-0.8
		c0.3,0,1.1-0.2,1.6-0.4c0.7-0.3,0.8-0.2,0.5,0.4c-0.3,0.5,0,0.4,1-0.2c0.9-0.6,2.1-0.9,2.8-0.7c0.7,0.1,2.3,0,3.6-0.2
		c1.3-0.3,4.6-0.6,7.4-0.8c2.8-0.2,5.6-0.6,6.2-0.9c0.6-0.3,1.9-0.6,2.9-0.7s2-0.5,2.3-0.8c0.2-0.4,1.1-0.7,1.9-0.8
		c0.8-0.1,1.6-0.2,1.6-0.2c0.2-0.2,1.2-0.4,2.3-0.4c0.9-0.1,1-0.2,0.5-1s-1.3-1-4.6-0.9c-2.4,0.1-3.7-0.1-3.3-0.4
		c0.4-0.3,0.5-0.5,0.2-0.5s-0.1-0.2,0.5-0.5c0.6-0.2,1.4-0.2,1.8,0.1c0.5,0.4,1,0.3,1.7-0.3c0.5-0.5,1.3-0.9,1.7-0.9
		c0.6,0,0.6-0.1,0-0.5c-0.4-0.3-0.6-0.5-0.2-0.5c0.3,0,0.8,0.2,1.1,0.5s1.6,0.6,2.9,0.8c1.3,0.1,3.4,0.6,4.6,0.9
		c1.6,0.5,2.5,0.5,3.6,0.1c1.5-0.6,1.5-0.6,0.5-1.6c-0.8-0.8-2-1.1-4.8-1.3c-2.1-0.1-4-0.4-4.3-0.6c-0.3-0.2-1.2-0.1-2,0.3
		c-1,0.5-1.6,0.5-2,0.1c-0.7-0.7,3.2-1.5,5-0.9c0.7,0.2,1,0.2,0.8-0.2c-0.2-0.3,0-0.5,0.3-0.5c0.4,0,1.1,0,1.7-0.1
		c1-0.1,1-0.1,0-0.9c-0.6-0.4-1.7-0.7-2.4-0.6s-2.9-0.1-4.8-0.3c-1.9-0.3-5.5-0.5-7.9-0.5c-3.1,0-4.4-0.2-4.1-0.6
		c0.3-0.4,0-0.5-0.9-0.2c-1.1,0.3-4.7,0.4-10.3,0.1c-0.5,0-0.9-0.4-0.9-0.8c0-0.5-0.4-0.6-1.2-0.4c-0.9,0.3-1,0.2-0.4-0.2
		c0.8-0.5,3.5-0.7,7.2-0.5c0.9,0,2.3-0.1,3.2-0.4s2.2-0.2,3.1,0.1c0.9,0.3,1.6,0.4,1.8,0.1s-0.2-0.5-0.9-0.5s-1-0.2-0.8-0.4
		c0.2-0.2,0.1-0.7-0.3-1.2c-0.5-0.7-0.5-0.7,0-0.4c0.4,0.2,0.7,0.1,0.7-0.2c0-0.5-0.4-0.6-2.7-0.8c-0.4,0-1.1-0.2-1.4-0.4
		c-0.3-0.2-1.3-0.3-2.2-0.3s-2.2-0.1-2.9-0.4c-1.3-0.4-1.3-0.5-0.3-0.8c0.9-0.3,0.8-0.4-0.6-0.5c-0.9,0-1.8-0.3-2-0.7
		c-0.2-0.4-0.3-0.3-0.3,0.3c0,0.5,0.3,0.9,0.8,0.9s0.8,0.2,0.8,0.5s-0.6,0.4-1.2,0.2c-0.7-0.2-1.6-0.4-2.1-0.4
		c-1.1-0.2-1.9-0.9-1-0.9c0.3,0,0.5-0.4,0.3-0.9c-0.3-0.7,0.2-0.8,3.4-0.7c5.1,0.2,5.6,0.1,5.5-0.7c-0.1-0.4,0.4-0.7,1.3-0.7
		c0.8,0,1.3-0.2,1.2-0.4c-0.1-0.2-0.7-0.4-1.1-0.4c-0.6,0-0.7-0.2-0.3-0.6s0.9-0.4,1.8,0c1.5,0.8,2.1,0.2,0.8-0.7
		c-0.7-0.5-2.8-0.8-6.4-0.8c-3.1,0-5.6-0.3-5.9-0.7c-0.4-0.4-0.3-0.5,0.4-0.3c1.1,0.4,1.2-0.2,0.3-1.2c-0.5-0.6-0.5-0.7,0.3-0.4
		c0.5,0.2,1.1,0.1,1.3-0.2s0.5-0.4,0.7-0.1c0.2,0.3,2,0.3,4.1,0.1s3.3-0.4,2.7-0.4s-1.4-0.4-1.7-0.7c-0.4-0.4-1-0.4-1.6-0.2
		c-1.3,0.6-5.5,0.6-5.5,0.1c0-0.2-0.6-0.4-1.4-0.4c-3.3,0-0.6-0.5,4.7-0.8c3.1-0.2,5.9-0.6,6.1-0.8c0.3-0.3,0.8-0.3,1.3-0.1
		s0.7,0.1,0.4-0.3c-0.5-0.8,0.4-0.8,1.2,0c0.5,0.5,0.6,0.5,0.7-0.1c0-0.7,0.1-0.7,0.5,0c0.3,0.5,0.5,0.6,0.5,0.2
		c0-0.6,1.5-0.6,5.8,0.2c1,0.2,1.7,0.1,1.7-0.1c0-0.3,0.7-0.5,1.7-0.5c1.1,0,1.4,0.1,0.9,0.4c-0.5,0.3-0.4,0.5,0.5,0.5
		c0.7,0,1.2-0.2,1.2-0.5s0.7-0.6,1.6-0.7c0.9-0.1,1.5,0,1.3,0.2c-0.1,0.2-0.8,0.5-1.5,0.5c-1,0.1-1,0.1-0.2,0.3
		c0.6,0.1,1.7-0.3,2.6-0.9c1.2-0.9,1.5-1,1.5-0.4c0,0.9,1.3,1.5,1.9,1c0.5-0.5,3.5-0.6,11.6-0.5c1.6,0,3.5-0.2,4.1-0.6
		s3.6-0.6,6.7-0.7l5.5-0.1l-4-0.4c-2.2-0.2-5.8-0.5-7.9-0.6c-2.1-0.1-3.9-0.3-3.9-0.5s-2.4-0.4-5.4-0.4c-3.5,0-5.9-0.3-6.8-0.8
		l-1.4-0.7l1.8,0.1c1,0.1,1.9,0.3,2.1,0.5c0.6,0.6,3.3,0.4,3.6-0.3c0.2-0.5,0.3-0.5,0.3,0c0.1,1,2.2,0.8,2.2-0.2
		c0-0.6,0.4-0.8,1.4-0.6c0.7,0.1,1.5,0.1,1.6-0.2c0.2-0.3,1.1-0.5,2-0.5c3.9,0,9.8-0.3,10.3-0.6c0.3-0.2,1.1-0.3,1.7-0.2
		c0.7,0.1,1.2-0.1,1.2-0.3s0.7-0.6,1.6-0.8c0.9-0.2,2-0.7,2.5-1.2c0.6-0.6,1.7-0.8,3.6-0.8c3.2,0.1,8.9-1,8.9-1.6
		c0-0.3-0.5-0.3-1-0.1s-1.2,0.1-1.4-0.2s-1.2-0.4-2.2-0.2c-1.1,0.2-1.9,0.1-1.9-0.3c0-0.3-0.4-0.7-0.9-0.8s0.9-0.2,3.1-0.1
		c2.2,0.1,4.5,0.3,5,0.5s1.2,0.2,1.3-0.1c0.2-0.3,1.5-0.5,3-0.6c2.3-0.1,5-1,4.6-1.5c-0.1-0.1-6.6-0.3-14.4-0.4
		c-7.8-0.1-14.5-0.4-14.8-0.6c-0.7-0.4-14.6-0.1-16.3,0.5c-0.7,0.2-1.2,0.2-1-0.1c0.3-0.5-2.6-0.6-3.1-0.1c-0.2,0.2-1,0.1-1.9-0.1
		s-2.5-0.3-3.6-0.2c-1.6,0.2-1.8,0.1-1.2-0.4c0.6-0.4,0.1-0.5-1.9-0.3c-2.2,0.2-2.5,0.2-1.5-0.3c1.1-0.5,1.7-1.6,0.8-1.4
		c-0.2,0-0.8,0-1.2-0.1s1.4-0.4,4-0.8c2.7-0.3,5.1-0.4,5.3-0.2c0.3,0.2,0.8,0.3,1.3,0.1c0.4-0.2,1,0,1.2,0.4
		c0.3,0.5,0.7,0.5,1.5,0.1c1.4-0.7,4-0.9,7.2-0.3c1.8,0.3,2.6,0.2,2.6-0.2c0-0.3,0.3-0.6,0.6-0.6s0.4,0.3,0.2,0.6
		c-0.3,0.4,0,0.5,0.9,0.3c1.7-0.5,8.4-0.8,21.6-1.1c5.8-0.1,10.9-0.4,11.3-0.7c0.4-0.2,2.5-0.5,4.7-0.6s4.2-0.4,4.5-0.6
		c0.7-0.7-8.2-2.7-12.4-2.8c-2-0.1-3.2-0.3-3-0.6c0.2-0.3-0.3-0.4-1.2-0.2c-0.9,0.2-1.9,0.3-2.4,0.3c-4-0.3-8.5-0.2-8.3,0.1
		c0.3,0.5-2.8,0.1-3.6-0.4c-0.3-0.2-0.5-0.2-0.3,0.1c0.3,0.5-16.9,0.5-30.1,0.1c-3.4-0.1-5.4,0-5.2,0.3s0,0.3-0.4,0.1
		c-0.6-0.4-2.8-0.6-8.4-0.9c-0.9,0-1.6-0.3-1.5-0.5s-0.2-0.5-0.7-0.7s0-0.2,1.3,0c1.7,0.2,2.3,0.1,2.6-0.6c0.2-0.6,0.7-0.8,1.6-0.6
		c0.7,0.2,1.6,0.1,2-0.2c0.6-0.4,0.6-0.5-0.4-0.5c-0.7,0-1.2-0.2-1.2-0.5s0.6-0.4,1.3-0.4c1.3,0.1,1.5,0.6,0.7,1.7
		c-0.3,0.5,1.2,0.6,4.3,0.3c1.1-0.1,0.7-1.2-0.4-1.2c-0.7,0-1,0.2-0.7,0.6c0.2,0.3,0.1,0.5-0.2,0.4s-0.6-0.4-0.5-0.6
		s-0.2-0.6-0.6-0.9c-0.8-0.5,6.2-0.3,8.4,0.2c0.6,0.2,1.3,0,1.5-0.3s0.1-0.5-0.1-0.5c-1.2,0.2-2.4-0.1-2.1-0.6
		c0.2-0.3,0-0.4-0.5-0.2c-0.5,0.2-0.8,0.1-0.8-0.3c0-0.3,0.3-0.6,0.7-0.6s1.3-0.2,2-0.4c1-0.3,1.2-0.2,0.9,0.4
		c-0.3,0.5-0.2,0.6,0.4,0.4c0.5-0.2,1-0.1,1.2,0.2c0.2,0.3,0.7,0.5,1.2,0.5c0.6,0,0.7-0.1,0.2-0.3c-1.4-0.6-0.6-1.2,0.8-0.7
		c1.7,0.6,3.1,0.3,2.5-0.7c-0.3-0.5-0.2-0.5,0.5,0c0.6,0.5,1,0.5,1.2,0.1s0.6-0.3,1.2,0.2c0.4,0.4,0.7,1.1,0.5,1.3
		c-0.2,0.3-0.1,0.5,0.2,0.5c0.6,0,1.3-1.5,0.9-2.1c-0.1-0.2,1-0.3,2.5-0.2c1.9,0.1,2.9,0,3.2-0.5s0.4-0.5,0.5,0.1
		c0,0.6,0.6,0.8,2.4,0.7l2.4-0.1l-0.9,1.3c-0.8,1.3-0.8,1.3,0.7,0.9c1.9-0.5,2.3-0.8,1-0.8c-0.7,0-0.8-0.2-0.4-0.7
		c0.3-0.4,0.5-0.8,0.4-0.9s1-0.2,2.4-0.1c3.1,0.1,5,1,4.4,1.9c-0.2,0.4,0.1,0.3,0.6-0.2c0.6-0.5,0.8-0.5,0.6-0.1
		c-0.5,0.8,0,0.8,1.5,0.1c0.9-0.4,0.9-0.5,0.1-0.5c-0.5,0-0.9-0.3-0.9-0.6c0-0.3,0.5-0.4,1.1-0.2c1.4,0.4,3.4-0.2,2.9-0.9
		c-0.2-0.3-1.1-0.4-2-0.2c-1.3,0.2-1.5,0.2-0.9-0.2c0.4-0.3,1.2-0.6,1.7-0.6c1.4,0,1.6-0.8,0.4-2.3l-1.1-1.4l2.1-0.3
		c1.1-0.2,2.3-0.3,2.6-0.3c1.1,0.2,1.8-0.1,1.8-0.7c0-0.9-13.2-1.2-14.2-0.4c-1,0.9-6.1,0.3-7.2-0.7c-0.8-0.8-0.8-1-0.1-1.5
		c0.6-0.4,0.3-0.5-1.1-0.3c-2.5,0.4-15.4-0.7-19.8-1.6c-2.2-0.5-0.6-1.2,3.4-1.6c2.1-0.2,3.9-0.6,4.2-1s0.6-0.3,0.9,0.2
		c0.5,0.7,0.8,0.4,0.6-0.7c0-0.3,0.9-0.3,2.2-0.1c1.3,0.2,2.8,0.4,3.4,0.4c4.3-0.1,19.9-0.7,20-0.9c0.3-0.3-11.1-1-15-1
		c-2,0-3.8-0.2-3.9-0.5c-0.2-0.3,0-0.5,0.3-0.5c0.4,0,0.5-0.2,0.3-0.3c-0.2-0.2-0.7-0.1-1,0.2c-1.1,0.8-6.9,1.3-8.2,0.6
		c-0.7-0.4-6.2-0.7-15.1-0.8c-7.7-0.1-14.8-0.4-15.9-0.7l-1.9-0.5h1.9c5.5,0.1,6.4-0.1,6.1-0.9c-0.2-0.5-0.7-0.7-1.1-0.5
		c-0.4,0.2-0.6,0.1-0.5-0.2c0.2-0.3,4.7-0.5,10.1-0.5c5.4,0,9.9-0.1,10.1-0.1c0.1,0,3.5-0.1,7.5-0.2s8.2-0.4,9.4-0.7
		c1.2-0.3,9-0.9,17.5-1.2c8.6-0.3,15.6-0.9,16-1.2c0.4-0.3,0.9-0.4,1.2-0.2c0.3,0.2,2.7-0.1,5.4-0.5c2.7-0.5,5.3-0.7,5.8-0.6
		c0.5,0.2,1.6-0.2,2.5-0.8c1.5-1,1.5-1.1,0.5-1.4c-1-0.4-0.9-0.4,0.3-0.8c1-0.3,0.6-0.4-1.4-0.4c-1.5,0-3-0.3-3.2-0.7
		c-0.2-0.4-0.1-0.5,0.2-0.2c0.3,0.2,0.6,0.1,0.6-0.2s0.4-0.6,0.9-0.6c0.7,0,0.6-0.2-0.4-0.7c-1.3-0.7-1.2-0.7,1.5-1.3
		c1.5-0.3,3.2-0.6,3.7-0.6c0.8,0,0.8-0.1,0.1-0.5c-0.6-0.4-0.6-0.5-0.1-0.5c0.4,0,0.6-0.3,0.4-0.8c-0.2-0.4-0.1-0.8,0.2-0.8
		s0.4-0.2,0.2-0.5s-1.1-0.5-1.9-0.5c-0.9,0-1.5-0.2-1.3-0.5s1.2-0.5,2.2-0.5c2.1,0,2.5-0.9,0.6-1.6c-1.1-0.4-1.1-0.5,0.7-1l1.9-0.6
		h-1.7c-0.9,0-1.8-0.3-1.9-0.6c-0.1-0.3-2.4-0.6-5.2-0.7c-2.7-0.1-5.1-0.3-5.3-0.5s2.3-0.2,5.5-0.1c3.4,0.1,5.5,0,5.1-0.3
		c-0.5-0.3-0.1-0.6,1.3-0.8c3-0.4,9.6-1,11.8-1c1,0,1.9-0.2,1.9-0.5s0.3-0.4,0.6-0.2c0.8,0.5,5.3-0.3,5.3-0.9c0-0.3-0.5-0.4-1-0.2
		c-0.6,0.2-4.3,0.4-8.3,0.4c-4.3,0-7.3,0.3-7.3,0.6c0,0.3-0.2,0.3-0.4,0.1c-0.2-0.2-0.4-0.8-0.4-1.3c0-0.7-0.4-0.9-2.1-0.7
		c-1.3,0.1-1.9,0-1.8-0.3c0.3-0.5-0.9-1.1-3.4-1.6c-0.7-0.1-5.1-0.3-9.7-0.4c-12-0.2-16.2-0.6-16.7-1.4c-0.4-0.6-0.5-0.6-0.5,0
		c0,0.5-0.5,0.6-2,0.3c-3.4-0.6-3.7-1.1-0.7-1.5c4.5-0.6,4.9-1,1.9-1.8c-1.5-0.4-3-0.8-3.5-0.8c-0.4-0.1-1-0.4-1.3-0.8
		c-0.3-0.4-1.4-0.7-2.5-0.8s-1.9-0.3-1.7-0.5c0.1-0.2,0.9-0.3,1.7-0.1c1,0.2,1.2,0.2,0.6-0.2c-0.4-0.3-1.7-0.7-2.9-0.9
		c-1.1-0.2-2.7-0.6-3.5-1c-0.8-0.3-2.4-0.7-3.6-0.8c-1.2-0.1-2.9-0.6-3.8-1c-0.9-0.4-2.3-0.9-3.2-1.1c-1-0.2-1.4-0.5-0.9-0.7
		c0.5-0.3,0.2-0.6-0.7-1c-1.8-0.8-1.7-1.5,0.1-2.2c1.4-0.5,1.4-0.5,0.2-0.6c-1.1,0-1.1-0.1-0.5-0.8c0.7-0.7,3.1-1.2,6.7-1.5
		c1.9-0.2,0.2-1.5-2-1.6c-1.9-0.1-2.7-1.1-1.3-1.6c0.5-0.2,0.8-0.1,0.8,0.1c0,0.2,1.1,0.5,2.4,0.5c1.9,0.1,2.3-0.1,2.1-0.7
		c-0.2-0.4-0.7-0.9-1.2-1c-0.5-0.2,0-0.2,1.1,0c1.2,0.2,2,0,2-0.3s-1.1-0.6-2.6-0.6c-2.6-0.1-2.6-0.1-0.8-0.6
		c3.5-1.1,2.2-1.5-8.9-2.3c-3.9-0.3-6-0.8-6-1.3c0-0.2,7-0.4,15.5-0.5c15.5-0.1,20-0.4,20-1.2c0-0.7-6.6-1.5-7.7-0.9
		c-0.6,0.3-1.4,0.2-2-0.1s-2.6-0.6-4.4-0.6c-2.4,0-3.2-0.2-2.6-0.5c0.6-0.4,0.2-0.5-1.3-0.5c-1.7,0-2,0.1-1.3,0.6
		c0.6,0.4,0.5,0.5-0.5,0.2c-0.7-0.2-2.1-0.3-3.1-0.3c-1,0.1-1.7-0.1-1.7-0.4c0-0.6,2-1.3,2.6-0.9c0.2,0.2,1.6,0.1,3.1-0.2l2.7-0.4
		l-2.2-0.1c-1.2-0.1-1.9-0.2-1.5-0.4c1-0.4-0.5-1.7-1.7-1.6c-0.5,0-1.1-0.2-1.2-0.4c-0.1-0.3,0.4-0.6,1-0.7c0.7-0.1,1.7-0.2,2.3-0.4
		c0.6-0.1,2.9-0.3,5.1-0.4c3.7-0.1,3.4-0.2-3.5-0.8c-6.6-0.6-14.2-1.2-16.3-1.3c-0.4,0-0.6-0.2-0.4-0.5c0.2-0.2,1.4-0.4,2.9-0.3
		c1.4,0.1,2.8,0,3.1-0.2s1.3-0.4,2.3-0.5c4.5-0.5,4.1-1.1-1.2-1.8c-5.7-0.8-5.6-1.4,0.3-1.6l3-0.1L798-169c-1.3-0.2-2.5-0.6-2.7-1
		c-0.2-0.3-1.1-0.7-2-0.9c-1.3-0.3-1.4-0.2-0.5,0.2s0.9,0.5,0.2,0.5c-0.5,0-1.3-0.3-1.7-0.8c-0.4-0.4-2.2-0.9-3.9-1.1
		c-1.7-0.2-3.3-0.5-3.4-0.7c-0.1-0.2-0.9-0.4-1.6-0.5c-0.7-0.1-1.6-0.4-1.8-0.6c-0.9-0.9,2-1.6,7.6-1.9c3.2-0.2,6.6-0.5,7.6-0.8
		s2.1-0.4,2.5-0.3c0.4,0.2,2,0.1,3.6-0.2c6.2-1.1,28.2-2.1,41.3-1.9c9.5,0.1,10.2,0.1,10.2-1.1c0-0.4,0.2-0.7,0.5-0.7
		s0.5,0.4,0.5,0.8c0,0.7,0.8,0.8,6.3,0.5c3.5-0.2,6.6-0.5,6.9-0.7c0.3-0.2,3.1-0.4,6.2-0.5c3.1-0.1,8.7-0.4,12.3-0.7
		c3.7-0.3,7.6-0.4,8.7-0.3c1.3,0.2,2.2,0.1,2.6-0.4c0.5-0.6,4.2-0.8,5.8-0.2c0.4,0.1,1.3-0.1,2.1-0.5s1.9-0.8,2.5-0.8
		s1.6-0.3,2.4-0.6c1-0.4,1.7-0.5,2.6-0.1c1.6,0.7,6.8-0.2,7.6-1.3c0.7-1,5.6-1.7,5.6-0.8c0,1.1,1.7,0.7,2-0.5c0.2-0.8,0.6-1,1.3-0.8
		c0.6,0.2,1,0.1,1-0.2s1.3-0.9,3-1.5c1.6-0.6,3-1.2,3-1.4s0.3-0.4,0.8-0.4s1.1-0.3,1.5-0.8c0.5-0.5,2.3-0.8,5.3-1
		c2.7-0.1,4.6-0.5,4.7-0.8c0.1-0.3,1-0.8,2-1c1.9-0.4,3.4,0.2,6.9,2.5c0.9,0.6,2,1.2,2.4,1.4s1.6,1,2.6,1.7c1.6,1.2,2.3,1.4,7.6,1.4
		c4,0.1,5.8-0.1,5.7-0.5c-0.2-1.1,2.9-1,3.7,0c0.7,0.9,0.7,0.9,0.8-0.3c0-1,0.2-1.2,0.9-0.9c0.5,0.2,1.1,0,1.3-0.3
		c0.6-0.9,10.1-0.9,10.7,0.1c0.3,0.5,0.7,0.5,1.6,0c0.6-0.3,1.8-0.6,2.6-0.5s2.1-0.2,3-0.5s1.7-0.5,1.8-0.4s0.6-0.1,1.1-0.6
		s1.3-0.7,2.4-0.5c0.9,0.2,1.9,0.1,2.3-0.3c0.5-0.4,1.9-0.5,4.5-0.3c3,0.3,4,0.2,5.1-0.5c0.8-0.5,1.9-0.8,2.5-0.6
		c1.3,0.3,4.9-0.7,4.5-1.3c-0.2-0.2,0-0.5,0.3-0.5s0.7,0.2,0.8,0.5c0.5,0.8,6.8,1.7,7.3,1c0.2-0.2,1,0.1,1.8,0.7
		c0.8,0.6,1.6,1,1.8,0.8c0.2-0.2,0-0.3-0.3-0.3c-0.4,0-0.5-0.2-0.3-0.5s0.5-0.4,0.8-0.3c0.3,0.2,0.7,0,0.9-0.4
		c0.2-0.4,1.2-0.9,2.1-1.1c2.1-0.4,6.2,0.1,5.9,0.8c-0.3,0.5,0.8,0.7,2.6,0.5c0.5-0.1,0.9,0.2,0.9,0.5c0,1,2.1,0.6,2.7-0.5
		c0.4-0.8,0.4-1.2-0.4-1.6c-0.7-0.4-0.6-0.5,0.8-0.2s1.7,0.1,1.7-0.5c0-1.2,0.9-1.6,2.1-0.8c0.9,0.5,1.2,0.5,2-0.3
		c0.7-0.7,1.5-0.9,2.7-0.7c1.5,0.2,1.8,0.1,1.8-0.8c0-1.3,0.3-1.3,1.7,0c1.2,1.2,2.3,0.9,1.8-0.4c-0.2-0.5,0-1.6,0.3-2.6
		c0.5-1.5,1-1.8,2.8-2.1c1.3-0.2,2.3-0.1,2.7,0.2c0.3,0.3,1,0.6,1.5,0.6s1,0.4,1.2,0.8c0.2,0.4,0.6,0.8,0.9,0.8s0.5-0.4,0.3-0.8
		c-0.2-0.5,0-0.8,0.5-0.8s0.7-0.3,0.4-0.6c-0.3-0.4,0-0.5,0.8-0.3s1.5-0.1,2.2-1.1c0.8-1,1.4-1.3,2.4-1c1.2,0.3,1.4,0.2,1.4-1
		c0-1.1,0.3-1.4,1.3-1.4c0.7,0,1.5,0.2,1.6,0.5c0.5,0.8,1.9,0.6,1.9-0.2c0-0.5,0.7-0.8,1.7-0.9c1.2-0.1,1.9-0.5,2.3-1.3
		c0.3-0.6,1.2-1.3,2-1.5c1.1-0.2,1.4-0.5,1.2-1.4c-0.2-0.6-0.1-1.7,0.1-2.4c0.3-1.1,0.7-1.4,2-1.4c1,0,1.5,0.2,1.3,0.5
		s0.4,0.5,1.3,0.5c1.3,0,1.6-0.2,1.6-1.1c0-0.8,0.4-1.1,1.6-1.1c0.9,0,2.1,0.3,2.7,0.6c1.7,0.9,5.1,0.8,6.2-0.1
		c0.5-0.5,1.6-1,2.4-1.2s1.3-0.6,1.2-0.9c-0.5-0.7,1.4-1.2,2.1-0.5c0.3,0.3,1.3,0.6,2,0.6c0.8,0,1.7,0.4,2.1,0.8
		c0.4,0.4,0.9,0.8,1.3,0.8s0.4-0.1-0.1-0.3c-0.9-0.4-0.3-1.3,0.9-1.3c0.5,0,1.4-0.6,1.9-1.3c0.7-1.1,1.2-1.3,2.6-1.1
		s1.6,0.2,0.7-0.3s-0.8-0.5,0.5-0.2c0.9,0.2,1.8,0.6,2,0.9c0.3,0.5,0.4,0.5,0.4,0c0-0.4,0.5-0.7,1.1-0.7s1.2-0.2,1.4-0.5
		c0.2-0.3,0.6-0.5,0.9-0.5s0.2,0.3-0.4,0.7c-1,0.7-1,0.8-0.1,1.7c0.7,0.7,0.9,0.8,0.9,0.1c0-0.4,0.4-1.1,0.8-1.5
		c0.7-0.6,1-0.5,1.6,0.3c0.8,1,1.5,0.8,1.7-0.6c0.1-0.4-0.3-0.8-0.7-0.8c-0.5,0-0.7-0.2-0.5-0.4c0.6-0.6,4.2,1.6,3.9,2.4
		c-0.2,0.4,0.1,0.7,0.7,0.7c0.8,0,0.9-0.3,0.7-1.3c-0.4-2,0.2-3.7,1.6-4.3c1.7-0.8,2.9-0.4,3.5,1c0.3,0.7,0.6,0.9,0.6,0.4
		c0-0.6,0.3-0.5,1.2,0.3c1.5,1.4,4,1.9,4.8,0.9c0.7-0.9,2.6-1,2.6-0.1c0,0.4,0.2,0.4,0.7,0.1c1.1-0.9,3.1-1.2,4.5-0.7
		c0.8,0.3,1.3,0.3,1.3,0s0.4-0.5,0.8-0.5s0.7,0.2,0.6,0.5c-0.4,0.6,2.6,0,3-0.6c0.2-0.3,1.1-0.4,2.4-0.1c1.1,0.2,2.5,0.4,3,0.3
		c0.5-0.1,0.9,0.1,0.9,0.4c0,0.3,0.9,0.5,2,0.6c1.6,0,1.8,0.1,0.9,0.5s-1,0.5-0.1,0.6c2,0.3,2.3,0.2,2.3-0.5c0-0.4,0.7-0.9,1.5-1.2
		c0.8-0.2,1.5-0.2,1.5-0.1c0,0.2,0.3-0.1,0.7-0.6c0.8-1.1,4.5-1,5.3,0.2c0.4,0.6,0.6,0.6,0.9,0.1s0.7-0.4,1.3,0.7
		c0.5,0.7,0.9,1.7,0.9,2.2c0,0.6,0.5,0.8,1.8,0.8c1.6,0,1.8-0.1,1.6-1.3c-0.2-1.1,0-1.3,0.9-1.3c0.8,0,1.1-0.2,0.9-0.8
		s0.1-0.8,1.3-0.8c0.9,0,1.5,0.2,1.3,0.5s-0.1,0.5,0.3,0.5c0.3,0,0.5,0.2,0.3,0.5c-0.3,0.5,1.2,0.8,2.6,0.6c0.2,0,0.9,0.2,1.5,0.5
		c0.9,0.5,1.1,0.4,0.9-0.4c-0.1-0.7,0.2-1,0.9-1c0.7,0,1,0.3,0.9,0.8c-0.1,0.6,0,0.6,0.8-0.1c0.6-0.5,1.4-0.9,1.8-0.9
		s1.5-0.4,2.3-0.8c0.8-0.4,1.8-0.7,2-0.5c0.3,0.2,0.8-0.3,1.1-1.1c0.7-1.5,2.4-2,1.9-0.5c-0.5,1.3,1.8,1.9,3.3,0.9
		c1-0.6,1.2-0.7,1.1-0.1c-0.1,0.4,0.3,0.8,0.9,0.9c1.3,0.3,2.4,1.7,2,2.7c-0.2,0.5,0.1,0.7,1.3,0.6c0.9-0.1,2.5,0.3,3.6,0.8
		s2.4,0.9,2.8,0.9s0.7,0.6,0.7,1.4c0,2.2,1.3,1.2,1.4-1c0.1-2.3,0.5-2.8,2.4-3.3c1-0.2,1.7,0,2.8,1.1c1.2,1.2,1.5,1.2,1.8,0.6
		c0.2-0.5,0.7-0.8,1.1-0.8s0.7-0.2,0.7-0.5s0.6-0.6,1.4-0.8c1-0.3,1.6,0,2.4,0.9c0.6,0.8,1.2,1,1.4,0.7c0.5-0.7,2.8-0.8,2.8-0.2
		c0,0.2,0.5,0.4,1,0.4c0.6,0,1.7,0.5,2.5,1.2s1.3,0.9,1.1,0.5c-0.2-0.4-0.1-0.7,0.2-0.7c0.3,0,0.5-0.2,0.3-0.5
		c-0.4-0.7,1.1-1.8,1.8-1.4c0.3,0.2,1,0.1,1.5-0.2s0.8-0.6,0.5-0.6c-0.7,0,4.3-4.9,4.9-4.9c0.3,0,1.3,0.7,2.1,1.6
		c1.4,1.4,1.6,1.5,1.9,0.7c0.3-0.9,0.4-0.9,1.3,0.2c0.5,0.6,1.3,1.3,1.7,1.5c0.4,0.2,0.3,0.3-0.4,0.1c-1.7-0.3-1.5,0.7,0.2,1.3
		c1.1,0.4,1.3,0.8,1,1.7s-0.2,1.1,0.4,0.8c0.4-0.2,1.8-0.6,2.9-0.9c2-0.6,4.2-2.7,2.8-2.7c-0.3,0-0.4-0.2-0.2-0.5
		c0.5-0.8,1.3-0.7,1.3,0.2c0,0.4,0.3,1,0.7,1.4c0.4,0.3,0.9,1.3,1,2.1c0.2,1.2,0.7,1.6,2,1.9c1.1,0.2,1.5,0.6,1.3,1
		s-0.2,0.5,0.2,0.2c0.3-0.2,0.5-0.6,0.4-0.8s0.2-0.7,0.8-1.2c1.3-0.9,1.4-1.6,0.2-1.6c-0.8,0-0.8-0.1,0-0.8c0.4-0.4,1.1-0.8,1.4-0.8
		s0.5-0.3,0.4-0.6c-0.2-0.9,3.4-1.6,4.3-0.9c0.4,0.3,0.5,0.8,0.4,1c-0.2,0.3,0.1,0.6,0.5,0.8c0.5,0.2,0.7,0.5,0.5,0.8
		s0.1,0.5,0.5,0.5s1,0.5,1.1,1.1c0.2,0.6,0.7,1.1,1.2,1.1c0.8,0,0.8-0.1,0.1-0.5c-0.7-0.5-0.7-0.6,0.1-1.1c0.5-0.3,0.8-0.8,0.6-1.1
		c-0.2-0.4-0.1-0.4,0.3-0.2s1,0.1,1.4-0.2c0.5-0.4,1.4-0.5,2.2-0.3c1.2,0.3,1.4,0.2,1.1-0.5c-0.2-0.6-0.1-0.7,0.3-0.4
		c0.4,0.2,1.4,0.4,2.3,0.4c1.1,0,1.6,0.2,1.4,0.8c-0.1,0.6,0,0.7,0.7,0c0.7-0.6,1-0.6,1.4,0c0.3,0.5,0.5,0.6,0.5,0.1
		c0-0.4,0.4-0.7,0.9-0.7c0.7,0,0.8,0.1,0.2,0.5c-0.4,0.3-0.6,0.7-0.4,1c0.4,0.6,2.5,0.1,5-1.1c1.3-0.6,2.3-0.2,2.3,0.9
		c0,0.4,0.3,0.8,0.7,0.8c0.8,0,2.1,2.5,1.7,3.3c-0.2,0.3,0.3,0.4,1.1,0.2c1-0.2,1.4-0.2,1.1,0.2c-0.2,0.3-0.1,0.7,0.2,0.9
		c0.3,0.2,0.8-0.2,1.1-0.9c0.5-1.1,1-1.3,3.3-1.4c2.3-0.1,2.9,0.1,4,1.3c0.7,0.8,1.2,1.7,1,2.2s0.1,0.7,1,0.7c0.7,0,1.3,0.2,1.3,0.5
		c0,1,0.9,0.6,1.2-0.5c0.2-0.7,0.7-1.1,1.6-1.1c0.7,0,1.5-0.2,1.8-0.5c1-0.9,2.9-1.2,2.9-0.5c0,0.4,0.3,1,0.6,1.4
		c0.5,0.5,0.8,0.4,1.3-0.2c1.1-1.4,2.5-0.5,2.3,1.5c-0.1,1,0.1,1.8,0.5,1.9c0.4,0.1,0.7,0,0.7-0.3c0-0.4,0.4-0.4,1.2-0.1
		c1.3,0.5,3-0.2,3.8-1.4c0.6-0.9,2-0.8,2,0.1c0,0.9,1.6,1.9,2.5,1.5c0.4-0.1,0.5-0.6,0.3-1c-0.2-0.6,0.1-0.8,1.2-0.7
		c0.8,0,1.2,0.2,0.9,0.3c-0.9,0.4-0.9,1.3,0.1,1.3c0.4,0,0.9,0.4,1.1,0.8s0.7,0.8,1.1,0.8c0.5,0,0.8,0.4,0.8,0.9
		c0,0.9,0.1,0.9,0.7,0c0.4-0.5,1-0.9,1.3-0.9s0.6-0.4,0.6-0.8c0-0.9,0.1-0.9,1.3-0.5c0.4,0.2,0.7,0.7,0.5,1.1
		c-0.2,0.4,0,0.8,0.5,0.8c1.2,0,2.2,1.4,1.4,1.9c-0.4,0.3-0.4,0.5,0.3,0.9c0.7,0.4,1.1,0.3,1.6-0.4c0.7-1,2.2-0.6,1.6,0.4
		c-0.2,0.4-0.1,0.5,0.5,0.2c0.5-0.2,1.2-0.5,1.6-0.7c0.5-0.2,0.7,0,0.7,0.7c-0.1,0.8,0.4,1,2.5,1.1c1.7,0.1,2.5,0,2.3-0.4
		c-0.2-0.3-0.1-0.6,0.2-0.6c0.3,0,0.4-0.3,0.2-0.6c-0.2-0.4,0.3-0.5,1.7-0.2c2.5,0.5,2.8,0.7,1.8,1.3c-1,0.7-0.4,0.7,1.3,0
		c0.9-0.3,1.5-0.3,1.7,0s0.7,0.4,1,0.3s1,0,1.3,0.3s1.9,0.6,3.4,0.6c2,0,3,0.3,3.5,0.9c0.4,0.5,1.1,0.8,1.7,0.6s1.1,0,1.1,0.4
		c0,0.7,1.4,0.4,4-0.9c0.9-0.4,2.8-0.9,4.3-1s2.8-0.5,3-0.8s0.6-0.5,0.9-0.3s0.7,0.1,0.9-0.2c0.5-0.8,2.4,0.5,2.1,1.4
		c-0.2,0.4,0.1,0.7,0.5,0.7c0.5,0,0.7,0.3,0.5,1.1c-0.2,0.9,0,1.1,1.1,1.1c0.8,0,1.4-0.2,1.4-0.5s0.9-0.5,2-0.5
		c1.6,0.1,1.7,0.1,0.5,0.3c-0.8,0.1-1.5,0.4-1.5,0.6c0,0.4,0.8,0.4,3.9,0.1c0.5,0,0.9-0.3,0.9-0.7c0-0.3-0.3-0.4-0.6-0.2
		c-0.4,0.2-0.5,0.1-0.3-0.4c0.1-0.4,0.6-0.7,0.9-0.6c0.4,0.1,1-0.1,1.3-0.4c0.7-0.6,7.3-0.5,6.9,0.1c-0.1,0.2,0.1,0.4,0.6,0.4
		s0.7,0.2,0.5,0.5c-0.5,0.7,0.5,0.7,1.2-0.1c0.3-0.4,0.8-0.5,1-0.2c0.2,0.2,0,0.6-0.4,0.9c-0.7,0.4-0.6,0.5,0.2,0.5
		c0.5,0,0.9,0.2,0.9,0.5s0.8,0.3,1.9,0c1-0.3,2.1-0.4,2.4-0.2s0.5,0.1,0.5-0.2c0-0.7,2.8-1.2,3.6-0.5c0.4,0.3,1.2,0.5,1.9,0.4
		c1.2-0.2,3.6,1.5,3.1,2.2c-0.1,0.2,0.2,0.4,0.8,0.5c0.8,0.1,0.9,0,0.3-0.3c-0.5-0.3-0.1-0.6,1.5-0.8c1.2-0.2,2.4-0.2,2.7-0.1
		c0.2,0.2,0.6-0.2,0.7-0.8c0.4-1.4,2.4-1.4,3.8-0.1c1.1,1,5.1,2,5.1,1.2c0-0.2,0.7-0.8,1.6-1.3c1.5-0.8,1.6-0.8,2.5,0.1
		c1.1,1.2,2.4,1.3,3.3,0.4c0.5-0.5,0.6-0.5,0.6,0.1s0.2,0.6,0.8,0c0.7-0.5,0.8-0.5,0.8,0.1c0,1.1,1.9,2.8,2.4,2.1
		c0.4-0.7,1.9-0.2,1.8,0.7c-0.1,0.4,0.7,0.6,2.4,0.5c1.7-0.1,2.6,0.1,2.6,0.5c0,0.5,0.2,0.4,0.5-0.1c0.3-0.4,0.9-0.6,1.4-0.4
		c0.6,0.2,1,0,1.2-0.7c0.2-0.6,0.6-1.1,1-1.1s0.8-0.3,0.8-0.7s0.4,0,0.8,0.8c0.8,1.4,0.9,1.5,4.1,1.2c2.3-0.2,3.5-0.6,4.1-1.3
		c1.3-1.5,3-1.9,4-0.9c0.5,0.5,1.5,0.8,2.2,0.8c0.8,0,1.3,0.2,1.1,0.5c-0.2,0.3,0,0.7,0.5,0.8c0.7,0.3,3-0.5,6.3-2.2
		c0.8-0.4,1.8-0.5,2.4-0.3s1.4,0.3,1.8,0.1c0.9-0.3,2.8,1.9,2.4,2.9c-0.2,0.5,0,0.8,0.6,0.8c0.5,0,0.9,0.2,0.9,0.5
		c0,0.7,3.3-0.4,4.1-1.3c0.5-0.6,1.9-1,3.3-0.9c0.4,0,0.5,0.4,0.3,0.9c-0.3,0.7-0.1,0.8,0.8,0.5c0.8-0.3,1.6,0.1,2.8,1.3
		c0.9,0.9,1.5,1.7,1.2,1.7s0.1,0.3,0.9,0.6c0.9,0.4,1.4,0.4,1.5,0c0.1-0.3,0.4-0.4,0.7-0.2c0.7,0.4,1.5-0.8,1.5-2.3
		c0-1.6,0.9-2,2.6-1.2c3.4,1.6,3.8,1.7,4.3,1.4c0.3-0.2,0.6,0,0.6,0.3c0,0.5,0.3,0.4,0.7-0.2c0.4-0.5,1-0.9,1.4-0.9s1.2-0.6,2-1.4
		c0.9-0.9,1.9-1.3,2.9-1.2c1.2,0.1,1.4,0.3,1,0.8c-0.5,0.6-0.2,0.6,1.1,0.1c1.5-0.5,1.8-0.5,2.5,0.5c0.9,1.2,3.8,1.7,3.1,0.5
		c-0.3-0.5-0.1-0.4,0.5,0.1c0.5,0.4,1.4,0.6,2,0.5c0.6-0.2,1-0.1,0.8,0.2c-0.3,0.5,3.6,0.3,5.6-0.3c0.9-0.3,1.2-0.2,0.9,0.2
		c-0.2,0.3-0.1,0.6,0.2,0.6s0.6-0.2,0.6-0.5c0-0.8,3.8-0.6,4.1,0.2c0.2,0.6,0.7,0.6,1.9,0.3c1-0.3,1.5-0.3,1.3,0
		c-0.5,0.8,0.5,0.5,1.9-0.6c1.5-1.2,2.7-1.4,2.7-0.5c0,0.8,2.6,0.1,3.6-0.9c0.6-0.6,0.6-0.8,0.1-0.8c-0.4,0,0.3-0.5,1.6-1.1
		c2.5-1.1,3.5-1,2.9,0.3c-0.3,0.7,0,0.7,1.1,0.5c0.8-0.2,1.4-0.1,1.3,0.1c-0.2,0.5,0.3,0.7,1.2,0.7c0.3,0,0.4-0.2,0.2-0.5
		c-0.2-0.3-0.1-0.5,0.2-0.5c0.3,0,0.7-0.5,0.9-1.1c0.3-0.8,0.8-1,2.4-0.9c1.1,0.1,2,0.3,1.8,0.5c-0.1,0.2,0,0.4,0.4,0.4
		c0.3,0,0.4,0.3,0.2,0.7c-0.2,0.4,0.2,0.3,1-0.2c1.3-0.8,1.5-0.8,3.6,0.1c1.2,0.6,2.2,0.8,2.2,0.5s0.5-0.5,1.2-0.6
		c0.8,0,0.6-0.2-0.7-0.5c-1.8-0.4-1.8-0.4,0.3-0.2c3.3,0.4,4.7,0.4,5-0.1c0.6-0.9,5.4-0.8,7.1,0c1.9,0.9,7.6,1.1,8.1,0.2
		c0.2-0.3,0.8-0.3,1.6,0.1c0.7,0.4,3.2,0.7,5.5,0.8c3.6,0.1,4.4,0,5.2-0.9c0.8-0.8,1.5-1,2.8-0.7c3,0.5,3.5,0.8,2.3,1.3
		c-1,0.4-1,0.4,0.1,0.7c0.7,0.2,1.1,0.1,0.9-0.1c-0.4-0.6,3.4-1.8,4.6-1.4c0.9,0.3,1,0.5,0.4,0.8c-0.9,0.6-0.6,0.8,1.4,1.2
		c0.9,0.2,1.3,0.2,0.9,0c-0.5-0.2-0.5-0.5,0.1-1.1c0.9-0.9,5.4-1.6,4.9-0.8c-0.2,0.3,0.1,0.6,0.5,0.8c1.3,0.5,2.2,0.3,1-0.2
		c-1-0.4-1-0.5-0.1-0.5c0.5,0,1.4,0.2,2,0.5c0.7,0.4,1,0.4,1,0c0-0.3,0.9-0.4,2.3-0.3c1.4,0.2,2,0.1,1.6-0.2
		c-0.5-0.4-0.4-0.5,0.5-0.8c0.7-0.2,1.3-0.2,1.5-0.1c0.1,0.1-0.1,0.2-0.4,0.2c-0.5,0-0.4,0.3,0.2,0.8c1.2,1.2,4.4,0.3,4.4-1.1
		c0-0.6,0.4-1.1,1-1.2c0.7-0.1,0.9,0,0.6,0.5s0,0.6,1,0.3c0.8-0.2,1.4-0.1,1.4,0.2s0.4,0.5,0.8,0.5c1,0,1,0.6,0.2,1.5
		c-0.5,0.5-0.4,0.6,0.5,0.6c0.7,0,1.2-0.2,1.2-0.5c0-0.9,9-1.8,9.5-1c0.1,0.2,0.8,0.3,1.5,0.1c0.8-0.2,1.9,0.1,2.8,0.6l1.5,1l-1-1.2
		l-1-1.2l1.8,0.4c1.3,0.3,1.7,0.2,1.4-0.3c-0.2-0.4,0-0.6,0.7-0.6c0.6,0,1,0.3,1,0.7c-0.2,1,2.9,0.6,3.7-0.4c0.8-1,1.5-1.1,1.1,0
		c-0.3,0.9,1.4,1.7,2.4,1.1c0.4-0.2,0.5-0.1,0.4,0.4c-0.1,0.4,0.2,1.2,0.8,1.7c1.3,1.2,1.7,1.2,1.2,0.1c-0.3-0.8-0.2-0.8,0.5-0.2
		s1,0.6,1.4-0.1c0.4-0.6,0.5-0.6,0.2,0.2c-0.3,1-0.6,1,5.3,0c1.3-0.2,1.5-0.1,0.8,0.3c-0.6,0.5-0.5,0.5,0.8,0.3
		c0.9-0.2,2.1-0.3,2.8-0.3c0.8,0,1.1-0.2,0.9-0.8c-0.2-0.5,0-0.8,0.6-0.8s0.8,0.3,0.6,0.8c-0.2,0.5,0,0.8,0.6,0.8s0.7,0.1,0.3,0.3
		c-0.4,0.1-0.7,0.5-0.7,0.8c0,0.6,3.4,0,3.8-0.7c0.2-0.3,0.8-0.4,1.3-0.2c0.7,0.3,0.8,0.1,0.6-0.5c-0.2-0.4-0.1-0.8,0.1-0.8
		s1.1-0.1,1.9-0.2c0.8-0.1,1.5,0,1.5,0.3s-0.4,0.5-0.9,0.5c-0.7,0-0.8,0.2-0.3,0.6c0.4,0.4,1.7,0.5,4,0.2c3.1-0.4,3.2-0.5,1.5-0.8
		l-1.9-0.3l1.8-0.4c1-0.2,1.9-0.3,2.1-0.1s0.6,0.1,1-0.2c0.8-0.6,2.5-0.1,2.1,0.6c-0.2,0.3,0,0.5,0.3,0.5c0.8,0,0.7-1.5-0.1-1.8
		c-0.4-0.2,0-0.2,0.9-0.1c0.9,0.1,1.8,0.5,2.1,0.8c0.3,0.3,1,0.6,1.6,0.6s0.9,0.2,0.7,0.5c-0.2,0.3,0.9,0.6,2.4,0.8s2.6,0.6,2.4,0.8
		c-0.2,0.3,0,0.6,0.3,0.8s0.5,0,0.4-0.4c-0.1-0.5,0.6-0.8,2.3-0.9c1.9-0.1,2.2-0.3,1.3-0.6c-1-0.4-0.9-0.4,0.3-0.5
		c0.8,0,1.7,0.3,2.1,0.8c0.7,0.8,3.2,1.1,3.2,0.4c0-0.2,2.7-0.3,6-0.2c3.6,0.1,5.8,0,5.7-0.3c-0.2-0.3,0.5-0.4,1.7-0.1
		c1.2,0.2,2.5,0.1,3.3-0.3c0.7-0.4,1.2-0.8,1.1-0.8c-0.1-0.1-0.1-0.5,0-0.9c0.2-0.6,1.3-0.8,4.3-0.9c4.2-0.1,5.9,0.5,5.9,2
		c0,0.5,0.5,1.2,1.1,1.5c0.8,0.4,1,0.7,0.5,1c-0.4,0.3,0.2,0.5,1.6,0.6c1.9,0.2,2.5,0,3.6-1.2c1.3-1.4,4-2.4,4-1.5
		c0,0.2,0.5,0.5,1.1,0.7s1.1,0.7,1.1,1.1c0,0.5,0.5,1,1.1,1.2s1,0.6,0.9,0.9c-0.1,0.7,4.3,1.6,5.1,1.1c0.3-0.2,1,0.1,1.5,0.6
		c0.7,0.6,1.5,0.8,2.6,0.6c0.9-0.2,1.7-0.1,1.9,0.1c0.3,0.5,1.8,0.4,6.2-0.4c1.6-0.3,3.3-0.3,3.8-0.1s2.7,0.7,5,1.1
		c2.3,0.4,4.9,1,5.8,1.5c1,0.5,2.4,0.7,3.5,0.5s1.7-0.1,1.5,0.2s0,0.5,0.4,0.6c0.4,0,0.1,0.2-0.6,0.5c-1.1,0.3-0.9,0.4,1.2,0.5
		c1.4,0,3.1,0.3,3.6,0.6c1.3,0.7,1.4,0.1,0.1-0.9c-0.9-0.7-0.8-0.7,0.4-0.8c2.7-0.1,4.5,0.2,5.7,1c0.8,0.5,1.8,0.7,2.7,0.5
		c1.3-0.3,1.3-0.2,0.5,0.3c-0.7,0.4-0.8,0.7-0.4,1c0.4,0.2-0.1,0.4-1,0.3c-0.9,0-1.5-0.2-1.4-0.5c0.4-0.6-0.5-0.5-3.1,0.5
		c-1.3,0.5-3,0.9-3.8,0.8c-0.8,0-1.5,0.3-1.5,0.6c0,0.4-0.2,0.4-0.6,0c-0.9-0.9-1.7-0.8-1.3,0.1c0.2,0.4-0.1,0.9-0.5,1.1
		c-0.5,0.2-0.7,0.7-0.5,1.1c0.5,1.2-3.5,2.7-6.5,2.4c-1.4-0.1-2.3-0.2-1.9,0c0.4,0.1,0.5,0.5,0.3,0.8s-0.1,0.4,0.2,0.3
		c0.3-0.2,1.2,0.1,2.1,0.6c1,0.6,3.8,1.2,7.6,1.7c6.4,0.7,11.2,2.2,8.9,2.8c-0.8,0.2-1.1,0.1-0.8-0.3c0.2-0.3-0.1-0.3-0.6,0.2
		c-0.7,0.6-2.4,0.8-6.2,0.8c-3.9,0-5.1,0.2-4.7,0.6c0.3,0.3,1.5,0.8,2.6,0.9c1.2,0.2,3.1,0.5,4.3,0.6c1.2,0.2,2,0.5,1.8,0.8
		s0.1,0.6,0.7,0.8c0.5,0.2,1.5,0.5,2.1,0.8c0.6,0.2,2.3,0.6,3.7,0.7c1.5,0.1,2.8,0.5,2.8,0.8c0.2,0.7,2.3,0.2,2.3-0.6
		c0-0.4,0.2-0.4,0.7,0c0.8,0.7,6.3,0.7,7.2,0c0.4-0.3,0.7-0.2,0.9,0.3c0.2,0.6-0.2,0.9-1.7,1.1c-1.1,0.2-2.6,0.4-3.3,0.6
		c-1,0.2-1.2,0.1-0.5-0.3c1-0.7-4.7-0.2-7.3,0.6c-0.9,0.3-2,0.4-2.5,0.2c-0.4-0.2-1.1,0.1-1.5,0.5c-0.4,0.5-1.6,0.8-2.8,0.8
		c-2,0-2.1,0.1-1.9,1.4c0.2,0.9,0,1.5-0.6,1.8c-1.1,0.6-0.4,1.7,1.1,1.7c1.1,0,1.1,0.1-0.2,0.5c-1.3,0.4-1.3,0.4,0.3,0.5
		c1.3,0.1,1.4,0.2,0.6,0.5c-0.9,0.3-0.8,0.5,0.8,1.3c1.5,0.8,1.6,0.9,0.6,0.9c-0.7,0-1.2,0.3-1.2,0.8c0,0.4-0.5,0.8-1.1,0.8
		c-1.2,0-1.3,0.4-0.4,1.7c0.4,0.6,2,1,4.7,1.2c4.3,0.4,5.7,0.9,5.1,1.8c-0.4,0.6,2.3,1.7,4.7,1.8c1.5,0.1,1.5,0.1-0.5,0.5l-2.2,0.4
		l1.9,0.1c1,0,2.8-0.1,4-0.4c1.3-0.2,3.9-0.1,6.5,0.2c2.4,0.4,4,0.7,3.6,0.7s-0.5,0.4-0.3,0.9c0.3,0.8,1.6,0.8,1.4-0.1
		c0-0.3,0.8-0.5,1.9-0.6c1.5-0.1,1.8,0,1.2,0.4c-0.6,0.4,0,0.5,2,0.2c1.8-0.2,2.9-0.1,3.2,0.3c0.3,0.4,0,0.5-0.7,0.3
		c-1.4-0.5-2,0.5-0.8,1.3c0.8,0.5,0.6,0.6-0.9,0.5c-1,0-5.7,0.1-10.4,0.4c-5.7,0.3-8.4,0.2-8.2-0.1c0.2-0.3-0.6-0.5-2.2-0.3
		c-1.4,0.1-5.2,0.3-8.5,0.4c-8.8,0.3-8.3,0.2-8,1.1c0.2,0.4,1,0.8,1.8,0.8s1.7,0.2,2,0.4s2.1,0.9,4,1.5s3.6,1.2,3.8,1.3
		c0.2,0.3,9,1.5,12.1,1.6c1,0,0.9,0.1-0.2,0.7c-1,0.5-1.4,0.5-1.5,0c-0.4-1.1-1.6-0.7-1.5,0.5c0.1,1.4,2.2,2,7.2,2.1
		c1.8,0,3.4,0.3,3.4,0.5s-0.2,0.5-0.5,0.5s-0.5,0.2-0.5,0.5c0,0.8,2.9,1.1,3.7,0.5c0.5-0.4,0.8-0.4,1.1,0c0.2,0.3,1.5,0.8,2.8,1.1
		l2.4,0.6h-2.3c-1.4,0-2.5,0.2-2.8,0.7s-0.5,0.5-0.8,0.1c-0.3-0.5-0.6-0.5-1.1,0c-0.4,0.3-0.8,0.4-0.8,0.2c0-0.2-0.4-0.1-0.8,0.2
		c-0.4,0.4-1.3,0.5-1.9,0.3c-0.7-0.2-1.1-0.1-1.1,0.4s-0.1,0.6-0.4,0c-0.3-0.5-0.9-0.5-2.1-0.2c-0.9,0.3-1.7,0.4-1.7,0.2
		c0-0.1-0.5,0-1.1,0.4c-1.4,0.8-4.3,0.2-3.1-0.6c0.9-0.6-1.3-0.2-4,0.6c-0.9,0.3-3.8,0.5-6.6,0.5c-3.2,0-4.9,0.2-4.7,0.5
		c0.2,0.3-0.2,0.5-0.8,0.5c-0.6,0-1.3,0.4-1.4,0.8c-0.2,0.5-1.1,0.8-2.5,0.8c-1.9,0-2.1,0.1-1,0.5s9,1.2,12.1,1.1
		c0.5,0,1.2,0.4,1.5,1c0.4,0.8,1,1,2.3,0.8l1.7-0.3l-1.7,0.6c-1.8,0.6-2.5,1.4-0.7,0.9c0.6-0.1,1.3-0.1,1.7,0.2
		c0.5,0.3,0.1,0.5-1.2,0.5c-1.3,0-2.2,0.4-2.6,1c-0.6,0.8-1.7,1.1-4.8,1.4c-3.6,0.3-3.9,0.5-3,1.1c0.8,0.5,0.8,0.7,0.2,0.8
		c-1,0.1,2.1,0.9,6,1.6c1.7,0.3,4.1,1.1,5.4,1.9l2.3,1.3h-2.2c-4.8,0-5.3,1.4-0.7,1.9c4.1,0.5,4.3,1.6,0.4,2.1
		c-1.7,0.2-3.1,0.7-3.5,1.2c-0.5,0.6-2,1-5.6,1.3c-4.5,0.4-5.9,0.9-5.9,2.2c0,0.3,2.4,1.1,6.2,2c0.9,0.2,2.9,0.3,4.6,0.3
		c4.2-0.2,16.1,0.8,17.9,1.5c1.6,0.6,1.9,1.2,0.8,1.7c-0.4,0.2,0.2,0.2,1.2,0.1s2.4,0,3,0.2c1,0.4,1,0.5-0.2,0.5
		c-0.7,0-1.1,0.3-0.9,0.6c0.3,0.5-2.2,0.9-3.7,0.6c-0.3,0-0.8,0.2-1.2,0.5c-0.4,0.3-1.2,0.4-1.7,0.2c-1.7-0.7-4.4-0.8-4.7-0.3
		c-0.2,0.3-1.2,0.5-2.3,0.5c-1.7,0-1.8-0.1-0.9-0.5s0.8-0.5-0.5-0.2c-4.1,0.7-5.7,0.8-5.3,0.2c0.2-0.4,0-0.5-0.7-0.3
		c-3.2,0.9-3.7,1-2.9,0.4c0.6-0.4,0.1-0.5-1.6-0.3c-1.3,0.1-2.5,0.2-2.7,0.3c-0.1,0,0.6,0.4,1.6,0.8c1.6,0.6,1.7,0.7,0.5,0.7
		c-2.5-0.1-3.3,0.1-3.1,0.8c0.3,0.8-3.1,2-5.1,1.8c-0.8-0.1-1.4,0-1.2,0.2c0.1,0.2-1.9,0.5-4.6,0.6c-3.6,0.2-5.1,0.5-5.9,1.2
		c-0.9,0.8-2,1-6.1,0.9c-3.3,0-4.7,0.1-4.2,0.5c0.4,0.3,1.7,0.5,2.8,0.5c1.1,0,2,0.3,2,0.5c0,0.8,2.3,0.7,3.2-0.1
		c0.6-0.5,0.6-0.5,0.3,0c-0.5,0.9-0.3,0.8,2.1-0.2c1.1-0.5,1.8-0.6,1.6-0.3c-0.2,0.4,0.6,0.6,2.2,0.6c2.1,0,2.3,0.1,1.2,0.5
		c-1.2,0.4-1.2,0.4-0.2,0.5c0.9,0,1.1,0.3,0.9,1.1c-0.2,0.7,0.1,1.1,0.9,1.4c0.6,0.2,1,0.6,0.8,0.9s0.4,0.4,1.3,0.2
		c1.3-0.3,1.6-0.1,1.6,0.5s-0.5,0.9-2,1l-2,0.1l1.9,0.2c2.9,0.3,3.7,0.7,2.4,1.2c-0.9,0.3-0.7,0.4,0.7,0.4c1.2,0,1.7-0.3,1.7-0.8
		s0.3-0.7,0.8-0.5c0.4,0.2,1,0,1.2-0.3c0.2-0.4,0.1-0.4-0.4-0.2c-0.5,0.3-0.6,0.3-0.2-0.1c0.3-0.3,2.3-0.8,4.4-1.2
		c4.8-0.7,5.6-0.7,4.3,0c-0.5,0.3-0.8,0.8-0.6,1.1c0.2,0.3,0.7,0.2,1.1-0.3c1.1-1.1,2.7-1.1,1.9-0.1c-0.7,0.8,1.2,1,14.2,1.7
		c8.3,0.4,19.1,2.1,19.1,2.9s5.9,1.4,9.1,1c1.9-0.2,3.8,0.1,3.5,0.6c-0.2,0.3,0,0.5,0.4,0.5c0.5,0,0.5,0.1-0.1,0.5
		c-0.4,0.3-1,0.4-1.2,0.3s-0.5,0-0.7,0.3s-2.1,0.5-4.3,0.5c-2.3,0-4.1,0.2-4.3,0.6c-0.2,0.3-1.1,0.5-2.1,0.3
		c-1.7-0.3-5.1,0.5-5.1,1.3c0,0.2-0.6,0.3-1.4,0.1c-0.8-0.2-1.3-0.1-1.1,0.2c0.4,0.6-0.6,0.6-22.3,0.8c-15.8,0.1-20.2,0.5-14.6,1.2
		c1.4,0.2,3.8,0.6,5.2,0.8c1.4,0.3,3.3,0.5,4.1,0.5c0.8,0,1.7,0.2,1.9,0.5c0.2,0.3,0.9,0.5,1.5,0.5c0.7,0,2.2,0.2,3.5,0.6
		c1.3,0.3,4.4,0.7,7,0.8c5.8,0.2,14.1,1.4,15,2.1c0.5,0.4,0.4,0.8-0.5,1.5c-0.6,0.6-1.4,1-1.7,1c-0.3,0-0.1,0.4,0.4,0.9
		s1.7,0.9,2.8,0.8c1.3,0,1.8,0.1,1.7,0.6c-0.2,0.5-1.4,0.6-3.9,0.5c-3.3-0.2-14,1.5-15.4,2.4c-0.3,0.2-3.6,0.3-7.4,0.3
		s-7,0.2-7.2,0.4c-0.1,0.2,2,0.5,4.7,0.5c4.5,0.1,7.3,0.3,14.4,0.9c1.4,0.1,3,0.4,3.8,0.7c1.4,0.5,1.3,0.6-2.4,1.4
		c-1.2,0.3-1.4,0.5-0.8,0.8c0.7,0.4,0.7,0.5,0,0.5s-0.7,0.1,0,0.5c0.7,0.5,0.7,0.5,0,0.6c-0.4,0,0,0.4,1.1,0.7l1.9,0.7l-1.8,0.4
		c-1,0.2-2.4,0.2-3.2,0l-1.4-0.3l1.3,1.1c1.6,1.3,0.8,1.6-1,0.3c-1.1-0.8-1.4-0.8-3.4,0.2c-1.9,1-2,1.1-0.9,1.3
		c0.7,0.1,1.7,0.4,2.3,0.6c1.1,0.4,1.1,0.4,0-0.5s-1.1-0.9,0.3-0.5c0.7,0.2,1.6,0.6,1.9,0.9c0.3,0.3,1,0.5,1.6,0.5
		c0.9,0,0.9,0.1-0.2,0.5l-1.3,0.4l1.3,0.1c1.3,0.1,1.3,0.1-0.4,1c-1,0.5-1.7,1.2-1.7,1.5c0,0.5-1.2,0.7-3.8,0.7
		c-3.7,0-6.4,1-5.5,1.9c0.2,0.2-0.1,0.1-0.8-0.2c-1-0.5-1.4-0.5-2,0.2c-0.4,0.4-2.2,0.9-3.9,1.1c-4.4,0.5-5.5,0.8-5.5,1.4
		c0,0.3,1.4,0.5,3.2,0.5c3.5,0,6,0.7,6,1.7c0,0.3-0.5,0.7-1.1,0.9c-0.6,0.2-1,0.5-0.8,0.7c0.1,0.2-1.2,0.6-3.1,0.8
		c-1.8,0.2-4,0.8-4.9,1.4l-1.6,1l1.6,0.3c0.9,0.2,2.3,0.6,3.1,0.8s2.2,0.5,3.1,0.5c0.8,0,1.5,0.2,1.5,0.5c0,0.6-1.1,0.9-5.1,1.3
		c-1.5,0.2-2.8,0.6-2.9,0.9s-0.8,1.2-1.5,1.9c-1.7,1.7-1.6,2.1,0.5,3.4c1,0.6,2.1,1.7,2.4,2.5c0.6,1.2,0.5,1.6-0.5,2.4
		c-0.6,0.6-1.1,0.9-1.1,0.7s-0.4-0.1-0.8,0.3c-0.4,0.4-0.7,0.9-0.5,1.1c0.2,0.3-0.1,0.5-0.5,0.5s-1,0.3-1.4,0.7
		c-0.3,0.4-1.4,0.9-2.4,1.1c-1.1,0.3-1.4,0.5-0.8,0.6c1.1,0.3,1.1,2.3-0.1,2.2c-1.7-0.1-4.5,0.2-3.6,0.5c0.5,0.1,0.8,0.5,0.7,0.7
		c-0.2,0.3,0.4,0.9,1.3,1.4s1.6,1.1,1.6,1.3s0.6,0.6,1.2,0.9c1.9,0.8,1.8,2.8-0.2,3.5c-2.3,0.8-1.4,1.5,2.1,1.5c4.8,0,6.7,0.5,7.8,2
		c1.3,1.8,0.8,3.7-1.5,5.2c-1,0.7-1.9,1.3-1.9,1.5c0,0.3,3.9,1.4,6.7,1.8c2,0.3,2.4,0.7,1.1,1.2c-0.6,0.2-1.3,0.7-1.7,1.1
		c-0.4,0.4-1.5,0.8-2.4,1c-1,0.2-4.6,0.8-8.1,1.3c-8.8,1.4-9.8,2.8-2.6,3.6c3.2,0.3,8.7,1.7,7.2,1.8c-0.4,0-0.6,0.3-0.4,0.6
		c0.2,0.3-0.3,0.5-1,0.5s-2,0.3-2.9,0.6c-1.3,0.5-1.4,0.6-0.5,1c1.1,0.4-3.6,1.4-10.2,2c-2.1,0.2-4.2,0.4-4.8,0.5
		c-0.6,0.1-2.5,0.3-4.3,0.5s-4.5,0.9-6,1.7c-1.5,0.7-3.7,1.5-4.7,1.7s-1.9,0.5-1.9,0.7s-0.8,0.7-1.8,1.1c-1,0.4-1.7,0.9-1.6,1.2
		c0.1,0.4-1.1,0.6-3.4,0.7c-2,0.1-3.7,0.3-3.9,0.6c-0.2,0.2-3.6,0.4-7.6,0.4c-6.1,0-7.4,0.1-8.3,0.9c-0.5,0.5-1.3,0.8-1.7,0.6
		c-0.4-0.2-0.7,0-0.7,0.3s-0.7,0.6-1.6,0.6s-1.6,0.2-1.6,0.5c0,1-2.8,1.2-3.8,0.3c-0.7-0.7-1.6-0.8-3.4-0.6
		c-1.3,0.2-2.3,0.1-2.2-0.1c0.4-0.6-2.7-1.1-4.6-0.7c-0.9,0.2-1.6,0.6-1.6,1s-0.3,0.6-0.8,0.4c-0.5-0.2-0.8,0-0.8,0.5
		c0,0.9-1.8,1.7-2.7,1.2c-0.3-0.2-0.9-0.1-1.3,0.2c-0.9,0.7-14.1,0.9-15,0.2c-1-0.7-4.2-0.9-4.2-0.2c0,1-1.9,0.6-2.9-0.5s-2-1-2,0.2
		c0,1.1-2.5,3-3.7,2.7c-0.6-0.2-1.2,0-1.4,0.3c-0.5,0.7-2.8,0.8-3.3,0c-0.2-0.3-0.8-0.5-1.3-0.5s-1.1-0.3-1.2-0.6
		c-0.3-0.8-5.1-1.2-6.3-0.5c-0.7,0.4-1.2,0.3-1.6-0.1c-0.5-0.5-0.8-0.3-1.5,0.6c-1.4,2-3.5,3.9-4.3,3.9c-0.4,0-2-0.6-3.5-1.4
		c-1.6-0.8-3.1-1.2-3.7-1.1c-0.6,0.2-1.5,0-2.1-0.4c-0.9-0.6-1.5-0.5-3.8,0.7c-2.8,1.5-4,1.4-5.2,0c-0.5-0.6-0.8-0.7-1.3-0.2
		c-0.4,0.4-1.3,0.6-2.2,0.6c-0.9,0-1.7,0.4-1.8,0.8c-0.2,0.6-0.7,0.7-1.7,0.5c-2.9-0.7-3.8-0.8-3.8-0.3c0,0.3-1.4,0.5-3.2,0.5
		c-1.8,0-3.2,0.2-3.2,0.5s-0.6,0.5-1.4,0.5s-1.2,0.2-1,0.5s0.1,0.5-0.2,0.5c-0.3,0-0.6-0.3-0.6-0.8c0-0.4-0.7-1-1.5-1.3
		s-1.2-0.6-0.8-0.6c0.9-0.1,0.9-1.1-0.1-1.1c-0.4,0-0.9,0.3-1,0.7c-0.3,0.7-3.2,1.4-6.7,1.5c-1,0-1.7,0.2-1.7,0.5
		c0,1.3-6.7,1.4-8.1,0.2c-0.9-0.8-4.3-1.1-5-0.4c-0.2,0.2-0.9,0.4-1.6,0.5s-2.1,1.2-3.1,2.4l-1.9,2.2l-2.6-0.9
		c-1.4-0.5-3.4-0.9-4.4-0.9c-1.2,0-1.8-0.3-1.8-0.8c0-1.1-0.7-1-1.5,0.2c-0.7,1-2.8,1-2.8-0.1c0-0.9-3.3,1.8-3.9,3.1
		c-0.3,0.7-0.9,1.3-1.3,1.3s-0.6,0.3-0.4,0.6c0.6,1-2.1-0.1-3.5-1.4c-1-0.9-1.8-1.2-2.8-1c-0.8,0.2-1.5,0.5-1.5,0.8
		c0,0.9-3.9,2.8-5.9,2.9c-2.3,0.1-3.7,0.5-6.8,2.1c-2.4,1.2-3.5,1.2-3.5,0.1c0-1-2.8-1.8-4.5-1.3c-1.1,0.4-1.8,0.3-2.7-0.3
		c-1.2-0.8-1.8-0.7-5,0.8c-0.9,0.4-1.5,0.3-2.5-0.4c-0.8-0.5-1.8-0.8-2.4-0.6s-1.4,0-1.9-0.5c-1.1-1.1-2.9-1-5.1,0.3
		c-1.8,1.1-2,1.1-4.4,0.3c-2.4-0.9-4.6-0.8-4,0.2c0.1,0.2-0.3,0.4-0.9,0.5c-4,0.2-7.5,0.5-7.7,0.8c-0.1,0.1-1.1,0-2.2-0.3
		c-1.3-0.3-2-0.3-2.2,0c-0.4,0.7-0.6,0.7-2.6,0.1c-1.1-0.3-1.9-0.3-2.1,0s-0.6,0.3-0.9,0c-1.2-0.9-5.6-1.3-6.1-0.5
		c-1.3,2-6.8,2.9-10.1,1.8c-2.6-0.9-3.1-1-2.6-0.2c0.3,0.4,0,0.5-0.8,0.3c-0.7-0.2-1.4,0-1.8,0.5c-0.4,0.4-1,0.7-1.3,0.5
		c-0.4-0.1-0.8,0-1,0.2c-0.2,0.3-0.9,0.5-1.7,0.5c-0.7,0-1.8,0.2-2.4,0.5c-0.7,0.4-1.2,0.3-1.8-0.3c-0.4-0.4-1.8-0.8-2.9-0.8
		c-1.2,0-3.2-0.3-4.6-0.7c-2.1-0.6-2.5-0.6-2.8,0c-0.2,0.6-1,0.7-3.2,0.4c-1.9-0.2-3-0.1-3.3,0.2c-0.2,0.4-1.8,0.5-4.7,0.2
		c-3.1-0.2-4.3-0.2-4,0.2c0.6,0.9-2.8,1.4-5.3,0.7c-1.7-0.5-2.6-0.5-3.4-0.1C1478.4,69.2,1476.3,69.2,1476.8,68.5L1476.8,68.5z"/>
</g>
</svg>
