<?xml version="1.0" encoding="utf-8"?>
<!-- Generator: Adobe Illustrator 23.0.1, SVG Export Plug-In . SVG Version: 6.00 Build 0)  -->
<svg version="1.1"
	 id="svg3026" xmlns:cc="http://creativecommons.org/ns#" xmlns:dc="http://purl.org/dc/elements/1.1/" xmlns:rdf="http://www.w3.org/1999/02/22-rdf-syntax-ns#" xmlns:svg="http://www.w3.org/2000/svg"
	 xmlns="http://www.w3.org/2000/svg" xmlns:xlink="http://www.w3.org/1999/xlink" x="0px" y="0px" viewBox="0 0 1300 315.2"
	 style="enable-background:new 0 0 1300 315.2;" xml:space="preserve">
<style type="text/css">
	.st0{fill:#8CEAD8;}
</style>
<g id="layer1" transform="translate(167.14281,-60.456612)">
	<path id="path2987-3" class="st0" d="M172.9,111.1c0.3-0.1,1-0.1,1.5,0c0.5,0.1,0.2,0.2-0.6,0.2
		C172.9,111.3,172.6,111.2,172.9,111.1L172.9,111.1z M110,110.8c0.3-0.5,1.7-0.4,2.6,0.1c0.5,0.3,0.3,0.4-1,0.4
		C110.5,111.2,109.8,111,110,110.8z M106,111c0.2-0.3,0.6-0.3,1-0.2c1,0.4,0.9,0.7-0.3,0.7C106.2,111.4,105.9,111.2,106,111z
		 M80.7,111.1c0.5-0.1,1.3-0.1,1.9,0c0.6,0.1,0.2,0.2-0.8,0.2C80.8,111.3,80.3,111.2,80.7,111.1L80.7,111.1z M100.3,111.5
		c-2.6-0.2-2.2-1.1,0.5-1.1c2.6,0,4.3,0.7,2.5,1C102.7,111.6,101.3,111.6,100.3,111.5L100.3,111.5z M86.1,111.6
		c0.2-0.2,0.6-0.2,0.9,0c0.4,0.2,0.3,0.3-0.3,0.3C86.2,111.9,85.9,111.8,86.1,111.6L86.1,111.6z M237.5,112.1c0.2-0.2,0.6-0.2,0.9,0
		c0.4,0.2,0.3,0.3-0.3,0.3C237.6,112.4,237.3,112.3,237.5,112.1L237.5,112.1z M231.4,112.1c0.3-0.1,0.9-0.1,1.2,0
		c0.3,0.1,0.1,0.2-0.6,0.2C231.4,112.3,231.1,112.2,231.4,112.1z M201.4,112.1c0.3-0.1,0.9-0.1,1.2,0c0.3,0.1,0.1,0.2-0.6,0.2
		C201.4,112.3,201.1,112.2,201.4,112.1z M118.4,111.9c0-0.6,0.7-0.6,2.4,0c1.1,0.3,1,0.4-0.6,0.4
		C119.2,112.4,118.4,112.2,118.4,111.9z M116.3,111.8c0.3-0.3,0.8-0.4,1.1-0.3c0.4,0.1,0.1,0.3-0.5,0.5
		C116.1,112.2,115.9,112.2,116.3,111.8L116.3,111.8z M-65.5,111.9c-0.6-0.4-0.5-0.5,0.4-0.5c0.6,0,1,0.2,0.8,0.5
		C-64.6,112.5-64.6,112.5-65.5,111.9z M100.1,112.6c0.2-0.2,0.6-0.2,0.9,0c0.4,0.2,0.3,0.3-0.3,0.3
		C100.2,112.9,99.9,112.7,100.1,112.6L100.1,112.6z M87,112.6c0.2-0.2,0.6-0.2,0.9,0c0.4,0.2,0.3,0.3-0.3,0.3
		C87.2,112.9,86.9,112.7,87,112.6L87,112.6z M16.8,112.7c0-0.1,0.2-0.3,0.5-0.5c0.3-0.2,0.5-0.1,0.5,0.2c0,0.3-0.2,0.5-0.5,0.5
		C17,112.9,16.8,112.8,16.8,112.7L16.8,112.7z M12.8,112.5c0.3-0.1,0.9-0.1,1.2,0c0.3,0.1,0.1,0.2-0.6,0.2
		C12.7,112.8,12.5,112.7,12.8,112.5z M-62.5,112.4c-1.1-0.4-1.1-0.4,0.4-0.3c0.9,0,1.7,0.2,1.8,0.4C-60,113-60.9,112.9-62.5,112.4z
		 M419.5,112.9c0.9-0.4,4.5-0.7,4.1-0.3c-0.1,0.1-1.3,0.3-2.6,0.5C419.4,113.2,418.8,113.1,419.5,112.9L419.5,112.9z M-7.4,113.4
		c0-0.2,0.5-0.4,1.2-0.3c1.8,0.2,2.1,0.8,0.3,0.8C-6.7,113.8-7.4,113.6-7.4,113.4z M-105.8,113.4c-0.2-0.3,0-0.4,0.5-0.2
		c0.8,0.3,1,0.7,0.3,0.7C-105.3,113.8-105.7,113.6-105.8,113.4z M-26.6,113.9c-0.3-0.2-0.4-0.6-0.2-1c0.3-0.5,0.5-0.4,0.7,0.4
		c0.1,0.6,0.2,1,0.2,1C-26,114.3-26.3,114.1-26.6,113.9L-26.6,113.9z M-2.3,114.1c-0.2-0.4-0.1-0.7,0.2-0.7c0.3,0,0.5,0.2,0.5,0.4
		c0,0.2,0.4,0.5,0.8,0.7c0.7,0.2,0.6,0.2-0.2,0.3C-1.5,114.8-2.1,114.5-2.3,114.1L-2.3,114.1z M580.7,114.5c-0.7-0.8,0-1.2,2.1-1.2
		c1.8,0,10,1.4,10.4,1.7c0.1,0.1-2.6,0.1-6,0.1C583.6,115.1,581,114.8,580.7,114.5L580.7,114.5z M288.7,115c0.5-0.1,1.2-0.1,1.7,0
		c0.5,0.1,0.1,0.2-0.8,0.2C288.7,115.2,288.3,115.1,288.7,115z M-29.5,115c0.2-0.2,0.6-0.2,0.9,0c0.4,0.2,0.3,0.3-0.3,0.3
		C-29.4,115.3-29.7,115.2-29.5,115L-29.5,115z M-81.9,115.1c0-0.5,0.9-0.7,1.2-0.3c0.2,0.3,0,0.5-0.5,0.5
		C-81.6,115.3-81.9,115.2-81.9,115.1L-81.9,115.1z M596.1,115.4c0.3-0.1,0.9-0.1,1.2,0c0.3,0.1,0.1,0.2-0.6,0.2
		C596.1,115.7,595.8,115.6,596.1,115.4L596.1,115.4z M-42.4,115.9c-0.5-0.5,0.1-1.1,0.9-1.1c0.4,0,0.7,0.3,0.7,0.7
		C-40.8,116.3-41.8,116.5-42.4,115.9z M1.3,116.3c0-0.3,0.3-0.5,0.6-0.5c0.4,0,0.4-0.2-0.1-0.5c-1.2-0.7-0.3-1,1.1-0.3
		c0.9,0.5,1.4,0.5,1.8,0.1c0.6-0.6,1.1-0.3,0.6,0.4C4.8,116.3,1.3,116.9,1.3,116.3L1.3,116.3z M514.6,116.9c0.2-0.2,0.6-0.2,0.9,0
		c0.4,0.2,0.3,0.3-0.3,0.3C514.8,117.2,514.5,117.1,514.6,116.9L514.6,116.9z M500.5,117c0-0.1,0.5-0.3,1.2-0.4
		c0.7-0.1,1.2,0,1.2,0.2c0,0.2-0.5,0.4-1.2,0.4C501,117.2,500.5,117.1,500.5,117L500.5,117z M608,117.4c0.2-0.2,0.6-0.2,0.9,0
		c0.4,0.2,0.3,0.3-0.3,0.3C608.1,117.7,607.8,117.6,608,117.4L608,117.4z M548.2,117.4c0.3-0.1,0.9-0.1,1.2,0
		c0.3,0.1,0.1,0.2-0.6,0.2C548.2,117.6,547.9,117.5,548.2,117.4L548.2,117.4z M527.1,117.2c0-0.3,0.3-0.3,0.7-0.2
		c0.4,0.2,0.7,0.4,0.7,0.5c0,0.1-0.3,0.2-0.7,0.2S527.1,117.5,527.1,117.2z M519.8,117.2c0-0.6,0.5-0.6,1.5,0
		c0.6,0.4,0.5,0.5-0.4,0.5C520.3,117.7,519.8,117.5,519.8,117.2z M-102.6,117c-1-0.4-1.6-1-1.6-1.6c0-0.8,0.2-0.9,1.8-0.7
		c2.3,0.4,3.5,1,3.5,1.8c0,0.6-1,1.3-1.9,1.2C-100.9,117.7-101.7,117.4-102.6,117z M583.7,117.7c-0.4-0.3-0.5-0.5-0.1-0.5
		c0.3,0,0.7,0.2,0.9,0.5C584.8,118.3,584.6,118.3,583.7,117.7z M562.9,117.7c0-0.3,0.1-0.5,0.2-0.5c0.1,0,0.3,0.2,0.5,0.5
		c0.2,0.3,0.1,0.5-0.2,0.5S562.9,118,562.9,117.7z M560.2,117.7c-0.2-0.3,0-0.5,0.5-0.5c0.4,0,0.8,0.2,0.8,0.5
		c0,0.3-0.2,0.5-0.5,0.5C560.7,118.2,560.4,118,560.2,117.7z M553.7,117.7c0-0.3,0.2-0.5,0.5-0.5c0.3,0,0.5,0.1,0.5,0.2
		c0,0.1-0.2,0.3-0.5,0.5C553.9,118.1,553.7,118,553.7,117.7L553.7,117.7z M539.4,117.7c-0.2-0.3,0-0.5,0.5-0.5
		c0.4,0,0.8,0.2,0.8,0.5c0,0.3-0.2,0.5-0.5,0.5C539.9,118.2,539.6,118,539.4,117.7L539.4,117.7z M-17.5,117.9
		c-0.3-0.4-0.4-0.7-0.1-0.7c0.5,0,1.2,0.9,0.9,1.2C-16.8,118.5-17.1,118.3-17.5,117.9z M676.1,118.9c0-0.1,0.2-0.3,0.5-0.5
		c0.3-0.2,0.5-0.1,0.5,0.2c0,0.3-0.2,0.5-0.5,0.5C676.3,119.2,676.1,119.1,676.1,118.9z M613.2,118.7c0-0.3-0.6-0.5-1.2-0.5
		c-0.7,0-1.1-0.2-1-0.4c0.3-0.5,3.2-0.1,3.2,0.4c0,0.2-0.2,0.5-0.5,0.7C613.4,119.1,613.2,119,613.2,118.7L613.2,118.7z
		 M724.9,119.2c0-0.5,1.2-1,2.3-1c0.6,0,0.5,0.2-0.4,0.7C725.4,119.7,724.9,119.8,724.9,119.2z M722.3,119.3
		c0.4-0.3,1.1-0.5,1.5-0.3c1,0.4,0.3,0.9-1.1,0.9C721.6,119.9,721.5,119.9,722.3,119.3L722.3,119.3z M976.9,122.1
		c-0.4-0.3-0.5-0.5-0.1-0.5c0.3,0,0.7,0.2,0.9,0.5C978,122.7,977.9,122.7,976.9,122.1z M960.1,122.3c0.2-0.2,1-0.4,1.9-0.5
		c2-0.2,1.5,0.3-0.6,0.6C960.5,122.5,959.9,122.5,960.1,122.3L960.1,122.3z M-5.8,122.2c0.5-0.1,1.3-0.1,1.9,0
		c0.6,0.1,0.2,0.2-0.8,0.2C-5.8,122.4-6.3,122.3-5.8,122.2L-5.8,122.2z M-13.9,121.3c-1-1.5-1-1.8,0.2-1.1c0.5,0.3,0.8,0.9,0.7,1.2
		c-0.2,0.4,0,0.5,0.5,0.3c0.4-0.2,0.8-0.2,0.8-0.1c0,0.1-0.3,0.4-0.7,0.5C-12.8,122.4-13.5,122-13.9,121.3L-13.9,121.3z M-29,122.3
		c0.2-0.2,0.6-0.2,0.9,0c0.4,0.2,0.3,0.3-0.3,0.3C-28.9,122.5-29.2,122.4-29,122.3L-29,122.3z M-46,121.6l-1.1-0.9l1.3-0.5
		c1.7-0.7,1.8-0.6,1.3,0.4c-0.2,0.5-0.3,1.1-0.2,1.5C-44.5,122.7-44.7,122.7-46,121.6L-46,121.6z M956.7,122.7
		c-0.8-0.3-0.8-1.1,0.1-1.1c0.4,0,0.8,0.3,1,0.7C958,123,957.8,123.1,956.7,122.7L956.7,122.7z M-22.1,123.1c-0.1-0.2,0-0.6,0.4-0.7
		c0.5-0.2,0.6,0,0.4,0.4C-21.6,123.6-21.8,123.7-22.1,123.1L-22.1,123.1z M1027.7,125.4c0-0.3,0.1-0.5,0.2-0.5
		c0.1,0,0.3,0.2,0.5,0.5c0.2,0.3,0.1,0.5-0.2,0.5C1027.9,125.9,1027.7,125.7,1027.7,125.4z M1034.5,130.8c0-0.6,2-1.1,2.6-0.7
		c0.3,0.2,0.1,0.5-0.4,0.7C1035.3,131.3,1034.5,131.3,1034.5,130.8L1034.5,130.8z M-98.6,154.5c-0.8-0.3-0.8-0.4-0.1-0.4
		c0.4,0,1,0.2,1.1,0.4C-97.3,155-97.3,155-98.6,154.5L-98.6,154.5z M-95,155.9c-0.4-0.3-0.5-0.5-0.1-0.5c0.3,0,0.7,0.2,0.9,0.5
		C-93.9,156.5-94,156.5-95,155.9L-95,155.9z M991.6,160c0.2-0.2,0.6-0.2,0.9,0c0.4,0.2,0.3,0.3-0.3,0.3
		C991.7,160.3,991.4,160.1,991.6,160L991.6,160z M996.8,160.2l-1.7-0.3l1.4-0.6c1.5-0.6,3.5-0.7,3.9-0.2
		C1000.7,159.9,998.5,160.5,996.8,160.2L996.8,160.2z M-82.4,169c-0.5-0.3,0-0.5,1.7-0.4c1.9,0,2.2,0.1,1.2,0.4
		C-81.2,169.5-81.5,169.5-82.4,169z M1002.1,171.7c0.7-0.3,1.6-0.5,2.2-0.6c1.7-0.1,7.7-1.8,8.2-2.2c0.6-0.6,2.2-0.6,2.2,0
		c0,0.2-0.4,0.5-0.8,0.7c-0.6,0.2-0.5,0.2,0.4,0.3c1.1,0.1,1.1,0.1,0.2,0.5c-0.5,0.2-1.8,0.4-2.9,0.4c-1.1,0-2.2,0.3-2.5,0.6
		c-0.3,0.3-2.3,0.6-4.3,0.7C1001.6,172.2,1001.1,172.2,1002.1,171.7L1002.1,171.7z M997.7,174.5c0-1.3,1.3-1.6,3.1-0.8
		c1.4,0.6,1.4,0.6,0.2,0.7c-0.7,0-1.5,0-1.9,0c-0.4-0.1-0.9,0.2-1.1,0.5C997.9,175.3,997.7,175.2,997.7,174.5L997.7,174.5z
		 M1017,183.2c0.3-0.1,0.9-0.1,1.2,0c0.3,0.1,0.1,0.2-0.6,0.2C1016.9,183.4,1016.6,183.3,1017,183.2z M1027.2,183.5
		c-1-0.3-1-0.4-0.2-0.4c0.5,0,1.5,0.2,2.2,0.4c1,0.3,1,0.4,0.2,0.4C1028.9,183.9,1027.9,183.7,1027.2,183.5z M-32.8,183.9
		c-0.2-0.3-0.6-0.4-1-0.3c-0.4,0.1-0.7,0-0.7-0.2c0-0.3,0.2-0.5,0.4-0.5c0.2,0,0.6-0.5,0.9-1.1c0.5-1,0.5-1,0.6-0.1
		c0,0.5,0.3,1.2,0.6,1.5c0.4,0.4,0.4,0.6,0,0.8C-32.3,184.3-32.6,184.2-32.8,183.9L-32.8,183.9z M1049.1,185.6
		c0.2-0.2,0.6-0.2,0.9,0c0.4,0.2,0.3,0.3-0.3,0.3C1049.3,185.9,1049,185.8,1049.1,185.6L1049.1,185.6z M1052.3,186.1
		c0.3-0.1,0.9-0.1,1.2,0c0.3,0.1,0.1,0.2-0.6,0.2C1052.2,186.3,1051.9,186.2,1052.3,186.1z M1024.8,189.5c-1.6-0.6-1.6-0.7-0.2-0.4
		c0.8,0.2,1.7,0.5,1.9,0.7C1027.1,190.4,1026.9,190.3,1024.8,189.5L1024.8,189.5z M1049.2,190c-1.6-0.3-4.1-0.6-5.6-0.6
		c-2.3,0-10.8-0.7-17.1-1.3c-1-0.1-2.1-0.4-2.4-0.8c-0.6-0.6,4.6-0.4,11.5,0.5c2.1,0.3,7.1,0.7,11.1,1c8.2,0.6,10.4,0.9,10.4,1.5
		C1057.2,190.9,1052.6,190.8,1049.2,190L1049.2,190z M-37.6,191.3c-0.4-0.7,0.9-1.1,1.7-0.5c0.4,0.2,0.5,0.4,0.4,0.4
		c-0.2,0-0.6,0.1-1,0.3C-37,191.7-37.4,191.6-37.6,191.3L-37.6,191.3z M-34.5,202.4c-1.1-0.4-1-0.4,0.5-0.4c0.9,0,2.2,0.2,2.9,0.4
		c1.1,0.4,1,0.4-0.5,0.4C-32.5,202.7-33.8,202.6-34.5,202.4z M-33.7,220.3c-0.4-0.6,0.6-1.2,1.2-0.8c0.5,0.3,0.2,1.2-0.5,1.2
		C-33.3,220.7-33.6,220.5-33.7,220.3z M-10.3,222.5c0-0.1,0.2-0.3,0.5-0.5c0.3-0.2,0.5-0.1,0.5,0.2c0,0.3-0.2,0.5-0.5,0.5
		C-10.1,222.7-10.3,222.6-10.3,222.5z M-34.5,223.7c0-0.2,0.5-0.7,1.2-1c0.9-0.4,1.2-0.4,1.1,0C-32.4,223.9-34.5,224.7-34.5,223.7
		L-34.5,223.7z M-4.7,225.6c0.2-0.3,0.7-0.5,1.1-0.5c0.7,0,0.7,0.1,0.1,0.5C-4.5,226.2-5.1,226.2-4.7,225.6L-4.7,225.6z
		 M1042.2,228.5c-0.9-0.6-0.1-0.6,1.2,0c0.6,0.3,0.7,0.4,0.2,0.4C1043.3,228.9,1042.6,228.7,1042.2,228.5L1042.2,228.5z
		 M1035.7,228.5c-0.2-0.3-0.1-0.6,0.2-0.7c0.3-0.2,0.6-0.1,0.7,0.2c0.2,0.3,0.1,0.6-0.2,0.7S1035.9,228.8,1035.7,228.5z M-6.4,229.7
		c-0.4-0.5-0.4-0.8-0.1-1c0.3-0.2,0.4-0.5,0.2-0.8c-0.2-0.2,0-0.5,0.2-0.5c0.7,0,0.7,0.8,0,1.2c-0.4,0.2-0.3,0.4,0.1,0.7
		c0.4,0.2,0.5,0.5,0.4,0.7C-5.7,230.3-6.1,230.1-6.4,229.7L-6.4,229.7z M986.1,232.3c0.9-0.6,1.6-0.6,1.2,0
		c-0.2,0.3-0.7,0.5-1.1,0.5C985.5,232.8,985.5,232.7,986.1,232.3L986.1,232.3z M968.9,232.3c0.6-0.4,1-0.4,1.4,0
		c0.4,0.4,0.1,0.5-0.9,0.5C968.2,232.8,968.1,232.7,968.9,232.3L968.9,232.3z M990.7,232.8c0.2-0.3-0.3-0.5-1.3-0.5
		c-1.3,0-1.4-0.1-0.9-0.5c0.5-0.4-0.7-0.5-4.4-0.3c-2.8,0.1-4.7,0.1-4.2,0c0.5-0.1,0.8-0.4,0.8-0.7c0-0.4,1.7-0.4,5.4-0.2
		c9.2,0.6,17.4,2.1,10.9,2c-1.4,0-3.5,0.1-4.6,0.3C991.1,233.2,990.5,233.2,990.7,232.8L990.7,232.8z M978.7,233
		c0.3-0.1,0.9-0.1,1.2,0c0.3,0.1,0.1,0.2-0.6,0.2C978.7,233.2,978.4,233.1,978.7,233z M-5.8,233c0.2-0.2,0.6-0.2,0.9,0
		c0.4,0.2,0.3,0.3-0.3,0.3C-5.7,233.3-6,233.2-5.8,233L-5.8,233z M-11.8,233.6c0-0.1,0.7-0.3,1.5-0.4c0.8-0.1,1.5,0,1.5,0.2
		s-0.7,0.4-1.5,0.4C-11.1,233.8-11.8,233.7-11.8,233.6z M966.3,233.8c0-0.2,1-0.4,2.3-0.4s2.2,0.1,2.1,0.2
		C970.2,234,966.3,234.2,966.3,233.8z M-21.9,233.7l-2.2-0.3l2.7-0.1c5-0.3,5.3-0.3,5.3,0.1C-16.1,233.9-19.4,234.1-21.9,233.7
		L-21.9,233.7z M974,234.2c-0.9-0.5,2.6-0.5,4.4,0c0.9,0.3,0.6,0.4-1.3,0.4C975.8,234.7,974.4,234.5,974,234.2L974,234.2z M-9,235.9
		c-0.2-0.2-1.3-0.3-2.4-0.2c-1.1,0.1-1.9,0-1.7-0.2c0.5-0.5,3.9-0.6,4.5-0.2c0.3,0.2,1.1,0.4,1.9,0.6c1.4,0.2,1.4,0.2-0.3,0.3
		C-7.9,236.2-8.9,236.1-9,235.9L-9,235.9z M971.6,236.2c-0.6-0.4-0.4-0.5,0.8-0.5c0.8,0,2.2-0.1,3.1-0.3c1.2-0.2,1.5-0.2,1.1,0.2
		C976,236.4,972.5,236.8,971.6,236.2z M-16.1,236.5c0-0.1,0.3-0.3,0.8-0.5c0.4-0.2,0.6-0.1,0.5,0.2
		C-15.2,236.7-16.1,236.9-16.1,236.5z M-32.7,235.9c-0.2-0.5,1-0.6,5.4-0.6c6.5,0,10.7,0.4,10.7,1c0,0.2-3.6,0.4-8,0.4
		C-30.6,236.6-32.6,236.4-32.7,235.9z M967.1,236.5c0.2-0.4,0.7-0.7,1.3-0.7c0.9,0,0.9-0.1,0.3-0.5c-0.6-0.5-0.6-0.5,0-0.3
		c0.4,0.1,0.7,0.5,0.6,0.8c-0.1,0.4,0.2,0.5,0.7,0.3c0.8-0.3,0.7-0.2-0.1,0.4C968.7,237.4,966.7,237.4,967.1,236.5L967.1,236.5z
		 M-8.5,238.3c0.3-0.1,0.9-0.1,1.2,0c0.3,0.1,0.1,0.2-0.6,0.2C-8.6,238.6-8.8,238.4-8.5,238.3z M-11.1,238.3c0.2-0.2,0.6-0.2,0.9,0
		c0.4,0.2,0.3,0.3-0.3,0.3C-11,238.6-11.3,238.5-11.1,238.3L-11.1,238.3z M-13.6,238.3c0.2-0.2,0.6-0.2,0.9,0
		c0.4,0.2,0.3,0.3-0.3,0.3C-13.4,238.6-13.7,238.5-13.6,238.3L-13.6,238.3z M990.2,238.6c0.2-0.3,0.5-0.5,0.8-0.5
		c0.3,0,1.1-0.4,1.8-1c1.9-1.3,8.1-1.5,6.7-0.2c-0.5,0.5-2.8,0.6-2.5,0.1c0.2-0.2-0.4-0.4-1.2-0.4c-0.9,0-1.5,0.2-1.5,0.7
		c0,0.4-0.7,0.9-1.5,1.2C990.9,239.2,989.8,239.3,990.2,238.6L990.2,238.6z M972.8,240.6c-0.1-0.2,0.2-0.3,0.7-0.2
		c1.1,0.3,1.3,0.6,0.3,0.6C973.4,241,973,240.9,972.8,240.6L972.8,240.6z M-31.4,240.6c-1.8-0.3-1.6-0.4,1.9-0.8
		c4.5-0.5,16.4-0.7,15.6-0.2c-0.3,0.2-3.4,0.4-6.8,0.6c-3.4,0.2-6.8,0.4-7.5,0.5C-28.9,240.9-30.3,240.8-31.4,240.6L-31.4,240.6z
		 M-39.2,241.2c0.2-0.2,0.6-0.2,0.9,0c0.4,0.2,0.3,0.3-0.3,0.3C-39.1,241.5-39.4,241.4-39.2,241.2L-39.2,241.2z M-35.9,241.5
		c-1.1-0.3-1-0.4,0.6-0.3c1,0,1.7,0.2,1.5,0.4C-34.1,242.1-34.3,242.1-35.9,241.5z M1004.5,242.5c0-0.3,0.2-0.5,0.5-0.5
		c0.3,0,0.5,0.2,0.5,0.5c0,0.3-0.2,0.5-0.5,0.5C1004.7,243,1004.5,242.8,1004.5,242.5z M969.3,243.7c0.2-0.2,0.6-0.2,0.9,0
		c0.4,0.2,0.3,0.3-0.3,0.3C969.4,243.9,969.2,243.8,969.3,243.7L969.3,243.7z M987.8,247.3c0.5-0.2,1.3-0.4,1.7-0.4
		c0.5,0,0.4,0.2-0.2,0.4c-0.5,0.2-1.3,0.4-1.7,0.4C987.1,247.8,987.2,247.6,987.8,247.3z M1001.1,247.8c0-0.3,0.5-0.4,1.3-0.2
		c1.9,0.5,2,0.7,0.2,0.7C1001.8,248.3,1001.1,248.1,1001.1,247.8L1001.1,247.8z M997.5,247.8c0.2-0.3,0.7-0.5,1.1-0.5
		c0.7,0,0.7,0.1,0.1,0.5C997.7,248.4,997.1,248.4,997.5,247.8L997.5,247.8z M993.6,247.8c0.2-0.3,0.7-0.5,1.1-0.5
		c0.7,0,0.7,0.1,0.1,0.5C993.9,248.4,993.2,248.4,993.6,247.8L993.6,247.8z M981.5,248.8c0.2-0.3,0.9-0.5,1.6-0.4
		c1.2,0,1.2,0.1,0.3,0.4C982.1,249.4,981.2,249.4,981.5,248.8z M989.2,249.5c0.2-0.2,0.6-0.2,0.9,0c0.4,0.2,0.3,0.3-0.3,0.3
		C989.3,249.7,989,249.6,989.2,249.5L989.2,249.5z M977.5,249.9c0.2-0.2,0.6-0.2,0.9,0c0.4,0.2,0.3,0.3-0.3,0.3
		C977.7,250.2,977.4,250.1,977.5,249.9L977.5,249.9z M991.5,253.4c1.4-0.8,4.6-0.8,4.6,0c0,0.3-1.3,0.5-2.9,0.6
		C990.4,254.1,990.3,254.1,991.5,253.4L991.5,253.4z M995.3,257.3c-0.3-0.4-1.2-0.7-1.9-0.8l-1.3,0l1.2-0.4c0.7-0.2,1.5-0.1,1.8,0.1
		c0.4,0.3,1,0.3,1.8-0.1c1-0.5,1.3-0.5,1.9,0.1c1,1,1,1.4-0.2,1.1c-0.5-0.2-1.1-0.1-1.2,0.2C997,258.2,996,258.1,995.3,257.3
		L995.3,257.3z M999.2,259.6c0.4-0.1,0.9-0.4,1.2-0.7c0.6-0.6,2.2-0.6,2.2,0c0,0.3-0.3,0.5-0.7,0.5c-0.4,0-1.3,0.1-2.1,0.2
		C999.1,259.7,998.8,259.7,999.2,259.6L999.2,259.6z M-57.5,260.4c0.2-0.3,0.5-0.5,0.8-0.5c0.3,0,0.5,0.2,0.5,0.5
		c0,0.3-0.3,0.5-0.8,0.5C-57.4,260.9-57.6,260.7-57.5,260.4z M995.1,261.4c0.2-0.3,0.5-0.5,0.8-0.5c0.3,0,0.5,0.2,0.5,0.5
		c0,0.3-0.3,0.5-0.8,0.5S994.9,261.6,995.1,261.4z M982.5,261.4c-0.1-0.2,0.1-0.6,0.5-0.7c1-0.4,1.2-0.2,0.4,0.6
		C983.1,261.6,982.7,261.6,982.5,261.4L982.5,261.4z M994.5,265.2c0.5-0.3,0.7-0.7,0.6-1c-0.2-0.2,0.1-0.5,0.5-0.5
		c0.4,0,0.8,0.1,0.8,0.2c0,0.5-1.6,1.7-2.1,1.7C993.9,265.7,994,265.5,994.5,265.2L994.5,265.2z M992.1,265.9c0.2-0.2,0.6-0.2,0.9,0
		c0.4,0.2,0.3,0.3-0.3,0.3C992.2,266.2,991.9,266.1,992.1,265.9L992.1,265.9z M-70.6,267.4c0.2-0.2,0.6-0.2,0.9,0
		c0.4,0.2,0.3,0.3-0.3,0.3C-70.5,267.6-70.8,267.5-70.6,267.4L-70.6,267.4z M1000.9,271.8c0.5-0.4,1.5-0.7,2.1-0.7
		c1.2,0,1.2,0-0.2,0.7C1001,272.8,999.6,272.8,1000.9,271.8L1000.9,271.8z M993.3,273.6c0.3-0.1,0.9-0.1,1.2,0
		c0.3,0.1,0.1,0.2-0.6,0.2C993.2,273.9,992.9,273.8,993.3,273.6z M1000.4,276c0.3-0.2,0.8-0.8,1.1-1.3c0.5-1,0.5-1,0.6,0.1
		c0,0.6-0.3,1.2-0.8,1.3C1000.3,276.5,999.8,276.4,1000.4,276L1000.4,276z M996.9,277c0.2-0.2,0.6-0.2,0.9,0
		c0.4,0.2,0.3,0.3-0.3,0.3C997,277.3,996.7,277.2,996.9,277L996.9,277z M1026.7,283.7c0-0.2,0.8-0.3,1.7-0.2
		c0.9,0.1,1.7,0.3,1.7,0.4c0,0.1-0.8,0.2-1.7,0.2S1026.7,283.9,1026.7,283.7z M1033.9,284.3c0.3-0.1,1-0.1,1.5,0
		c0.5,0.1,0.2,0.2-0.6,0.2C1033.9,284.5,1033.5,284.4,1033.9,284.3L1033.9,284.3z M1040.4,286.2c0.2-0.2,0.6-0.2,0.9,0
		c0.4,0.2,0.3,0.3-0.3,0.3C1040.5,286.5,1040.3,286.4,1040.4,286.2L1040.4,286.2z M-69.3,286c0-0.3,0.1-0.5,0.2-0.5
		c0.1,0,0.3,0.2,0.5,0.5c0.2,0.3,0.1,0.5-0.2,0.5C-69.1,286.5-69.3,286.3-69.3,286z M-66.9,296.2c0-0.3,0.2-0.5,0.5-0.5
		c0.3,0,0.5,0.1,0.5,0.2c0,0.1-0.2,0.3-0.5,0.5C-66.7,296.6-66.9,296.5-66.9,296.2L-66.9,296.2z M-67.7,298.3c0.5-0.1,1.2-0.1,1.7,0
		c0.5,0.1,0.1,0.2-0.8,0.2C-67.8,298.5-68.2,298.4-67.7,298.3z M-76.4,310.9c0.2-0.2,0.6-0.2,0.9,0c0.4,0.2,0.3,0.3-0.3,0.3
		C-76.3,311.2-76.6,311.1-76.4,310.9L-76.4,310.9z M1051.9,319.9c0.6-0.4,0.6-0.5-0.2-0.5c-0.8,0-0.8-0.1-0.2-0.5
		c1-0.7,1.3-0.6,1.6,0.5c0.2,0.7,0,1-0.8,1C1051.4,320.4,1051.3,320.3,1051.9,319.9L1051.9,319.9z M840.4,321.3
		c0.4-0.4,0.9-0.4,1.9,0c1.4,0.5,1.4,0.5-0.5,0.5C840.4,321.8,840,321.7,840.4,321.3L840.4,321.3z M838.8,321.3
		c-0.2-0.3-0.1-0.5,0.2-0.5c0.3,0,0.5,0.2,0.5,0.5c0,0.3-0.1,0.5-0.2,0.5C839.2,321.8,839,321.6,838.8,321.3z M842.1,322.5
		c0.5-0.1,1.2-0.1,1.7,0c0.5,0.1,0.1,0.2-0.8,0.2C842,322.7,841.6,322.6,842.1,322.5z M434.6,323c0.3-0.1,0.9-0.1,1.2,0
		c0.3,0.1,0.1,0.2-0.6,0.2C434.5,323.2,434.2,323.1,434.6,323L434.6,323z M572.7,324c0.2-0.2,0.6-0.2,0.9,0c0.4,0.2,0.3,0.3-0.3,0.3
		C572.8,324.2,572.5,324.1,572.7,324L572.7,324z M546.8,323.9c0.3-0.1,0.9-0.1,1.2,0c0.3,0.1,0.1,0.2-0.6,0.2
		C546.7,324.2,546.5,324.1,546.8,323.9z M725.2,324.3c-0.1-0.2,0.2-0.4,0.7-0.4c1.1-0.1,1.2,0.1,0.2,0.5
		C725.8,324.6,725.3,324.5,725.2,324.3L725.2,324.3z M722.9,324.1c0.5-0.5,0.7-0.5,1.2,0c0.5,0.5,0.3,0.6-0.6,0.6
		S722.4,324.6,722.9,324.1L722.9,324.1z M643.2,324.3c0-0.3,0.2-0.6,0.5-0.8c0.3-0.2,0.4,0,0.2,0.5
		C643.5,324.8,643.2,325,643.2,324.3L643.2,324.3z M244.1,324.7c0-0.6,1-0.6,1.9,0c0.6,0.4,0.4,0.5-0.6,0.5
		C244.7,325.2,244.1,325,244.1,324.7z M94.7,112.8c0-0.3-0.2-0.4-0.5-0.2c-0.3,0.2-0.5,0.4-0.5,0.5c0,0.1,0.2,0.2,0.5,0.2
		C94.4,113.4,94.7,113.1,94.7,112.8z M144.3,114c-0.5-0.1-1.1-0.1-1.5,0c-0.3,0.1,0.1,0.2,0.9,0.2
		C144.5,114.2,144.8,114.1,144.3,114L144.3,114z M135.3,113.8c-0.9-0.6-1.6-0.6-1.2,0c0.2,0.3,0.7,0.5,1.1,0.5
		C135.9,114.3,135.9,114.2,135.3,113.8L135.3,113.8z M180.8,114.6c0-0.1-0.3-0.3-0.7-0.5c-0.4-0.2-0.7-0.1-0.7,0.2
		c0,0.3,0.3,0.5,0.7,0.5C180.4,114.8,180.8,114.7,180.8,114.6z M132.1,114.1c0-0.3-0.4-0.5-1-0.6c-1-0.1-1-0.1,0,0.3
		c0.9,0.4,0.9,0.4-0.2,0.7l-1.2,0.3l1.2-0.1C131.6,114.6,132.1,114.3,132.1,114.1L132.1,114.1z M118.4,114.6c0-0.1-0.3-0.3-0.8-0.5
		c-0.4-0.2-0.6-0.1-0.5,0.2C117.4,114.8,118.4,115,118.4,114.6L118.4,114.6z M115,114c0-0.1-0.2-0.2-0.5-0.2c-0.3,0-0.5,0.2-0.5,0.5
		c0,0.3,0.2,0.4,0.5,0.2C114.8,114.4,115,114.2,115,114L115,114z M170.7,114.7c-0.5-0.5-0.7-0.5-1.2,0c-0.5,0.5-0.3,0.6,0.6,0.6
		C171,115.3,171.1,115.2,170.7,114.7L170.7,114.7z M164.9,115c-0.3-0.1-0.8-0.1-0.9,0c-0.2,0.2,0.1,0.3,0.6,0.3
		C165.2,115.2,165.3,115.1,164.9,115L164.9,115z M124.4,114.7c-0.2-0.4,0-0.5,0.7-0.3c0.7,0.2,1.1,0,1.2-0.6c0.1-0.5,0-0.9-0.2-0.9
		c-0.2,0-0.4,0.2-0.4,0.4c0,0.5-0.4,0.6-4,0.7c-1.5,0.1-2.8,0.3-2.8,0.5c0,0.2,1,0.3,2.1,0.2c1.2-0.1,2.4-0.1,2.8,0.2
		C124.6,115.4,124.8,115.4,124.4,114.7L124.4,114.7z M215.9,115.4c-0.3-0.3-4.7-0.2-5.1,0.1c-0.1,0.1,1.1,0.2,2.6,0.2
		C215,115.8,216.1,115.6,215.9,115.4z M204.9,115c0-0.1-0.2-0.2-0.5-0.2c-0.3,0-0.5,0.2-0.5,0.5c0,0.3,0.2,0.4,0.5,0.2
		C204.7,115.4,204.9,115.1,204.9,115L204.9,115z M192,115.4c-0.3-0.1-0.9-0.1-1.2,0c-0.3,0.1-0.1,0.2,0.6,0.2
		C192.1,115.7,192.3,115.6,192,115.4z M189.7,115.4c0.1-0.2-0.1-0.4-0.4-0.4c-0.4,0-0.6,0.2-0.4,0.4c0.1,0.2,0.3,0.4,0.4,0.4
		C189.3,115.8,189.5,115.6,189.7,115.4z M26.6,115.4c-0.3-0.1-0.9-0.1-1.2,0c-0.3,0.1-0.1,0.2,0.6,0.2
		C26.6,115.7,26.9,115.6,26.6,115.4z M245.1,115.5c0-0.1-0.2-0.2-0.5-0.2c-0.3,0-0.5,0.2-0.5,0.5c0,0.3,0.2,0.4,0.5,0.2
		C244.9,115.8,245.1,115.6,245.1,115.5z M236.4,116.3c0-0.3-0.2-0.5-0.5-0.5c-0.3,0-0.4,0.2-0.2,0.5c0.2,0.3,0.4,0.5,0.5,0.5
		C236.3,116.7,236.4,116.5,236.4,116.3L236.4,116.3z M464,116.8c-0.2-0.3-0.6-0.3-1-0.2c-1,0.4-0.9,0.7,0.3,0.7
		C463.8,117.2,464.1,117,464,116.8z M240.9,116.2c-0.1-0.2-0.5-0.3-0.7-0.2c-0.2,0.1-0.6-0.2-0.7-0.7c-0.2-0.5-0.5-0.9-0.8-0.7
		c-0.3,0.2-0.3,0.5-0.2,0.7c0.2,0.2-0.1,0.6-0.6,0.8c-0.8,0.3-0.8,0.3,0.1,0.6C239.2,117.1,241.3,116.8,240.9,116.2L240.9,116.2z
		 M229.4,116.7c-0.2-0.3-0.5-0.5-0.8-0.5c-0.3,0-0.5,0.2-0.5,0.5c0,0.3,0.3,0.5,0.8,0.5C229.3,117.2,229.5,117,229.4,116.7z
		 M227.1,116c-0.5-0.5-1.4,0.3-1,0.8c0.2,0.3,0.5,0.3,0.8,0C227.1,116.5,227.2,116.1,227.1,116L227.1,116z M461.3,116.7
		c0-0.6-3.7-0.6-4.1,0c-0.2,0.3,0,0.4,0.4,0.2c0.4-0.1,1.2-0.1,1.8,0.2C460.6,117.6,461.3,117.5,461.3,116.7L461.3,116.7z
		 M402.3,117.2c0-0.3-0.3-0.3-0.7-0.2c-0.4,0.2-0.7,0.4-0.7,0.5c0,0.1,0.3,0.2,0.7,0.2C402,117.7,402.3,117.5,402.3,117.2z
		 M283.9,117.1c0.7-0.5,0.4-0.6-1.7-0.7c-2.1,0-2.3,0-1,0.4c1.4,0.4,1.4,0.4-0.4,0.3c-1-0.1-1.8,0.1-1.8,0.3
		C278.9,117.9,283,117.7,283.9,117.1z M271.2,117.3c0-0.2-0.4-0.3-1-0.2c-0.5,0.1-1,0.3-1,0.4c0,0.1,0.4,0.2,1,0.2
		C270.8,117.7,271.2,117.5,271.2,117.3z M264.9,117.2c-0.6-0.4-0.6-0.5,0.2-0.5c0.5,0,0.8-0.1,0.6-0.3c-0.2-0.2-0.7-0.1-1.3,0
		c-1.1,0.4-0.9,1.2,0.4,1.2C265.5,117.7,265.5,117.6,264.9,117.2L264.9,117.2z M261.8,117.1c0.1-0.1-0.3-0.4-1-0.5
		c-0.7-0.1-1.1,0-1,0.2c0.1,0.2-0.4,0.3-1.2,0.1c-0.8-0.2-1.5-0.1-1.7,0.2C256.7,117.6,261.3,117.6,261.8,117.1L261.8,117.1z
		 M254.9,117c-0.2-0.4-0.5-0.7-0.7-0.7c-0.3,0-0.3,0.3-0.1,0.6c0.2,0.4,0.1,0.5-0.5,0.3c-0.4-0.2-0.8-0.1-0.8,0.2
		c0,0.3,0.5,0.5,1.2,0.5C254.9,117.7,255.1,117.5,254.9,117L254.9,117z M248.5,117.5c0-0.1-0.5-0.5-1-0.8c-0.6-0.3-0.9-0.4-0.7,0
		c0.2,0.3-0.3,0.6-1.3,0.7c-1.2,0.2-1.1,0.2,0.7,0.3C247.4,117.7,248.5,117.6,248.5,117.5L248.5,117.5z M388.7,117.4
		c0-0.1-0.4-0.2-1-0.2c-0.5,0-1,0.2-1,0.4c0,0.2,0.4,0.3,1,0.2C388.3,117.7,388.7,117.5,388.7,117.4L388.7,117.4z M339,117.9
		c-0.3-0.1-0.8-0.1-0.9,0c-0.2,0.2,0.1,0.3,0.6,0.3C339.3,118.1,339.4,118,339,117.9L339,117.9z M286.9,117.7
		c-0.2-0.3-0.7-0.5-1.1-0.5c-0.7,0-0.7,0.1-0.1,0.5C286.7,118.3,287.3,118.3,286.9,117.7L286.9,117.7z M276,117.5
		c1.4-0.8,1.1-0.9-0.7-0.3c-0.8,0.3-1.2,0.3-1.2,0c0-0.3-0.2-0.5-0.5-0.5c-0.4,0-0.4,0.2,0.1,0.7C274.4,118.3,274.5,118.3,276,117.5
		L276,117.5z M18.3,117.9c-0.3-0.1-0.8-0.1-0.9,0c-0.2,0.2,0.1,0.3,0.6,0.3C18.6,118.1,18.7,118,18.3,117.9L18.3,117.9z
		 M496.8,118.4c1.2-0.5,0.9-1.2-0.6-1.1c-0.7,0-1.1,0.1-0.7,0.3c0.3,0.1,0.5,0.4,0.3,0.7C495.5,118.7,495.8,118.8,496.8,118.4z
		 M347.7,118.3c-0.3-0.1-0.8-0.1-0.9,0c-0.2,0.2,0.1,0.3,0.6,0.3C348,118.6,348.1,118.5,347.7,118.3L347.7,118.3z M329.1,118.3
		c-0.2-0.2-0.9-0.4-1.7-0.5c-1.1-0.1-1.2-0.1-0.3,0.3C328.3,118.7,329.5,118.8,329.1,118.3z M321.2,118.2c-0.8-0.8-8.5-1-9.8-0.3
		c-1,0.5-0.4,0.6,4.5,0.7C319.3,118.6,321.5,118.4,321.2,118.2L321.2,118.2z M309.9,117.9c0-0.5-0.6-0.7-2-0.7
		c-1.6,0-1.9,0.1-1.5,0.7C307.2,118.8,309.9,118.8,309.9,117.9L309.9,117.9z M305.5,118.1c0-0.5-1.9-0.9-2.2-0.5
		c-0.1,0.2-0.1,0.5,0,0.6C303.7,118.6,305.5,118.5,305.5,118.1L305.5,118.1z M382,118.7c0-0.2-0.6-0.5-1.4-0.6
		c-0.9-0.1-1.3,0-1.2,0.3C379.6,119.1,382,119.3,382,118.7z M373.9,118.8c-0.3-0.1-0.9-0.1-1.2,0c-0.3,0.1-0.1,0.2,0.6,0.2
		C373.9,119.1,374.2,119,373.9,118.8L373.9,118.8z M359.1,118.6c-0.9-0.6-3.9-0.5-3.5,0.1c0.2,0.3,1.2,0.4,2.2,0.4
		C359,119,359.5,118.8,359.1,118.6z M351.9,118.7c0.5-0.3,0.4-0.5-0.5-0.6c-1.4-0.3-2.4,0-2.1,0.6
		C349.7,119.3,351,119.3,351.9,118.7L351.9,118.7z M346.2,118.6c0-0.6-0.8-0.8-1.8-0.6c-0.6,0.2-1,0.4-0.9,0.6
		C343.7,119,346.2,119,346.2,118.6L346.2,118.6z M342.3,119c0-0.1-0.4-0.3-1-0.4c-0.5-0.1-1-0.1-1,0.2c0,0.2,0.4,0.4,1,0.4
		S342.3,119.1,342.3,119L342.3,119z M24.4,118.7c2.5,0,1.3-0.8-1.8-1.1c-2.4-0.3-2.5-0.2-1.7,0.4c0.9,0.7,0.9,0.7-0.2,0.4
		c-0.7-0.2-1.1-0.1-1.1,0.3c0,0.4,0.5,0.5,1.5,0.3C22,118.8,23.5,118.7,24.4,118.7L24.4,118.7z M550.9,119.3c-0.3-0.1-0.9-0.1-1.2,0
		c-0.3,0.1-0.1,0.2,0.6,0.2C551,119.6,551.2,119.5,550.9,119.3L550.9,119.3z M527.7,119.3c-0.3-0.1-0.8-0.1-0.9,0
		c-0.2,0.2,0.1,0.3,0.6,0.3C527.9,119.6,528,119.5,527.7,119.3L527.7,119.3z M425.1,119.3c-0.3-0.1-0.8-0.1-0.9,0
		c-0.2,0.2,0.1,0.3,0.6,0.3C425.4,119.6,425.5,119.5,425.1,119.3L425.1,119.3z M422.5,119.3c-0.5-0.1-1.1-0.1-1.5,0
		c-0.3,0.1,0.1,0.2,0.9,0.2C422.7,119.5,422.9,119.4,422.5,119.3L422.5,119.3z M411.6,119.3c-0.3-0.1-0.9-0.1-1.2,0
		c-0.3,0.1-0.1,0.2,0.6,0.2C411.7,119.6,411.9,119.5,411.6,119.3L411.6,119.3z M407.6,119.2c0-0.3-0.2-0.5-0.5-0.5
		c-0.3,0-0.6,0.2-0.8,0.5c-0.2,0.3,0,0.5,0.5,0.5C407.3,119.6,407.6,119.4,407.6,119.2z M390.7,118.9c0-0.1-0.4-0.2-1-0.2
		s-1,0.2-1,0.4c0,0.2,0.4,0.3,1,0.2C390.2,119.2,390.7,119,390.7,118.9z M378.8,119.2c-0.2-0.3-0.6-0.5-0.9-0.5
		c-0.3,0-0.3,0.2,0.1,0.5C379,119.8,379.2,119.8,378.8,119.2L378.8,119.2z M371.6,119.2c-0.2-0.3-0.6-0.5-1-0.5
		c-0.4,0-0.6,0.2-0.4,0.5c0.2,0.3,0.6,0.5,1,0.5C371.5,119.6,371.7,119.4,371.6,119.2z M368.2,119.1c-0.2-0.3-0.5-0.4-0.8-0.2
		c-0.7,0.4-0.5,0.7,0.3,0.7C368.1,119.6,368.4,119.4,368.2,119.1L368.2,119.1z M14,118.7c0.5-0.5,0.2-0.6-1.1-0.5
		c-1,0.1-1.7,0.4-1.7,0.6C11.1,119.6,13.3,119.5,14,118.7L14,118.7z M442.9,119.7c-0.4-0.2-1.7-0.2-2.9,0l-2.2,0.4l2.9,0
		C442.6,120.1,443.4,119.9,442.9,119.7L442.9,119.7z M431.1,119.6c-0.2-0.3-0.5-0.4-0.8-0.2c-0.7,0.4-0.5,0.7,0.3,0.7
		C431,120.1,431.2,119.9,431.1,119.6L431.1,119.6z M404.7,119.4c0-0.4-0.4-0.7-0.8-0.7c-0.6,0-0.7,0.1-0.2,0.7
		c0.3,0.4,0.7,0.7,0.8,0.7C404.6,120.1,404.7,119.8,404.7,119.4z M398.2,119.6c-0.2-0.3,0.4-0.5,1.7-0.4c1.1,0.1,2.2-0.1,2.5-0.4
		c0.3-0.3-0.7-0.5-2.9-0.5c-2.7,0-3.3,0.1-2.6,0.6c0.6,0.4,0.6,0.6,0.2,0.8c-0.3,0.1-0.1,0.3,0.5,0.3
		C398,120.1,398.3,119.9,398.2,119.6L398.2,119.6z M9,119c0-0.3-0.6-0.4-1.5-0.2c-0.8,0.2-1.8,0.3-2.1,0.4c-0.3,0,0,0.2,0.7,0.4
		C7.6,120,9,119.7,9,119L9,119z M434.7,120.2c0-0.2-0.4-0.3-1-0.2c-0.5,0.1-1,0.3-1,0.4c0,0.1,0.4,0.2,1,0.2
		C434.3,120.6,434.7,120.4,434.7,120.2L434.7,120.2z M461.9,120.8c-0.3-0.1-0.8-0.1-0.9,0c-0.2,0.2,0.1,0.3,0.6,0.3
		C462.1,121,462.3,120.9,461.9,120.8L461.9,120.8z M26.5,121.1c-0.6-0.4-0.6-0.5,0.2-0.4c2.2,0.2,6.2-0.1,5.9-0.3
		c-0.8-0.8-9.6-0.9-11.5-0.2c-0.3,0.1,4.3,1.3,5.3,1.4C27.1,121.6,27.1,121.5,26.5,121.1L26.5,121.1z M16.4,124.6
		c-0.3-0.1-0.8-0.1-0.9,0c-0.2,0.2,0.1,0.3,0.6,0.3C16.7,124.9,16.8,124.8,16.4,124.6L16.4,124.6z M13.4,124.5
		c0-0.3-0.2-0.5-0.5-0.5c-0.3,0-0.4,0.2-0.2,0.5c0.2,0.3,0.4,0.5,0.5,0.5C13.3,125,13.4,124.7,13.4,124.5L13.4,124.5z M991.5,125.1
		c-0.3-0.1-0.8-0.1-0.9,0c-0.2,0.2,0.1,0.3,0.6,0.3C991.8,125.4,991.9,125.3,991.5,125.1L991.5,125.1z M1038.4,125.4
		c-0.9-0.6-1.5-0.6-1.5,0c0,0.3,0.5,0.5,1.1,0.5C1038.9,125.9,1038.9,125.8,1038.4,125.4z M1036.9,126.7c0-0.1-0.3-0.3-0.7-0.5
		c-0.4-0.2-0.7-0.1-0.7,0.2c0,0.3,0.3,0.5,0.7,0.5C1036.6,126.9,1036.9,126.8,1036.9,126.7z M994.8,126.4c0-0.3-0.2-0.5-0.5-0.5
		c-0.4,0-0.3-0.2,0.1-0.7c0.5-0.6,0.5-0.7-0.1-0.4c-0.9,0.3-0.9,2.1,0,2.1C994.5,126.9,994.8,126.7,994.8,126.4L994.8,126.4z
		 M1010.4,127c-0.3-0.1-0.8-0.1-0.9,0c-0.2,0.2,0.1,0.3,0.6,0.3C1010.7,127.3,1010.8,127.2,1010.4,127L1010.4,127z M1019.5,127.4
		c0-0.3-0.2-0.5-0.5-0.5c-0.3,0-0.5,0.2-0.5,0.5c0,0.3,0.2,0.5,0.5,0.5C1019.3,127.9,1019.5,127.6,1019.5,127.4z M12.8,128
		c-0.5-0.1-1.1-0.1-1.5,0c-0.3,0.1,0.1,0.2,0.9,0.2C13,128.2,13.2,128.1,12.8,128L12.8,128z M1034.5,128.1c0-0.1-0.2-0.2-0.5-0.2
		c-0.3,0-0.5,0.2-0.5,0.5c0,0.3,0.2,0.4,0.5,0.2C1034.3,128.4,1034.5,128.2,1034.5,128.1L1034.5,128.1z M7.5,128.5
		c-0.5-0.1-1.1-0.1-1.5,0c-0.3,0.1,0.1,0.2,0.9,0.2C7.7,128.7,7.9,128.6,7.5,128.5L7.5,128.5z M1023.7,130.4c-0.5-0.1-1.1-0.1-1.5,0
		c-0.3,0.1,0.1,0.2,0.9,0.2C1023.9,130.7,1024.2,130.6,1023.7,130.4L1023.7,130.4z M-95,130.8c0-0.3-0.2-0.5-0.5-0.5
		c-0.3,0-0.4,0.2-0.2,0.5c0.2,0.3,0.4,0.5,0.5,0.5C-95.1,131.2-95,131-95,130.8z M1033,132.7c0.6-0.4,0.6-0.5,0-0.4
		c-0.4,0-1.3,0.2-1.9,0.4l-1.2,0.4l1.2,0C1031.8,133.1,1032.6,133,1033,132.7L1033,132.7z M-32.9,133.8c-0.3-0.1-0.9-0.1-1.2,0
		c-0.3,0.1-0.1,0.2,0.6,0.2C-32.9,134.1-32.6,134-32.9,133.8z M1035.4,134.9c-0.3-0.3-0.6-0.3-1,0c-0.3,0.3-0.1,0.5,0.5,0.5
		S1035.8,135.2,1035.4,134.9z M1032.3,136.2c0.1-0.2-0.1-0.4-0.4-0.4c-0.4,0-0.6,0.2-0.4,0.4c0.1,0.2,0.3,0.4,0.4,0.4
		C1031.9,136.6,1032.1,136.4,1032.3,136.2z M1039.4,138.2c-0.3-0.1-0.8-0.1-0.9,0c-0.2,0.2,0.1,0.3,0.6,0.3
		C1039.7,138.4,1039.8,138.3,1039.4,138.2L1039.4,138.2z M1024.8,140.8c0-0.6-0.2-0.9-0.3-0.7c-0.5,0.5-0.6,1.8-0.1,1.8
		C1024.6,141.9,1024.8,141.4,1024.8,140.8L1024.8,140.8z M1037,143.8c0.5-0.3,0.9-0.8,0.7-1.2c-0.1-0.4,0-0.8,0.3-0.9
		c0.3-0.1-0.1-0.1-0.9,0c-2.1,0.4-3.8,1.6-3.1,2.1C1035,144.4,1035.8,144.4,1037,143.8L1037,143.8z M1025,143.8
		c-0.3-0.5-1.2-0.1-1.2,0.6c0,0.2,0.3,0.3,0.7,0.2C1025,144.3,1025.2,144,1025,143.8L1025,143.8z M1007.4,154.5
		c0.6-0.4,0.6-0.5-0.1-0.5c-0.4,0-1,0.2-1.1,0.5C1005.8,155.1,1006.5,155.1,1007.4,154.5L1007.4,154.5z M919.3,157.3
		c0.5-0.5,0.6-0.5,0.6,0c0,0.8,1.2,0.7,1.9-0.2c0.9-1.1,0.4-1.3-2.1-0.5c-1.6,0.5-2.2,0.5-2.1,0.1c0.1-0.3-0.2-0.6-0.6-0.6
		c-0.4,0-0.8,0.4-0.9,0.8c-0.1,0.6,0.2,0.8,1.2,0.8C918.1,157.9,919,157.6,919.3,157.3L919.3,157.3z M936.4,158
		c-0.9-0.1-2.3-0.1-3.1,0c-0.9,0.1-0.2,0.2,1.6,0.2S937.3,158.1,936.4,158z M953.5,158.3c-0.2-0.3-0.8-0.5-1.4-0.4c-1,0-1,0-0.1,0.4
		C953.3,158.9,953.8,158.9,953.5,158.3L953.5,158.3z M950.6,158.3c0.2-0.3,0.1-0.5-0.2-0.5c-0.3,0-0.6,0.2-0.8,0.5
		c-0.2,0.3-0.1,0.5,0.2,0.5C950,158.8,950.4,158.6,950.6,158.3L950.6,158.3z M941.3,158c0.6-0.2,0.8-0.1,0.6,0.2
		c-0.3,0.5,1.5,0.7,3.5,0.2l1.2-0.3l-1.2-0.4c-1.8-0.5-5.8-0.5-5.8,0c0,0.2-0.3,0.5-0.6,0.7C938.2,158.8,940.2,158.3,941.3,158
		L941.3,158z M951.9,159.4c-0.6-0.1-1.6-0.1-2.2,0c-0.6,0.1-0.1,0.2,1.1,0.2C952,159.7,952.5,159.6,951.9,159.4z M931.3,158.9
		c0.3-0.8-2.2-1.7-3.7-1.3l-1.2,0.3l1.2-0.8c1.2-0.7,1.1-0.7-1.5-0.5c-2.5,0.3-4.6,1.2-2.7,1.2c0.5,0,0.7,0.2,0.5,0.6
		c-0.2,0.4,0.1,0.5,1.2,0.2c0.9-0.2,1.4-0.1,1.3,0.1c-0.1,0.2,0.9,0.3,2.2,0.3c1.7-0.1,2.3,0,1.8,0.4c-0.6,0.4-0.6,0.5,0,0.3
		C930.8,159.6,931.2,159.2,931.3,158.9L931.3,158.9z M923,159.3c-0.2-0.3-0.5-0.5-0.8-0.5c-0.3,0-0.3,0.2-0.2,0.5
		c0.2,0.3,0.5,0.5,0.8,0.5C923.1,159.8,923.2,159.6,923,159.3L923,159.3z M924.3,161.4c-0.3-0.1-0.8-0.1-0.9,0
		c-0.2,0.2,0.1,0.3,0.6,0.3C924.6,161.7,924.7,161.5,924.3,161.4L924.3,161.4z M978.5,162.4c-0.3-0.1-0.8-0.1-0.9,0
		c-0.2,0.2,0.1,0.3,0.6,0.3C978.7,162.6,978.9,162.5,978.5,162.4L978.5,162.4z M939,164.6c0.4-0.6-0.6-0.6-1.9,0
		c-0.9,0.4-0.8,0.4,0.3,0.4C938.1,165.1,938.8,164.9,939,164.6z M927.5,164.8c-0.5-0.1-1.2-0.1-1.7,0c-0.5,0.1-0.1,0.2,0.8,0.2
		C927.6,165,927.9,164.9,927.5,164.8z M966.8,168c-0.6-0.4-0.4-0.5,0.9-0.3c1,0.1,1.4,0,1.1-0.3c-0.3-0.3-1.7-0.3-3.8-0.1l-3.3,0.4
		l2.2,0.3C967.5,168.6,967.6,168.6,966.8,168L966.8,168z M985.4,169.5c0.2-0.3,0.1-0.5-0.2-0.5c-0.3,0-0.6,0.2-0.8,0.5
		c-0.2,0.3-0.1,0.5,0.2,0.5C984.9,169.9,985.2,169.7,985.4,169.5L985.4,169.5z M994.1,174.4c-0.1-0.1-0.5,0-0.9,0.3
		c-0.5,0.5-0.4,0.5,0.3,0.3C994,174.8,994.3,174.5,994.1,174.4L994.1,174.4z M990.2,174.7c-0.1-0.2,0.2-0.5,0.6-0.6
		c0.5-0.1-0.3-0.1-1.8,0c-3.8,0.4-4.7,1.1-1.4,1C989.2,175.1,990.3,174.9,990.2,174.7L990.2,174.7z M965.1,175.6
		c0.3-0.3-0.5-0.4-2.6-0.2c-1.7,0.2-4.3,0.3-5.8,0.4l-2.7,0.1l2.4,0.3C959.6,176.6,964.5,176.3,965.1,175.6L965.1,175.6z
		 M988.8,178.2c0.2-0.3-0.3-0.5-1.1-0.5c-4.9-0.2-6.6,0.1-3.1,0.5c1.5,0.2,2.9,0.4,3.2,0.4C988.2,178.6,988.6,178.4,988.8,178.2z
		 M993.9,178.7c0-0.6-0.5-0.6-1.5,0c-0.6,0.4-0.5,0.5,0.4,0.5C993.4,179.1,993.9,178.9,993.9,178.7z M1002.9,179.3
		c-0.5-0.1-1.1-0.1-1.5,0c-0.3,0.1,0.1,0.2,0.9,0.2C1003.1,179.5,1003.4,179.4,1002.9,179.3L1002.9,179.3z M989.6,179.3
		c-0.3-0.1-0.8-0.1-0.9,0c-0.2,0.2,0.1,0.3,0.6,0.3C989.9,179.6,990,179.4,989.6,179.3L989.6,179.3z M-26.2,179.3
		c-0.3-0.1-0.8-0.1-0.9,0c-0.2,0.2,0.1,0.3,0.6,0.3C-25.9,179.6-25.8,179.4-26.2,179.3L-26.2,179.3z M999.2,179.6
		c0.9-0.6,0.1-0.6-1.2,0c-0.6,0.3-0.7,0.4-0.2,0.4C998.1,180.1,998.8,179.9,999.2,179.6L999.2,179.6z M-22.3,180.8
		c-0.3-0.1-0.9-0.1-1.2,0c-0.3,0.1-0.1,0.2,0.6,0.2C-22.2,181-21.9,180.9-22.3,180.8z M1008,182.2c-0.6-0.1-1.6-0.1-2.2,0
		c-0.6,0.1-0.1,0.2,1.1,0.2C1008.1,182.4,1008.6,182.3,1008,182.2z M1011.5,183.1c0.1-0.2-0.2-0.3-0.7-0.2c-1.1,0.3-1.3,0.6-0.3,0.6
		C1010.9,183.5,1011.3,183.3,1011.5,183.1L1011.5,183.1z M994.5,188.5c-0.3-0.1-0.9-0.1-1.2,0c-0.3,0.1-0.1,0.2,0.6,0.2
		C994.5,188.7,994.8,188.6,994.5,188.5z M1008,190c-1.2-0.4-3.6-0.8-5.3-0.9c-1.8-0.1-3.9-0.4-4.7-0.5l-1.4-0.3l1.5,0.7
		c0.8,0.4,3.4,0.9,5.8,1.1C1009.7,190.8,1010.4,190.8,1008,190L1008,190z M-19.9,202c-0.3-0.1-0.8-0.1-0.9,0
		c-0.2,0.2,0.1,0.3,0.6,0.3C-19.6,202.3-19.5,202.2-19.9,202L-19.9,202z M1061.3,204c-2.6-0.7-5.9-0.9-5.4-0.4c0.3,0.3,5.1,1,6.9,1
		C1063.3,204.7,1062.7,204.4,1061.3,204L1061.3,204z M1080,210.2c-0.3-0.1-0.8-0.1-0.9,0c-0.2,0.2,0.1,0.3,0.6,0.3
		C1080.3,210.5,1080.4,210.4,1080,210.2L1080,210.2z M-21.1,210.2c0.1-0.3-0.1-0.6-0.5-0.6c-0.4,0-0.7,0.3-0.7,0.7
		C-22.2,211.2-21.4,211.1-21.1,210.2z M-20.5,214.1c-2.6-0.9-4.8-2.2-4.5-2.7c0.2-0.3,0-0.3-0.5,0.1c-0.5,0.4-0.7,0.9-0.4,1.1
		c0.6,0.6,4.1,1.8,5.2,1.8C-20,214.4-20,214.3-20.5,214.1L-20.5,214.1z M-8.7,215.6c-0.3-0.1-0.9-0.1-1.2,0
		c-0.3,0.1-0.1,0.2,0.6,0.2C-8.7,215.8-8.4,215.7-8.7,215.6z M919.5,218.5c-0.3-0.1-0.8-0.1-0.9,0c-0.2,0.2,0.1,0.3,0.6,0.3
		C919.7,218.7,919.8,218.6,919.5,218.5L919.5,218.5z M-13.4,218.1c0.4-0.4,0.6-0.9,0.5-1c-0.3-0.3-5.5-1.2-6.8-1.2
		c-1.6,0-0.8,0.8,1.2,1.4c1.1,0.3,2.4,0.8,2.8,1C-14.6,219-14.2,218.9-13.4,218.1z M-9.2,218.7c-0.2-0.3,0.1-0.3,0.7-0.1
		c1.2,0.4,1.4-0.5,0.3-0.9c-1.5-0.6-3.6-0.3-3.6,0.4c0,0.4,0.3,0.6,0.7,0.4c0.4-0.2,0.7-0.1,0.7,0.2c0,0.3,0.3,0.5,0.7,0.5
		S-9,218.9-9.2,218.7L-9.2,218.7z M957.2,219.9c-0.3-0.1-0.8-0.1-0.9,0c-0.2,0.2,0.1,0.3,0.6,0.3
		C957.5,220.2,957.6,220.1,957.2,219.9L957.2,219.9z M-3.9,219.9c-0.3-0.1-0.9-0.1-1.2,0c-0.3,0.1-0.1,0.2,0.6,0.2
		C-3.8,220.2-3.6,220.1-3.9,219.9z M974,220.7c-0.4-0.2-2.7-0.4-5.1-0.4c-5.2,0-4.9,0.3,1,0.8C974.5,221.5,975.2,221.5,974,220.7z
		 M986.1,220.5c0-0.1,0.5-0.3,1.2-0.4s1.2,0,1.2,0.2c0,0.2-0.5,0.4-1.2,0.4S986.1,220.7,986.1,220.5L986.1,220.5z M983.6,220.4
		c0.3-0.1,1-0.1,1.5,0c0.5,0.1,0.2,0.2-0.6,0.2C983.6,220.7,983.2,220.5,983.6,220.4L983.6,220.4z M990.7,220.7
		c1.3-0.6,1.7-0.6,1.7,0c0,0.3-0.6,0.5-1.3,0.4C989.9,221.2,989.9,221.1,990.7,220.7z M998,222.2c-0.1-0.2-0.9-0.3-1.8-0.1
		c-1.4,0.3-1.5,0.2-1.2-0.9c0.4-1.5-0.5-2-3-1.5c-1,0.2-1.5,0.1-1.2-0.1c0.8-0.5-14.8-0.2-15.8,0.3c-0.5,0.3-0.6,0.4-0.1,0.4
		c0.3,0,0.5,0.2,0.4,0.4c-0.1,0.2,1,0.6,2.5,0.7c1.5,0.2,3.3,0.4,4,0.5c0.7,0.1,1.9-0.1,2.8-0.3c1-0.3,1.8-0.3,2.2,0
		c0.8,0.6,2.1,0.8,7.2,0.9C996.4,222.6,998.1,222.4,998,222.2L998,222.2z M-0.8,223.1c-0.6-0.4-1-0.4-1.4,0
		c-0.4,0.4-0.1,0.5,0.9,0.5C-0.1,223.6,0,223.5-0.8,223.1L-0.8,223.1z M-3.1,223.2c0-0.3-0.2-0.5-0.5-0.5c-0.3,0-0.4,0.2-0.2,0.5
		c0.2,0.3,0.4,0.5,0.5,0.5C-3.2,223.6-3.1,223.4-3.1,223.2L-3.1,223.2z M990.5,223.7c-1.1-0.6-4.8-1.1-4.8-0.6c0,0.8,0.7,1.1,3.1,1
		C990.3,224.1,990.9,223.9,990.5,223.7z M981.6,223.5c-0.1-0.3-0.5-0.6-0.8-0.6c-2.8,0.2-2.8,0.2-1.8,0.7
		C980.6,224.3,981.9,224.2,981.6,223.5L981.6,223.5z M964.6,223.2c0.6,0,1.7,0.2,2.4,0.5c0.7,0.3,1.2,0.3,1.2,0.1
		c0-0.2,1.3-0.3,2.8-0.2c2.2,0.1,2.6,0.1,1.9-0.4c-1.4-0.8-13.2-1.2-13.6-0.4c-0.3,0.4-0.2,0.5,0.4,0.3c0.4-0.2,1.4,0,2.1,0.4
		c0.8,0.4,1.4,0.5,1.5,0.2C963.4,223.4,964,223.2,964.6,223.2L964.6,223.2z M955.5,223.2c1.5,0.6,2.2,0.6,1.9,0
		c-0.2-0.2,0.1-0.5,0.6-0.7c0.5-0.1-0.5-0.2-2.1-0.3c-1.6,0-3.1,0.2-3.3,0.4c-0.2,0.3,0,0.5,0.5,0.5c0.4,0,0.8,0.3,0.8,0.6
		c0,0.3,0.2,0.2,0.3-0.2C954.2,222.9,954.5,222.8,955.5,223.2L955.5,223.2z M4.9,223.2c-0.1-0.1-0.5,0-0.9,0.3
		c-0.5,0.5-0.4,0.5,0.3,0.3C4.8,223.7,5.1,223.4,4.9,223.2L4.9,223.2z M11,224.1c0-0.3-0.2-0.4-0.5-0.2c-0.3,0.2-0.5,0.4-0.5,0.5
		c0,0.1,0.2,0.2,0.5,0.2C10.8,224.6,11,224.4,11,224.1z M997.2,224.6c-0.4-0.2-1.5-0.3-2.4,0c-1.6,0.4-1.6,0.4,0.7,0.4
		C997.2,225,997.7,224.9,997.2,224.6L997.2,224.6z M1030.1,224.8c0.1-0.1-0.7-0.2-1.8-0.2c-1.1,0-2,0.2-2,0.5
		C1026.3,225.5,1029.6,225.2,1030.1,224.8L1030.1,224.8z M1022.3,225.2c-0.5-0.1-1.1-0.1-1.5,0c-0.3,0.1,0.1,0.2,0.9,0.2
		C1022.5,225.5,1022.7,225.4,1022.3,225.2L1022.3,225.2z M1016.4,225c0.1-0.1-1.7-0.2-4-0.2c-2.8,0-3.8,0.1-3,0.4
		C1010.5,225.5,1016,225.4,1016.4,225L1016.4,225z M929.3,226.6c0.1-0.2-0.2-0.3-0.7-0.2c-1.1,0.3-1.3,0.6-0.3,0.6
		C928.7,227,929.1,226.8,929.3,226.6L929.3,226.6z M932.2,228.5c0.2-0.3-0.2-0.5-0.7-0.5c-0.6,0-0.9,0.2-0.7,0.5
		c0.2,0.3,0.5,0.5,0.7,0.5C931.7,229,932,228.7,932.2,228.5z M950.6,229.4c1.2-0.3,2.4-0.9,2.7-1.3c0.5-0.6,0.2-0.7-2.3-0.5
		c-3.3,0.3-5.9,1.3-4.9,1.9C946.9,230.1,948.1,230,950.6,229.4L950.6,229.4z M8.1,228.9c0-0.3-0.2-0.3-0.5-0.2
		c-0.3,0.2-0.5,0.5-0.5,0.8s0.2,0.3,0.5,0.2C7.9,229.5,8.1,229.2,8.1,228.9z M943.8,230.4c0.8,0,1.2-0.3,1.2-1c0-0.5-0.3-1-0.7-1
		c-1,0-3.7,1-3.7,1.4c0,0.7,0.7,1,1.3,0.8C942.4,230.5,943.2,230.4,943.8,230.4L943.8,230.4z M13.4,230.4c0-0.3-0.2-0.5-0.5-0.5
		c-0.3,0-0.4,0.2-0.2,0.5c0.2,0.3,0.4,0.5,0.5,0.5C13.3,230.9,13.4,230.7,13.4,230.4L13.4,230.4z M6.1,230.9c0-0.3-0.7-0.5-1.5-0.5
		c-0.8,0-1.5-0.2-1.5-0.5c0-0.3,0.4-0.4,1-0.2c0.6,0.2,0.9,0.1,0.7-0.2c-0.4-0.6-3.2-1.1-3.2-0.5c0,0.2-0.1,0.7-0.3,1.2
		c-0.3,0.7-0.1,0.8,0.5,0.5c0.4-0.2,1.3-0.1,1.9,0.1C5.3,231.5,6.1,231.5,6.1,230.9L6.1,230.9z M13.8,232.2c-0.3-0.4-0.8-0.6-1-0.5
		c-0.2,0.1-0.4,0-0.4-0.3c0-0.3-0.2-0.4-0.5-0.2c-0.8,0.5-0.3-0.9,0.5-1.5c0.6-0.5,0.6-0.6-0.1-0.9c-0.5-0.2-1.3-0.2-1.9-0.1
		c-1,0.3-1,0.2-0.2-0.4c0.5-0.4,1.6-0.6,2.8-0.4l1.9,0.2l-1.1-1.2c-0.9-1-1.4-1.2-2.6-1c-0.8,0.2-2,0.2-2.7,0.2
		c-0.7-0.1-1.8-0.1-2.5-0.2c-0.7,0-1.3-0.2-1.2-0.5c0-0.2-0.2-0.5-0.5-0.6c-0.3-0.1-0.5,0.3-0.5,0.9c0,0.7,0.3,1.1,0.9,1
		c0.5,0,0.8,0.1,0.8,0.4s-0.3,0.4-0.7,0.4s-0.7,0.2-0.7,0.5c0,0.3,0.2,0.4,0.4,0.3c0.2-0.1,1.4-0.3,2.7-0.4c1.6-0.1,2.1,0,1.8,0.3
		c-0.3,0.3-0.5,0.9-0.5,1.4s-0.2,0.9-0.5,0.9c-0.3,0-0.5,0.2-0.5,0.5c0,0.3,0.3,0.5,0.7,0.5s0.7,0.2,0.7,0.5c0,0.3,0.6,0.3,1.4,0.2
		c0.8-0.2,1.8,0,2.3,0.2C14,233,14.5,232.9,13.8,232.2L13.8,232.2z M7.3,232.3c0.2-0.3,0-0.5-0.5-0.5c-0.4,0-0.8,0.2-0.8,0.5
		c0,0.3,0.2,0.5,0.5,0.5C6.8,232.8,7.2,232.6,7.3,232.3z M12.7,232.8c-0.2-0.3-0.5-0.4-0.8-0.2c-0.7,0.4-0.5,0.7,0.3,0.7
		C12.6,233.3,12.8,233.1,12.7,232.8z M5.8,236.6c-0.1-0.2-0.5-0.3-0.7-0.1c-0.6,0.4-0.6,0.5,0.3,0.5C5.8,237,6,236.8,5.8,236.6
		L5.8,236.6z M947.4,238.3c0-0.2-0.4-0.4-1-0.5c-0.5,0-0.9,0.1-0.7,0.4C946.1,238.7,947.4,238.8,947.4,238.3L947.4,238.3z
		 M945,238.1c0-0.3-0.2-0.5-0.5-0.5s-0.5,0.2-0.5,0.5c0,0.3,0.2,0.5,0.5,0.5C944.8,238.6,945,238.4,945,238.1z M950.6,238.4
		c-0.8-0.8-1.5-1-1-0.2c0.2,0.3-0.1,0.5-0.5,0.5c-0.4,0-0.6-0.2-0.5-0.5c0.2-0.3,0.1-0.5-0.2-0.5c-0.6,0-0.7,0.6-0.2,1.1
		c0.2,0.2,1,0.3,1.7,0.3C951.2,239.1,951.3,239,950.6,238.4L950.6,238.4z M962.2,242c-0.2-0.3-0.7-0.5-1.1-0.5c-0.8,0-0.7-0.1,0-0.5
		c0.9-0.5,1.1-1.4,0.4-1.4c-0.8,0-2.1,1.6-1.6,2c0.2,0.2,0.8,0.5,1.4,0.6c0.5,0.1,1,0.3,1.1,0.3C962.4,242.5,962.3,242.3,962.2,242
		L962.2,242z M958.4,242.2c-0.5-0.1-1.1-0.1-1.5,0c-0.3,0.1,0.1,0.2,0.9,0.2C958.6,242.4,958.9,242.3,958.4,242.2L958.4,242.2z
		 M-3.4,242.7c-0.3-0.1-0.8-0.1-0.9,0c-0.2,0.2,0.1,0.3,0.6,0.3C-3.2,242.9-3.1,242.8-3.4,242.7L-3.4,242.7z M963.1,243.5
		c-0.5-0.5-3.9-1.2-3.5-0.7c0.2,0.2,1.3,0.6,3.7,1.1C963.5,243.9,963.4,243.8,963.1,243.5L963.1,243.5z M12.5,244.1
		c-0.3-0.1-0.9-0.1-1.2,0c-0.3,0.1-0.1,0.2,0.6,0.2C12.6,244.4,12.9,244.2,12.5,244.1z M9.6,244.1c-0.3-0.1-0.8-0.1-0.9,0
		c-0.2,0.2,0.1,0.3,0.6,0.3C9.9,244.4,10,244.3,9.6,244.1L9.6,244.1z M7.5,244.1C7,244,6.3,244,6,244.1c-0.3,0.1,0.1,0.2,0.9,0.2
		C7.7,244.3,7.9,244.2,7.5,244.1L7.5,244.1z M965.3,244.4c0-0.3-0.4-0.5-0.8-0.5c-0.7,0-0.7,0.1-0.1,0.5
		C965.3,245,965.3,245,965.3,244.4L965.3,244.4z M-3.3,244.7c0.3-0.1-0.5-0.2-1.7-0.2c-1.2,0-3.1-0.1-4.2-0.2
		c-2.4-0.1-2.8,0.5-0.5,0.7C-8.1,245.2-4.2,245-3.3,244.7L-3.3,244.7z M-16.7,246.8c-0.5-0.3-1.1-0.4-1.3-0.2
		c-0.3,0.2-0.5,0.1-0.5-0.1c0-0.2-0.9-0.3-2.1-0.2c-1.9,0.2-2,0.2-0.6,0.5c0.8,0.2,2.3,0.3,3.4,0.4
		C-16.3,247.3-16.1,247.2-16.7,246.8L-16.7,246.8z M968.9,248.8c-0.2-0.3-0.5-0.5-0.8-0.5c-0.3,0-0.5,0.2-0.5,0.5
		c0,0.3,0.3,0.5,0.8,0.5C968.9,249.3,969.1,249.1,968.9,248.8z M-42.5,251.2c-0.2-0.3-0.4-0.5-0.5-0.5c-0.1,0-0.2,0.2-0.2,0.5
		c0,0.3,0.2,0.5,0.5,0.5C-42.4,251.7-42.3,251.5-42.5,251.2L-42.5,251.2z M-10.8,251.7c0-0.2-0.3-0.6-0.6-0.7
		c-0.3-0.1-0.1-0.3,0.5-0.3c0.6,0,1.1-0.3,1.1-0.5c0-0.8-0.9-0.6-1.9,0.5c-0.5,0.5-1.1,0.9-1.2,0.9c-0.2,0-0.4,0.1-0.6,0.2
		c-0.2,0.2,0.4,0.3,1.2,0.3C-11.5,252.2-10.8,252-10.8,251.7L-10.8,251.7z M-19.3,250.9c-0.3-0.9-0.5-0.9-1.1,0.2
		c-0.4,0.8-0.3,0.9,0.4,0.7C-19.5,251.7-19.2,251.3-19.3,250.9L-19.3,250.9z M975.2,252.2c0.2-0.3-0.2-0.5-0.9-0.5
		c-0.7,0-1.2,0.2-1.2,0.5c0,0.3,0.4,0.5,0.9,0.5C974.5,252.7,975.1,252.4,975.2,252.2z M-3.1,252.2c0-0.6,1.3-0.7,1.6-0.1
		c0.1,0.2,0.2,0.1,0.1-0.1c-0.1-0.8-2-0.8-2.3,0c-0.2,0.4-0.1,0.8,0.2,0.8C-3.3,252.7-3.1,252.4-3.1,252.2L-3.1,252.2z M-4.4,251.7
		c0.3-1.3-0.2-1.6-1.8-1c-0.9,0.3-1.3,0.3-1.4-0.1c-0.1-0.4-0.4-0.3-1,0.2c-1,1-1,1.2,0,1.5C-6.3,252.9-4.6,252.7-4.4,251.7
		L-4.4,251.7z M-14.9,251.4c0-0.8-0.2-1.1-0.6-1c-0.3,0.1-0.6,0-0.6-0.2c0-0.3-0.2-0.5-0.5-0.5c-0.3,0-0.4,0.2-0.2,0.5
		c0.2,0.3-0.1,0.5-0.6,0.5c-0.6,0-0.3,0.3,0.8,0.9c0.9,0.5,1.7,1,1.7,1C-14.9,252.6-14.9,252.1-14.9,251.4L-14.9,251.4z
		 M-27.7,252.6c0-0.2-0.5-0.3-1.2-0.3c-0.6,0-1.1,0.2-1,0.4C-29.6,253.2-27.7,253-27.7,252.6L-27.7,252.6z M978.4,253.1
		c0-0.3-0.3-0.5-0.7-0.5c-0.4,0-0.8,0.2-1,0.5c-0.2,0.3,0.1,0.5,0.7,0.5C977.9,253.6,978.4,253.4,978.4,253.1z M-19.4,253.3
		c-0.3-0.1-0.9-0.1-1.2,0c-0.3,0.1-0.1,0.2,0.6,0.2C-19.3,253.5-19,253.4-19.4,253.3z M-9.8,253.9c0-0.1-0.4-0.5-1-0.7
		c-0.8-0.4-0.9-0.4-0.7,0.2C-11.2,254-9.8,254.5-9.8,253.9L-9.8,253.9z M-21.7,253.9c-1.6-0.3-3.4-0.8-4-1.2
		c-0.9-0.5-1.1-0.4-1.5,0.3c-0.4,0.8-0.2,0.9,2.5,1c1.6,0.1,3.1,0.2,3.2,0.3c0.1,0.1,0.8,0.2,1.5,0.2
		C-19.3,254.5-20.1,254.2-21.7,253.9L-21.7,253.9z M-33.8,258.5c0.1-0.2-0.1-0.4-0.4-0.4c-0.4,0-0.6,0.2-0.4,0.4
		c0.1,0.2,0.3,0.4,0.4,0.4C-34.2,258.9-34,258.8-33.8,258.5z M-49.6,258.1c0.5-0.5,1.3-1.1,1.8-1.4c1.3-0.8,0.8-1-1.4-0.8
		c-1.1,0.1-1.7,0.4-1.5,0.7c0.2,0.3,0,0.4-0.6,0.2c-0.7-0.3-0.8-0.2-0.3,0.4c0.3,0.4,0.5,0.9,0.3,1.2
		C-51.7,259.3-50.5,259-49.6,258.1L-49.6,258.1z M-28.4,258.9c-0.2-0.3-0.5-0.5-0.8-0.5c-0.3,0-0.3,0.2-0.2,0.5
		c0.2,0.3,0.5,0.5,0.8,0.5C-28.4,259.4-28.3,259.2-28.4,258.9L-28.4,258.9z M-26,259c-0.2-0.3-0.7-0.5-1.1-0.5
		c-0.7,0.1-0.7,0.1,0,0.3c0.5,0.1,0.8,0.5,0.8,0.8s0.1,0.4,0.3,0.2C-25.8,259.6-25.8,259.3-26,259L-26,259z M-52.9,259.2
		c0-0.1-0.2-0.2-0.5-0.2c-0.3,0-0.5,0.2-0.5,0.5c0,0.3,0.2,0.4,0.5,0.2C-53.1,259.5-52.9,259.3-52.9,259.2z M-23.2,261.1
		c0.2-0.5,0-0.7-0.5-0.6c-0.4,0.1-0.9,0.4-1,0.8C-25,262.1-23.5,262-23.2,261.1z M-36.7,263.3c-0.2-0.3-0.4-0.5-0.5-0.5
		c-0.1,0-0.2,0.2-0.2,0.5c0,0.3,0.2,0.5,0.5,0.5C-36.6,263.8-36.5,263.6-36.7,263.3z M-55.2,264.2c-0.3-0.3-0.6-0.4-0.6-0.1
		c0,0.6,0.6,1.2,0.9,0.9C-54.7,264.8-54.9,264.5-55.2,264.2L-55.2,264.2z M981.6,270.8c-0.4-0.4-1-0.7-1.3-0.7c-0.4,0-0.4,0.2,0,0.7
		c0.3,0.4,0.9,0.7,1.3,0.7C982.2,271.5,982.2,271.4,981.6,270.8L981.6,270.8z M988.1,273.5c-0.9-0.6-1.5-0.6-1.5,0
		c0,0.3,0.5,0.5,1.1,0.5C988.6,273.9,988.6,273.8,988.1,273.5z M980.8,273.9c-0.7-0.2-1.6-0.4-2.2-0.4c-0.8,0-0.8,0-0.2,0.4
		c0.4,0.3,1.4,0.5,2.2,0.4C982,274.3,982,274.3,980.8,273.9z M-60.1,274.9c0-0.3-0.2-0.4-0.5-0.2c-0.3,0.2-0.5,0.4-0.5,0.5
		c0,0.1,0.2,0.2,0.5,0.2C-60.3,275.4-60.1,275.2-60.1,274.9z M993.4,277.1c0-0.1-0.3-0.3-0.7-0.5c-0.4-0.2-0.7-0.1-0.7,0.2
		c0,0.3,0.3,0.5,0.7,0.5C993,277.3,993.4,277.2,993.4,277.1z M-60.9,277.3c-0.1-0.2-0.6-0.4-1.1-0.4c-0.5,0-0.6,0.1-0.2,0.3
		c0.3,0.1,0.5,0.4,0.3,0.7c-0.1,0.2,0.1,0.3,0.5,0.1C-61,277.8-60.7,277.5-60.9,277.3L-60.9,277.3z M-46.6,282.2
		c-0.4-0.3-0.9-0.5-1.2-0.5c-0.3,0-0.2,0.2,0.2,0.5c0.4,0.3,0.9,0.5,1.2,0.5C-46.1,282.6-46.2,282.4-46.6,282.2z M1019.6,283.8
		c-0.3-0.1-0.8-0.1-0.9,0c-0.2,0.2,0.1,0.3,0.6,0.3C1019.9,284,1020,283.9,1019.6,283.8L1019.6,283.8z M1032.1,288
		c0-0.3-0.2-0.5-0.5-0.5s-0.5,0.2-0.5,0.5c0,0.3,0.2,0.5,0.5,0.5C1031.9,288.5,1032.1,288.2,1032.1,288z M-30.6,288.7
		c0-0.5-1.4-0.7-1.7-0.3c-0.2,0.3,0.2,0.5,0.7,0.5C-31.1,288.9-30.6,288.8-30.6,288.7L-30.6,288.7z M1027.1,291
		c-0.5-0.1-1.1-0.1-1.5,0c-0.3,0.1,0.1,0.2,0.9,0.2C1027.3,291.2,1027.6,291.1,1027.1,291L1027.1,291z M-44,292.6
		c0.2-0.6-0.1-0.7-1.5-0.7c-1.5,0.1-1.5,0.1-0.5,0.3c0.7,0.1,1.3,0.4,1.3,0.7C-44.7,293.5-44.3,293.4-44,292.6z M-45.5,293
		c-0.3-0.1-0.9-0.1-1.2,0c-0.3,0.1-0.1,0.2,0.6,0.2C-45.4,293.2-45.2,293.1-45.5,293z M1038.9,294.4c-0.3-0.1-0.8-0.1-0.9,0
		c-0.2,0.2,0.1,0.3,0.6,0.3C1039.2,294.7,1039.3,294.6,1038.9,294.4L1038.9,294.4z M-50.5,296.4c0-0.1-0.3-0.2-0.7-0.2
		c-0.4,0-0.7,0.2-0.7,0.5c0,0.3,0.3,0.3,0.7,0.2C-50.8,296.7-50.5,296.5-50.5,296.4L-50.5,296.4z M1049.8,310.9
		c-0.5-0.1-1.2-0.1-1.7,0c-0.5,0.1-0.1,0.2,0.8,0.2C1049.9,311.1,1050.3,311,1049.8,310.9L1049.8,310.9z M-68.6,311.7
		c-0.2-0.3-0.5-0.4-0.8-0.2c-0.7,0.4-0.5,0.7,0.3,0.7C-68.6,312.2-68.4,311.9-68.6,311.7L-68.6,311.7z M1050.1,315.3
		c-0.2-0.4-0.7-0.7-1.3-0.7c-1,0-1,0-0.1,0.7C1049.9,316.2,1050.5,316.2,1050.1,315.3L1050.1,315.3z M1041.3,318.9
		c0.5-0.3,0.2-0.5-1.4-0.5c-1.3,0-2,0.2-1.8,0.5C1038.5,319.5,1040.3,319.5,1041.3,318.9z M826.1,321.2c-0.5-0.5-0.7-0.5-1.2,0
		c-0.5,0.5-0.3,0.6,0.6,0.6S826.6,321.7,826.1,321.2z M801.8,321.3c-1-0.6-2.1-0.6-1.7,0c0.2,0.3,0.8,0.5,1.4,0.5
		C802.4,321.8,802.4,321.7,801.8,321.3L801.8,321.3z M746.4,321.3c-0.2-0.3-0.6-0.5-1-0.5s-0.8,0.2-1,0.5c-0.2,0.3,0.2,0.5,1,0.5
		S746.6,321.6,746.4,321.3z M729,321.4c-0.2-0.3-0.6-0.3-1-0.2c-1,0.4-0.9,0.7,0.3,0.7C728.9,321.8,729.2,321.6,729,321.4L729,321.4
		z M673.3,322c-0.3-0.1-0.8-0.1-0.9,0c-0.2,0.2,0.1,0.3,0.6,0.3C673.5,322.2,673.6,322.1,673.3,322L673.3,322z M831.9,322.5
		c-0.3-0.1-0.8-0.1-0.9,0c-0.2,0.2,0.1,0.3,0.6,0.3C832.2,322.7,832.3,322.6,831.9,322.5L831.9,322.5z M812.2,322.3
		c0.2-0.2,0-0.6-0.3-0.8c-0.3-0.2-0.4-0.1-0.2,0.2c0.2,0.3,0,0.6-0.3,0.8c-0.4,0.2-0.4,0.3,0,0.3
		C811.7,322.8,812.1,322.6,812.2,322.3L812.2,322.3z M787.7,322.4c-1-0.1-2.6-0.1-3.6,0c-1,0.1-0.2,0.2,1.8,0.2
		S788.7,322.5,787.7,322.4z M765.2,322.5c-0.3-0.1-0.8-0.1-0.9,0c-0.2,0.2,0.1,0.3,0.6,0.3C765.4,322.7,765.5,322.6,765.2,322.5
		L765.2,322.5z M760.7,322.6c0-0.1-0.3-0.3-0.8-0.5c-0.4-0.2-0.6-0.1-0.5,0.2C759.8,322.8,760.7,323,760.7,322.6L760.7,322.6z
		 M679,321.9c-0.3-0.1-0.9,0-1.1,0.3c-0.4,0.4-0.2,0.4,0.6,0.2C679.2,322.3,679.4,322.1,679,321.9z M675.1,322.3
		c0-0.3-0.2-0.4-0.5-0.2c-0.3,0.2-0.5,0.4-0.5,0.5c0,0.1,0.2,0.2,0.5,0.2C674.9,322.8,675.1,322.6,675.1,322.3z M666.6,322.3
		c-0.2-0.3-0.5-0.5-0.8-0.5c-0.3,0-0.5,0.2-0.5,0.5c0,0.3,0.3,0.5,0.8,0.5C666.6,322.8,666.8,322.6,666.6,322.3L666.6,322.3z
		 M631.7,322.5c-0.3-0.1-0.9-0.1-1.2,0s-0.1,0.2,0.6,0.2C631.7,322.7,632,322.6,631.7,322.5L631.7,322.5z M254.3,322.3
		c0-0.3-0.2-0.5-0.5-0.5c-0.3,0-0.5,0.2-0.5,0.5c0,0.3,0.2,0.5,0.5,0.5C254.1,322.8,254.3,322.6,254.3,322.3z M775.5,322.7
		c0.2-0.2,1.3-0.3,2.5-0.3c3,0,2.4-0.3-1.5-0.7c-2.2-0.2-3.2-0.2-3,0.2c0.4,0.7-1.3,0.6-2,0c-0.4-0.4-0.5-0.3-0.4,0.4
		c0.1,0.5,0.2,1,0.2,1C771.4,323.4,775.2,323,775.5,322.7L775.5,322.7z M750.8,322.6c-1.4-0.6-2.2-0.6-2.2,0.2
		c0,0.2,0.8,0.4,1.8,0.4l1.8,0L750.8,322.6z M709.2,322.8c-0.2-0.3-0.7-0.5-1.1-0.5c-0.7,0-0.7,0.1-0.1,0.5
		C708.9,323.4,709.6,323.4,709.2,322.8L709.2,322.8z M681.9,322.6l1.2-0.7l-1.6,0.1c-0.9,0.1-1.6,0.4-1.6,0.7
		C679.9,323.4,680.4,323.4,681.9,322.6L681.9,322.6z M663.9,322.7c-0.3-0.8-2.3-1.2-3.8-0.8c-0.7,0.2-0.9,0.4-0.5,0.4
		c0.5,0.1,0.4,0.2-0.2,0.5c-0.7,0.3-0.1,0.4,1.8,0.4C663.2,323.2,664,323.1,663.9,322.7L663.9,322.7z M629.4,322.8
		c-0.2-0.3-0.5-0.5-0.8-0.5s-0.5,0.2-0.5,0.5c0,0.3,0.3,0.5,0.8,0.5C629.3,323.3,629.6,323.1,629.4,322.8L629.4,322.8z M591.7,322.8
		c-0.2-0.3-0.7-0.5-1.2-0.5c-0.5,0-0.9,0.2-0.9,0.5c0,0.3,0.6,0.5,1.2,0.5C591.4,323.3,591.8,323.1,591.7,322.8L591.7,322.8z
		 M738.5,323.3c0-0.3-0.3-0.5-0.8-0.5c-0.4,0-0.6,0.2-0.5,0.5c0.2,0.3,0.5,0.5,0.8,0.5C738.3,323.8,738.5,323.5,738.5,323.3
		L738.5,323.3z M736.5,323.2c0-0.3-0.3-0.4-0.6-0.2c-0.3,0.2-0.2,0,0.2-0.4c0.5-0.4,0.7-0.8,0.6-0.9c-0.1-0.1,1.1-0.2,2.7-0.1
		c1.7,0.1,2.8,0,2.7-0.3c-0.3-0.6-5-0.5-6.1,0c-0.4,0.2-0.9,0.2-1,0c-0.2-0.6-2.3,0.3-2.3,0.9c0,0.3,0.3,0.5,0.7,0.5
		s0.7,0.2,0.7,0.5c0,0.3,0.5,0.5,1.2,0.5S736.5,323.5,736.5,323.2L736.5,323.2z M732.4,323.4c-0.5-0.1-1.2-0.4-1.4-0.7
		c-0.7-0.6-1.7-0.5-1.7,0.2c0,0.4,0.8,0.6,2.1,0.7C732.5,323.6,732.9,323.5,732.4,323.4z M719.8,323.3c-0.2-0.3-0.5-0.5-0.8-0.5
		s-0.5,0.2-0.5,0.5c0,0.3,0.3,0.5,0.8,0.5S720,323.5,719.8,323.3L719.8,323.3z M692.8,323c0-0.4-0.2-0.7-0.4-0.7
		c-0.2,0-0.5,0.3-0.6,0.7c-0.2,0.4,0,0.7,0.4,0.7C692.5,323.8,692.8,323.4,692.8,323L692.8,323z M672.9,323.3
		c0.6-0.3,0.7-0.4,0.2-0.4c-0.4,0-1.1,0.2-1.5,0.4C670.8,323.8,671.6,323.8,672.9,323.3L672.9,323.3z M706.1,323.8
		c0-0.3-0.2-0.5-0.5-0.5c-0.3,0-0.4,0.2-0.2,0.5c0.2,0.3,0.4,0.5,0.5,0.5C706,324.2,706.1,324,706.1,323.8z M688.6,323.2
		c-0.4-0.3-0.1-0.4,1-0.4c1.3,0,1.5-0.1,1-0.5c-0.4-0.3-1.6-0.5-2.8-0.5l-2.1,0l1,1.2c0.6,0.7,1.3,1.1,1.7,0.9
		C689.1,323.7,689.1,323.5,688.6,323.2L688.6,323.2z M587.8,323.8c-0.2-0.3-0.5-0.5-0.8-0.5s-0.5,0.2-0.5,0.5c0,0.3,0.3,0.5,0.8,0.5
		S588,324,587.8,323.8z M583.7,325.2c0-0.3,0.7-0.5,1.6-0.6c1.1,0,1.3-0.1,0.5-0.3c-1.3-0.2-1.4-0.6-0.3-1.3
		c0.6-0.4,0.3-0.5-1.3-0.4c-1.1,0.1-2.3,0.4-2.7,0.7c-0.3,0.3-0.8,0.3-1,0.2c-0.9-0.5-9.4-0.9-9.1-0.4c0.3,0.5-1.6,1.3-2,0.8
		c-0.1-0.1,0.1-0.2,0.5-0.2c0.6,0,0.6-0.1,0-0.5c-1-0.7-2.8-0.6-3.1,0.1c-0.2,0.5-0.3,0.5-0.6,0c-0.2-0.3-0.5-0.6-0.8-0.6
		c-0.3,0-0.3,0.2-0.2,0.5c0.2,0.3,0.1,0.5-0.2,0.5c-0.3,0-0.5-0.2-0.6-0.5c-0.3-0.8-4.3-0.8-4.8,0c-0.3,0.5-0.6,0.5-1,0.1
		c-1.5-1.2-7.6-1.3-6.9-0.1c0.4,0.7-1.4,0.5-2.5-0.3c-1-0.7-2.5-0.5-3.2,0.4c-0.2,0.3-0.4,0.3-0.4-0.1c0-0.3-0.3-0.6-0.8-0.6
		c-0.5,0-0.7,0.3-0.4,1c0.3,0.9,0.2,0.9-1,0.4c-1.2-0.5-1.2-0.6-0.4-1c0.5-0.2-0.1-0.3-1.5-0.3c-1.6,0.1-2.4,0.3-2.3,0.7
		c0.1,0.3-0.1,0.6-0.4,0.6c-0.3,0-0.5-0.2-0.5-0.5c0-0.3-0.6-0.5-1.3-0.5c-1.2,0-1.3,0-0.4,0.7c0.9,0.7,0.8,0.7-1,0.7
		c-1.1,0-2.5-0.3-3.3-0.7c-0.7-0.4-1.2-0.5-1.1-0.2c0.2,0.3-1.8,0.4-4.9,0.4c-2.9,0-5-0.2-4.6-0.3c0.3-0.1,0.6-0.5,0.6-0.7
		c0-0.3-0.1-0.4-0.3-0.3c-0.1,0.1-1,0.1-1.8-0.1c-0.9-0.2-2-0.2-2.5,0c-0.7,0.3-0.5,0.4,0.8,0.4c1,0,1.9,0.2,2.1,0.5
		c0.3,0.5-11.3,0.4-13.3-0.2c-1-0.3-1-0.2-0.2,0.1c0.8,0.4,0.7,0.5-0.6,0.5c-1.4,0-1.6-0.1-1.3-0.9c0.2-0.8,0.1-0.9-1.3-0.8
		c-0.9,0.1-2.1,0.2-2.8,0.2c-1.1,0.1-1.1,0.1,0.4,0.5c0.9,0.2,1.6,0.6,1.6,0.7c0,0.1-1.4,0.2-3.1,0.2c-2.5,0-3.1-0.2-3.1-0.7
		c0-0.4-0.2-0.7-0.4-0.7c-0.2,0-0.7,0.3-1,0.7s-1.3,0.7-2.1,0.7c-0.8,0-1.2-0.2-0.9-0.3c0.5-0.2,0.4-0.4-0.3-0.9
		c-1.1-0.8-6.4-0.8-6.4-0.1c0,0.3,1,0.4,2.1,0.3c1.2-0.1,2,0,1.9,0.2c-0.3,0.5-4.4,0.5-4.7-0.1c-0.1-0.2-0.7-0.3-1.3-0.2
		c-0.6,0.2-0.9,0.1-0.8-0.2c0.2-0.3-3-0.4-7.7-0.5c-7.6,0-10,0.4-6.1,1c2.6,0.4,3,0.6,1.3,0.7c-0.8,0-2.9-0.3-4.6-0.7
		c-3.7-0.8-4.5-0.9-4.2-0.3c0.4,0.6-3.6,0.3-4.2-0.4c-0.3-0.3-0.9-0.5-1.3-0.5c-0.6,0-0.6,0.1-0.1,0.4c0.4,0.3-1.9,0.4-6,0.2
		c-17.2-0.5-35-0.6-34.8-0.2c0.4,0.6-4.5,0.6-7.6-0.1c-1.4-0.3-2.6-0.3-2.8-0.1c-0.4,0.5-1.5,0.8-1.5,0.3c0-0.2-3.3-0.4-7.3-0.5
		c-4.6-0.1-7.2,0.1-7,0.4c0.2,0.3-0.2,0.5-0.8,0.5c-3.1,0.2-5.1,0.1-6.7-0.2c-4.3-0.9-15.4-1.2-20.9-0.6c-1.1,0.1-2.8,0.2-3.7,0.1
		c-1.7-0.1-7.9,0-11.3,0.1c-1,0-2.1-0.1-2.4-0.4c-0.7-0.5-5.7-0.2-5.7,0.4c0,0.2-1.3,0.4-2.9,0.3c-1.6-0.1-2.9,0-2.9,0.3
		c0,0.2-0.2,0.3-0.5,0.1c-0.3-0.2-3.4-0.3-7-0.3c-3.9,0-7.3-0.2-8.5-0.5c-1.2-0.4-2.1-0.4-2.3-0.1c-0.5,0.7-4.9,0.8-5.7,0.2
		c-0.4-0.3-0.7-0.4-0.7-0.1c0,0.3-1.4,0.5-3.1,0.5c-1.7,0-3.1-0.1-3.1-0.3s-0.6-0.4-1.3-0.4c-0.7,0-3-0.2-5.1-0.4
		c-2.1-0.2-4-0.1-4.4,0.1c-0.7,0.5-1.8,0.5-2.7-0.1c-0.5-0.3-0.6-0.3-0.3,0.2c0.3,0.4,0.1,0.5-0.6,0.3c-0.5-0.2-1.1-0.1-1.3,0.2
		c-0.2,0.3-0.8,0.4-1.4,0.3c-0.6-0.1-3-0.3-5.3-0.3c-2.4-0.1-4.8-0.4-5.5-0.7c-1.4-0.7-2.1-0.5-1.7,0.7c0.3,0.8,0.2,0.8-0.7,0
		c-0.6-0.5-1.1-0.7-1.2-0.3c-0.2,0.6-5.4,1.1-7.3,0.7c-0.7-0.2-1.2-0.5-1.1-0.7c0.2-0.2-0.4-0.4-1.3-0.4c-1.5,0-1.5,0.1-0.4,0.4
		c1.1,0.3,1.1,0.4,0.3,0.7c-1.5,0.6-2.7,0.4-2.7-0.4c0-0.4-0.4-0.7-0.8-0.7c-0.6,0-0.7,0.1-0.2,0.4c1,0.6-1.5,1-5.1,0.7
		c-1.9-0.1-3,0-3,0.3c0,0.3-1.3,0.5-3.5,0.5c-2.6,0-3.1-0.1-2.1-0.4c1.6-0.4,1.6-0.4-2.5-0.8c-1.8-0.2-3.4,0-4,0.3
		c-0.8,0.4-1.2,0.4-1.7,0c-0.8-0.7-3.6-0.2-3.9,0.7c-0.3,0.8-2,1.3-2.4,0.7c-0.1-0.2,0-0.5,0.4-0.5c0.3,0,0.1-0.2-0.5-0.5
		c-0.8-0.3-1.7-0.3-2.5,0c-0.7,0.3-1.4,0.4-1.6,0.2c-0.4-0.4-13.5-0.3-14.4,0c-0.4,0.2-1.6,0.1-2.7-0.1c-1.4-0.3-3-0.2-5.3,0.3
		c-2.7,0.6-4.3,0.6-8.4,0.2c-2.8-0.3-5.8-0.7-6.7-1c-0.9-0.2-1.4-0.3-1.3,0c0.1,0.2-0.1,0.4-0.6,0.4c-3.4,0.1-7.3,0.1-7.7,0
		c-0.2-0.1-0.9,0.1-1.5,0.3c-0.7,0.3-1.3,0.1-1.8-0.4c-0.6-0.6-1.9-0.7-7.3-0.7c-3.6,0-7.3,0.2-8.1,0.4c-0.8,0.2-2.6,0.1-3.9-0.1
		c-3.4-0.6-9.6-0.5-9.9,0.2c-0.2,0.4-0.6,0.4-1.3,0c-0.5-0.3-1.8-0.5-2.8-0.5c-2,0-10.8,0.7-14.8,1.2c-1.4,0.2-2.3,0.1-2.3-0.2
		c0-0.6-4.1-0.2-6.5,0.7c-1.4,0.5-2.3,0.6-3.4,0.2c-1.7-0.5-7.3-0.9-17.7-1.3c-25.2-0.9-27.5-0.9-35.6-0.4c-6,0.4-7.6,0.4-24.9,0.1
		c-8.9-0.1-30.6-0.4-48.1-0.6c-17.6-0.2-32.9-0.4-34.1-0.5c-1.2-0.1-3.6-0.2-5.4-0.2c-2.4-0.1-3.2-0.2-3-0.7c0.1-0.3,0-0.8-0.4-1
		c-0.4-0.3,0.1-0.6,1.5-1c1.7-0.4,1.9-0.6,0.9-0.6c-0.7,0-1.5-0.3-1.6-0.6c-0.2-0.4-1.3-0.4-3.5-0.2c-6.8,0.8-9.7,0.8-9.7,0
		c0-0.4,0.4-0.7,0.8-0.7c0.5,0,1.3-0.3,1.8-0.7c0.9-0.7,0.9-0.7-0.2-0.8c-2.7-0.2-3.7-0.3-6-0.4l-2.4-0.1l2.1-1
		c1.1-0.6,2-1.3,1.9-1.5c-0.1-0.3-0.5-0.4-0.8-0.4c-0.3,0.1-1,0-1.6-0.2c-0.9-0.3-0.9-0.3-0.1-0.9c0.5-0.3,2.2-0.8,3.8-1
		c2.7-0.3,2.8-0.4,1.3-0.7c-0.9-0.2-2-0.7-2.5-1.1c-0.5-0.4-1.2-0.8-1.7-0.8c-0.8,0-1.1-1.3-0.4-2.2c0.4-0.6,2.4-1.1,5.1-1.4
		c1-0.1,2.5-0.3,3.4-0.5c0.9-0.2,1.8-0.3,2-0.3c0.3,0,0.9-0.3,1.4-0.5c0.8-0.4,0.7-0.6-1-1.2c-1-0.4-3.1-0.7-4.6-0.8
		c-2.2-0.1-2.8-0.3-3-1c-0.2-0.7-0.1-0.8,0.6-0.5c1.4,0.6,6.4,0.8,6.4,0.2c0-0.3-0.3-0.4-0.7-0.2c-0.4,0.2-0.7,0.1-0.7-0.2
		c0-0.3-0.5-0.6-1.1-0.7c-0.7-0.1-0.5-0.2,0.7-0.3c1.1,0,2.2-0.5,2.9-1.2c1.6-1.6,3-1.7,4.3-0.3l1,1.2l-0.3-1.7
		c-0.2-1.1-0.1-1.4,0.2-0.7c0.4,0.9,0.4,0.9,0.7,0.1c0.2-0.5,0.5-0.7,0.7-0.6c0.2,0.1,0.9,0,1.6-0.3c0.7-0.3,1.7-0.5,2.3-0.4
		c0.6,0.1,1.1-0.1,1.1-0.4c0-0.3,0.4-0.4,0.8-0.3c0.5,0.1,1.2,0.1,1.6-0.2c0.4-0.3,0.5-0.5,0.2-0.5c-0.3,0-0.9-0.3-1.5-0.7
		c-0.8-0.6-0.5-0.7,3.3-0.5c2.3,0.1,4.4,0,4.5-0.3c0.4-0.6-0.5-0.8-4.9-1.1c-2.1-0.1-4.4-0.5-5.1-0.7c-0.9-0.4,0.7-0.4,5.5-0.2
		c5.7,0.3,6.7,0.2,6.5-0.4c-0.1-0.4-0.8-0.7-1.4-0.7c-3.8-0.1-4.4-0.2-4-0.8c0.2-0.4-0.1-0.5-1.1-0.3c-1,0.2-1.7,0.1-2-0.4
		c-0.3-0.4-0.9-0.5-1.3-0.4c-0.4,0.2-0.9-0.1-1.2-0.5c-0.2-0.4-1-0.8-1.7-0.8c-0.7,0-1.1-0.2-0.9-0.4c0.1-0.2-0.1-0.6-0.5-0.7
		c-1-0.4-0.4-1.3,0.8-1.3c0.5,0,0.9-0.2,0.9-0.5c0-0.3,0.5-0.5,1.2-0.5c0.6,0,1.3-0.2,1.4-0.4c0.4-0.6-3.2-1-9.4-1
		c-4.6,0-5.6-0.1-6.1-0.8c-0.5-0.7-1.2-0.8-3.9-0.6c-2.8,0.2-3.4,0.1-4-0.7c-0.4-0.5-1.1-0.8-1.7-0.7c-0.8,0.2-0.8,0.3,0.4,0.8
		c1.5,0.6,1.3,1.5-0.3,1.5c-0.6,0-0.8-0.1-0.5-0.3c0.3-0.1,0.5-0.5,0.3-0.7c-0.2-0.3-0.6-0.2-1,0.1c-0.8,0.6-2.1-0.2-2.1-1.2
		c0-0.7,5.3-1.4,6.5-0.9c0.4,0.2,0.7,0,0.7-0.3c0-0.4,0.5-0.5,1.2-0.4c0.7,0.1,1.3,0,1.5-0.2c0.1-0.2,0.7-0.4,1.3-0.4
		c1,0,0.9-0.1-0.4-1c-0.8-0.5-1.8-1-2.3-1c-0.4,0-1-0.2-1.1-0.5c-0.2-0.3,1-0.5,3.1-0.5c1.9,0,3.3,0.2,3.2,0.4
		c-0.1,0.2,0.2,0.3,0.7,0.2c0.5-0.1,1-0.6,1-0.9s0.3-0.7,0.7-0.7c0.4,0,0.7-0.4,0.7-0.8c0-0.6,0.2-0.7,0.6-0.2
		c0.4,0.3,0.8,0.4,1,0.2c0.2-0.2,0.3-0.1,0.3,0.2s0.4,0.4,1,0.3c1.1-0.3,1.3-1.1,0.4-1.1c-0.3,0,0-0.4,0.8-0.8l1.5-0.8l-2.9-0.2
		c-2.1-0.1-2.6-0.3-1.9-0.6c0.8-0.3,0.8-0.4-0.4-0.4c-0.8,0-1.2,0.2-1.1,0.4c0.2,0.3-0.1,0.5-0.7,0.5c-0.5,0-1-0.2-1-0.4
		c0-0.2-0.7-0.4-1.5-0.5c-0.8-0.1-1.3,0.1-1.2,0.4c0.2,0.3,0.6,0.5,1,0.5s0.6,0.2,0.4,0.5c-0.2,0.3-0.6,0.3-0.9,0.1
		c-0.3-0.2-1.2-0.3-2-0.3c-1.4,0.1-1.4,0.1-0.3-0.4c0.6-0.3,1-0.7,0.8-1c-0.2-0.3-0.1-0.5,0.2-0.5c0.3,0,0.4-0.2,0.2-0.5
		c-0.2-0.3-0.1-0.5,0.3-0.3c0.4,0.1,1.2,0,1.9-0.4c0.7-0.3,2.2-0.6,3.3-0.6c1.1,0,2.3-0.2,2.6-0.4c0.3-0.3,1.2-0.6,1.9-0.8
		c1.7-0.4,1.8-1.9,0.2-3c-0.9-0.6-1.4-0.7-2.2-0.2c-1.2,0.6-1.3,0.4-0.2-0.7c0.4-0.4,0.5-0.8,0.2-0.8c-0.3,0-0.8,0.4-1.1,1
		c-0.6,1-2,1.3-2.5,0.5c-0.2-0.2,0-0.6,0.2-0.8c0.3-0.2,0.7-0.8,0.9-1.4c0.3-0.8,0.9-1.2,2.3-1.4c1-0.2,2.5-0.4,3.3-0.6
		c1.1-0.2,1.3-0.2,1,0.3c-0.3,0.5-0.1,0.5,0.8,0.2c0.6-0.2,1.5-0.4,1.9-0.5c1.9-0.2,4.1-0.9,4.7-1.5c0.5-0.5,0.9-0.5,1.9-0.1
		c0.8,0.4,1,0.7,0.6,0.9c-0.8,0.5,0.9,1,4.2,1.2c1.7,0.1,2.5,0,2.3-0.3c-0.2-0.3-1.1-0.4-2.2-0.2c-1.1,0.1-1.8,0.1-1.6-0.2
		c0.1-0.2,0-0.4-0.2-0.4c-0.3,0-0.5-0.2-0.5-0.5c0-0.5,3.1-0.2,4.1,0.4c0.8,0.5,1.7,0.5,1.5,0.1c-0.3-0.5,1.2-1.1,2.5-1
		c0.6,0.1,1.4-0.2,1.8-0.7c0.4-0.4,0.7-0.8,0.6-0.8c-0.1,0-2.1-0.1-4.4-0.2c-2.3-0.1-4.4-0.3-4.6-0.5c-0.2-0.2-0.7,0-1.1,0.4
		c-0.9,0.8-3.4,0.5-3.4-0.4c0-0.3,0.3-0.4,0.7-0.2c0.5,0.2,0.6,0,0.4-0.4c-0.2-0.5,0.3-0.6,2.6-0.5c6.7,0.5,12.7,0.6,12.7,0.2
		c0-0.7,1.6-0.5,2.7,0.3c1.2,0.9,1.8,0.9,1.5,0c-0.2-0.4,0-0.7,0.4-0.7c0.4,0,0.8,0.2,0.9,0.5c0.1,0.3,0.6,0.4,1.3,0.2
		c0.6-0.2,0.9-0.6,0.8-0.8c-0.2-0.3-0.5-0.3-0.7,0.2c-0.2,0.4-0.4,0.4-0.4,0.1c0-0.7-2.3-1.2-2.7-0.6c-0.1,0.2-0.9,0-1.7-0.6
		c-0.8-0.6-1.4-0.9-1.4-0.8c0,0.1-1,0-2.3-0.3c-4-0.8-4.7-0.9-7.4-1c-1.7,0-2.3-0.2-1.7-0.4c0.5-0.2,3.8-0.3,7.3-0.2
		c4.1,0.1,5.9,0,5.3-0.3c-0.5-0.2-1.7-0.5-2.7-0.5c-0.9,0-2.2-0.2-2.8-0.3c-2.7-0.7,0.1-1,10-0.8c7.6,0.1,10.7,0,10.7-0.4
		c0-0.3-0.3-0.4-0.6-0.2c-0.3,0.2-0.2,0,0.3-0.4c0.5-0.4,2.1-0.9,3.6-1c1.5-0.2,3.3-0.5,3.9-0.7c1.2-0.4,1.1-0.4-0.4-0.4
		c-0.9,0-1.6-0.2-1.6-0.5c0-0.2-0.4-0.5-0.8-0.6c-1-0.2,11.9-1,12.9-0.8c1,0.2,5.5-0.5,5.2-0.8c-0.7-0.7-6.6-1-11-0.6
		c-3.7,0.4-5.6,0.1-5.6-0.8c0-0.5,0.6-0.7,2.3-0.7c2.1,0,2.3-0.1,2.3-1.1c0-0.7,0.1-0.9,0.4-0.5c0.2,0.4,1.9,0.7,4.7,0.8
		c2.6,0.1,4.4,0.4,4.5,0.7c0.1,0.3,0.7,0.4,1.6,0.3c0.9-0.2,1.4-0.1,1.4,0.3c0,0.3,0.2,0.5,0.4,0.5c0.6,0,0.3-3.5-0.3-3.7
		c-0.3-0.1-0.6,0.3-0.7,0.9c-0.2,1.3-2.3,1.9-2.3,0.7c0-0.4,0.3-0.8,0.7-0.8c0.4,0,0.7-0.2,0.7-0.5c0-0.3-0.5-0.5-1.1-0.4
		c-0.6,0.1-1.3,0-1.7-0.2c-0.3-0.2-1.8-0.5-3.4-0.6c-2.7-0.3-2.8-0.3-3.3,1l-0.5,1.3l-1.3-1.2c-1.1-1-1.2-1.4-0.7-1.9
		c0.4-0.4,0.9-0.5,1.4-0.2c1.4,0.7,1.6,0.5,0.5-0.5c-1.2-1.1-1.9-1.2-2.2-0.4c-0.1,0.3-0.6,0.4-1,0.2c-0.8-0.3-0.8-0.4-0.1-1.1
		c0.4-0.4,1-0.6,1.2-0.5c0.7,0.4,0.6-0.5-0.1-1.1c-0.4-0.3-0.9-0.4-1.3-0.1c-0.9,0.6-1.4,0.6-1.4,0.1c0-0.2,0.3-0.4,0.6-0.4
		c0.3,0,1.1-0.2,1.8-0.3c0.7-0.2,1.9-0.3,2.8-0.3c0.9,0,1.4-0.2,1.3-0.5c-0.2-0.3,0.1-0.4,0.6-0.2c0.7,0.2,0.9,0,1-0.7
		c0.1-0.7-0.2-1-1.1-1c-0.6,0-1.2-0.2-1.2-0.5c0-0.3-0.4-0.3-1,0.1c-0.8,0.4-1.1,0.4-1.4,0c-0.3-0.4-0.4-0.4-0.6,0.1
		c-0.2,0.5-0.3,0.5-0.3-0.1c0-0.8-0.5-0.9-3.3-0.9c-1.3,0-1.6-0.2-1.6-1.2c0-1-0.3-1.2-2-1.5c-1.1-0.2-2.6-0.6-3.4-1
		c-0.8-0.4-3-1-4.9-1.3c-4.1-0.7-5.2-1.3-4-2.3c0.7-0.6,0.4-0.8-2.2-1.9c-3.2-1.4-5.4-3.1-3.4-2.6c0.8,0.2,1,0.1,1-0.8
		c0-0.7-0.3-1-1-1c-0.5,0-1-0.2-1-0.5c0-0.3,0.9-0.4,2.2-0.2c2.2,0.3,2.2,0.3,1.6-0.8c-0.4-0.6-1.2-1.2-1.9-1.3
		c-0.7-0.1-1.9-0.5-2.7-0.8c-0.8-0.3-2.4-0.8-3.6-1.1c-3.1-0.9-3.3-2-0.2-1.5c1.3,0.2,3,0.4,3.7,0.5c0.7,0.1,1.9,0.3,2.5,0.4
		c0.9,0.2,1.2,0.1,1.2-0.4c0-0.4-0.4-0.7-0.8-0.8c-0.6,0-0.6-0.1,0.2-0.5c2.5-1,0.7-2.6-3.7-3.2c-2.6-0.4-3.1-0.4-5-0.6
		c-0.5,0-0.8-0.3-0.8-0.6c0-0.4,0.8-0.5,2.5-0.3l2.5,0.3l-2.2-0.6c-1.3-0.4-2.5-0.5-3-0.2c-0.4,0.2-1.1,0.4-1.5,0.4
		c-0.4,0,0-0.3,0.8-0.7c1.2-0.6,2-0.6,4.8-0.3c1.9,0.3,3.6,0.4,3.8,0.2c0.2-0.1,0.4,0,0.4,0.3c0,0.4,0.5,0.5,1.3,0.2
		c1.7-0.4,2.6-1.2,1.4-1.2c-1.1,0-3.7-1.4-3.7-1.9c0-0.3,0.7-0.4,1.6-0.2c2,0.3,2.8,0.4,4,0.3c1.7-0.1-0.3-1.6-2.7-1.9
		c-1.2-0.2-2.3-0.5-2.5-0.8c-0.2-0.3-0.3,0-0.1,0.6c0.2,0.8,0.1,1.1-0.5,1.1c-0.5,0-0.8-0.4-0.8-1.2c0-1,0.3-1.3,1.9-1.7
		c1.1-0.3,2.1-0.4,2.4-0.2c0.2,0.2,1,0.1,1.6,0c0.8-0.2,1.1-0.6,1.1-1.3c-0.1-0.6-0.1-1.3-0.2-1.7c0-0.4-0.4-0.5-0.8-0.4
		c-0.5,0.2-0.7,0-0.7-0.7c0-0.6-0.4-1.1-1-1.3c-2-0.5-0.6-1.7,1.5-1.3c0.6,0.1,0.9,0.1,0.5-0.1c-0.3-0.2-0.5-0.5-0.3-0.7
		c0.2-0.2-0.3-0.4-1.1-0.4c-0.7,0-2-0.3-2.8-0.8c-0.9-0.5-2-0.6-3-0.5c-0.9,0.2-1.7,0.1-1.8-0.2c-0.3-0.5-0.1-0.6,3.2-0.7
		c3.3-0.1,3.2-0.5-0.5-1.2c-3-0.6-3.1-0.7-1.8-1c1.2-0.3,1.1-0.3-0.6-0.2c-1.4,0.1-1.9,0-1.7-0.3c0.2-0.3-0.1-0.4-0.9-0.2
		c-0.7,0.2-1.4,0.2-1.5,0c-0.2-0.2-1.5-0.3-2.9-0.4c-2.5-0.1-6.1-0.7-12.5-2c-1.7-0.4-4.3-0.9-5.8-1.1c-1.5-0.2-3.9-0.9-5.5-1.4
		c-1.6-0.5-3.4-1-4.2-1c-1.2,0-7.7-1-11.3-1.7l-1.4-0.3l1.2-0.6c0.6-0.3,1.9-0.5,2.8-0.4c1.1,0.2,1.5,0.1,1.3-0.3
		c-0.4-0.7-0.5-0.7,2.4,0.2c1.3,0.4,3.5,0.9,4.8,1c1.3,0.1,2.6,0.4,2.8,0.5c0.2,0.1,0.4,0,0.4-0.2s-0.7-0.6-1.4-0.8
		c-1.8-0.4-2.4-1.2-0.9-1.2c1.6,0,0.8-0.5-1.1-0.7c-1.2-0.1-1.4-0.1-0.9,0.3c1.1,0.7,0.1,0.6-1.4-0.2c-1.5-0.8-6.2-2-8.8-2.4
		c-0.9-0.1-2.6-0.6-3.6-1.2c-1.1-0.5-3.5-1.4-5.5-2c-1.9-0.6-3.4-1.2-3.3-1.5c0.1-0.2,0.7-0.3,1.3-0.2l1.1,0.2l-1-0.9
		c-0.5-0.5-1.5-1.3-2.2-1.7l-1.2-0.8l1.3,0.5c0.7,0.3,2.3,0.9,3.5,1.4c1.2,0.5,2.3,1,2.5,1c0.6,0-3.8-3.8-4.8-4.2
		c-0.5-0.2-1.4-0.7-1.9-1.2c-0.5-0.5-1.9-1.2-3.2-1.7c-1.2-0.5-2.4-1.1-2.6-1.5c-0.2-0.4-0.7-0.7-1-0.7c-0.4,0-1-0.5-1.4-1.1
		c-0.4-0.6-1.6-1.5-2.6-2c-1-0.5-4-1.9-6.6-3.2c-2.6-1.3-5.4-2.5-6.3-2.7c-0.8-0.2-1.6-0.7-1.8-1.1c-0.2-0.5,0.6-0.6,4.3-0.4
		c2.5,0.2,4.6,0.5,4.8,0.7c0.4,0.6,6.8,1.2,6.8,0.7c0-1-6.3-6.4-7.5-6.4c-0.3,0-0.6-0.6-0.7-1.3c-0.1-0.7-0.4-1.5-0.7-1.7
		c-1.4-0.9,0.4-1,2.8-0.2c2.1,0.7,2.9,0.8,3.7,0.4c0.6-0.3,1.6-0.6,2.3-0.7c2.2-0.3,1.1-2-2.1-3.1c-0.5-0.2-0.8-0.5-0.8-0.7
		s-0.9-0.9-2.1-1.6c-2.4-1.4-4-3-3.6-3.6c0.4-0.6,1.9-0.2,3.1,0.9c2.3,2.1,4.7,2.6,5.2,1c0.2-0.5,0.5-1,0.8-1c0.3,0,0.2-0.4-0.3-0.9
		c-0.7-0.8-0.7-0.9,0.2-1.5c0.7-0.5,0.9-0.8,0.5-1.2c-0.7-0.9-0.2-1.3,2.1-1.3c1.6,0,1.8-0.1,0.9-0.5c-0.9-0.4-1-0.6-0.5-1.7
		c0.6-1.4,1.2-1.6,1.6-0.5c0.2,0.4,0.6,0.7,1,0.7c0.4,0,0.7,0.3,0.7,0.7c0,0.4,0.3,0.7,0.6,0.7c3,0.1,5.8,0.5,6.7,1
		c0.6,0.3,1.3,0.4,1.7,0.3c0.4-0.1,1.3,0,2,0.2c0.7,0.3,3.3,0.9,5.7,1.3c3.5,0.7,4.5,0.7,4.9,0.2c0.3-0.5,1.1-0.4,3.5,0.2
		c2.5,0.7,3.1,0.7,3.5,0.2c0.2-0.4,1.3-0.7,2.5-0.7c2.4,0,7.7,0.6,8.4,1c0.3,0.2,1.8,0.3,3.3,0.4c1.6,0.1,3,0.3,3.2,0.6
		c0.2,0.3,1.3,0.5,2.5,0.5c1.2,0,3.4,0.1,4.8,0.2c3.1,0.3,6.7,0.5,7.7,0.4c0.6,0,0.5-0.2-0.2-0.8c-1.1-0.8-0.2-1,1.2-0.2
		c1.6,0.9,6.2,0.9,7.8,0.1c1-0.5,1.6-0.6,1.8-0.2c0.6,1,3.2,1.6,7.5,1.7c2.4,0.1,4.8,0,5.2-0.3c0.6-0.3,0.8-0.3,0.7,0.1
		c-0.1,0.3,0.4,0.7,1,1c1.3,0.5,1.4,0.1,0.2-0.8C-9,124.1-9,124-8,124c0.6,0,1-0.2,0.9-0.4c-0.3-0.5,4.3-0.5,4.8,0
		c0.5,0.5,2.1,0.4,2.1-0.1c0-0.3-0.2-0.4-0.5-0.2c-0.2,0.2-0.6,0.1-0.7-0.2c-0.2-0.2,0.4-0.6,1.2-0.8c1.1-0.3,1.6-0.1,2,0.4
		c0.3,0.5,1.1,0.8,2.1,0.8c1.5,0,1.6-0.1,1.2-1c-0.4-0.7-1.2-1-2.9-1.3c-1.3-0.2-2.6-0.6-3-1c-0.5-0.5-0.2-0.7,1.5-0.7
		c1.2,0,1.9-0.2,1.7-0.5c-0.2-0.3,0-0.5,0.5-0.5c0.4,0,0.8-0.4,0.8-0.8c0-0.4,0.1-0.7,0.3-0.5c0.1,0.1,0.8-0.2,1.5-0.9
		c0.7-0.6,1.5-1.2,1.9-1.2c0.8,0,0.9-0.8,0.1-1.1c-0.4-0.2-0.4-0.3,0-0.3c0.3,0,0.9,0.3,1.3,0.7c0.8,0.8,3,1,2.5,0.3
		c-0.1-0.2,0.3-0.7,1-1c1.6-0.7,2.1-0.7,2.1,0.1c0,0.4,1.1,0.9,2.7,1.3c2.4,0.6,2.8,0.6,4-0.2c1.4-0.8,2.1-0.7,1.6,0.4
		c-0.1,0.4-0.1,0.7,0.2,0.7c0.3,0,0.5-0.3,0.5-0.7c0-0.4,0.1-1.1,0.2-1.5c0.1-0.6,0.7-0.7,2.8-0.7c1.5,0,3.4,0,4.2,0
		c2.7-0.1,0.1-1-3.1-1.1c-1.6,0-3-0.3-3-0.5c0-0.4,16.9-0.1,20.3,0.3c0.7,0.1,2.4,0.3,3.7,0.5c2.2,0.3,2.5,0.2,2.5-0.4
		c0-0.9,0-0.9,5.6-0.3c2.4,0.3,6.5,0.6,9.2,0.7c2.7,0.1,7.7,0.3,11.1,0.4c4.1,0.2,5.9,0.1,5.1-0.2c-0.9-0.3-0.7-0.4,1-0.2
		c3.3,0.4,9.7,0.5,9.7,0.1c0-0.2-0.8-0.4-1.8-0.5c-1-0.1-0.3-0.2,1.6-0.2c3.4-0.1,8.8,0.7,5.8,0.8c-2.1,0.1-1.1,0.6,1.4,0.8
		c1.2,0.1,2.2-0.1,2.2-0.3c0-0.5,7.2-0.2,7.7,0.4c0.2,0.2-0.3,0.2-1,0.1c-0.9-0.2-1.3,0-1.3,0.4c0,0.8,2.4,0.4,3-0.5
		c0.2-0.3,0.8-0.4,1.3-0.2c0.6,0.1,1,0,1-0.2c0-0.3,2-0.4,5.9-0.2c3.8,0.2,5.5,0.1,4.8-0.2c-0.6-0.2-1.1-0.5-1.1-0.7
		c0-0.2,6.8,0,10.9,0.5c1.3,0.1,9.1,0.4,17.2,0.5c8.1,0.2,15.1,0.5,15.6,0.7c1.1,0.6,2.8,0.5,2.8-0.1c0-0.3,2.7-0.5,8.2-0.4
		c4.5,0.1,8.1,0.3,8,0.5c-0.1,0.2,0.5,0.4,1.3,0.4c0.9,0,1.4-0.2,1.2-0.5c-0.2-0.3,0.1-0.4,0.9-0.2c0.8,0.2,1.2,0.1,1.2-0.2
		c0-0.4,0.3-0.4,1.1,0.1c1.3,0.7,1.4,0.7,3,0.8c0.9,0,1.1,0.3,0.9,1c-0.1,0.5-0.5,1-0.7,1c-0.3,0-0.3-0.3-0.1-0.6
		c0.2-0.3,0.1-0.4-0.2-0.2c-0.3,0.2-0.5,0.5-0.3,0.8c0.1,0.2-0.2,0.5-0.8,0.6c-0.6,0.1-0.1,0.2,1.2,0.1c1.3-0.1,2.5-0.3,2.7-0.5
		c0.2-0.2,0-0.3-0.5-0.1c-0.6,0.2-0.8,0-0.7-0.6c0-0.5,0.2-0.9,0.4-0.9c0.2,0,0.2-0.3,0.1-0.7c-0.2-0.6,2.2-0.7,16.8-0.5
		c9.4,0.1,17.7,0.2,18.5,0.3c1.9,0.2,2.3,1.3,0.4,1.4c-1.2,0-1.2,0.1-0.4,0.4c1.3,0.5,2.8,0.1,2.5-0.7c-0.5-1.2,0.7-1.6,2.4-0.9
		c1.9,0.8,2.7,0.9,1.7,0.2c-0.5-0.3-0.1-0.5,1.6-0.5c1.7,0,2.3,0.2,2.3,0.7c0,0.5,0.5,0.7,1.2,0.7c1.3,0,1.6-0.7,0.6-1.1
		c-0.3-0.1,0.8-0.3,2.5-0.3c2.7,0,3,0.1,2.5,0.7c-0.4,0.5-0.4,0.7,0,0.7c0.3,0,0.7-0.3,0.8-0.7c0.2-0.5,0.7-0.7,1.9-0.4
		c0.9,0.2,1.7,0.1,1.9-0.2c0.2-0.3,0.9-0.4,1.6-0.2c0.7,0.2,2.7,0.3,4.3,0.3c1.8,0,2.9,0.2,2.7,0.5c-0.2,0.3,0,0.3,0.3,0.1
		c0.5-0.3,2.2,0.8,1.7,1.3c-0.1,0.1,0.4,0.1,1.2,0c0.8-0.1,1.6-0.4,1.7-0.7c0.2-0.3-0.3-0.3-1-0.1c-0.8,0.2-1.2,0.1-1.2-0.3
		c0-0.4,0.5-0.5,1.6-0.3c0.9,0.1,2.6,0.1,3.9-0.1c1.3-0.2,2.4-0.2,2.5-0.1c0.1,0.1,1.5,0.2,3,0.2c1.5,0,2.1,0.1,1.2,0.2
		c-0.9,0.1-1.6,0.4-1.6,0.6c0,0.5,4.3,0.5,4.6,0c0.1-0.2,0.5-0.4,0.8-0.4c0.3,0,0.3,0.2,0.2,0.5c-0.2,0.3,0,0.5,0.4,0.5
		c0.4,0,0.9-0.2,1-0.5c0.2-0.3,0.7-0.5,1.3-0.5c0.5,0,0.8,0.2,0.7,0.5c-0.4,0.7,2.8,0.6,3.5-0.1c0.5-0.5,0.6-0.5,0.6,0
		c0,0.3,0.3,0.6,0.7,0.6c0.4,0,0.7,0.2,0.7,0.5c0,0.3-0.2,0.5-0.5,0.5c-0.3,0-0.4,0.2-0.2,0.5c0.2,0.3,0.6,0.3,1.1,0.2
		c0.5-0.2,0.7-0.1,0.5,0.2c-0.2,0.4,0.3,0.4,1.7,0.3c1.1-0.2,1.9-0.1,1.7,0.2c-0.3,0.5,2.5,0.7,5.3,0.4c3.7-0.5,2.1-1.1-2.7-1.1
		c-2.6,0-5.1-0.1-5.6-0.3c-1.1-0.4-0.6-1.2,0.8-1.2c0.6,0,1.3-0.3,1.6-0.6c0.4-0.4,0.7-0.4,1.2,0c0.4,0.3,1.4,0.5,2.3,0.4
		c0.9-0.1,1.9,0.1,2.3,0.3c0.5,0.4,0.8,0.3,1.2-0.2c0.6-0.8,2.9-0.7,2.4,0.1c-0.2,0.3-0.1,0.4,0.2,0.2c0.9-0.5,4.4-0.7,4.7-0.2
		c0.2,0.3,0.5,0.3,0.9-0.1c0.5-0.4,0.7-0.3,0.9,0.2c0.2,0.6,0.9,0.7,2.8,0.5c1.4-0.1,3.3-0.4,4.1-0.7c1-0.3,1.7-0.3,1.8,0
		c0.4,0.6,2.3,0.6,3-0.1c0.5-0.5,0.6-0.4,0.6,0.1c0,0.5,0.4,0.5,1.3,0.3c1.9-0.5,5.1-0.3,5.5,0.4c0.2,0.3,0.4,0.4,0.4,0.1
		c0-0.6,6.7-0.6,7.6-0.1c0.3,0.2,0.9,0,1.3-0.4c0.4-0.4,1-0.7,1.4-0.7c0.5,0,0.4,0.1-0.1,0.5c-0.9,0.6-0.4,0.6,4.8,0.4
		c5.5-0.2,8.8-0.1,10.9,0.3c2.5,0.4,2.9,0.4,5.7,0c1.6-0.3,2.3-0.2,2.3,0.2c0,0.3,0.8,0.5,1.9,0.5c2.1,0,2.7-0.8,0.8-1.1
		c-0.8-0.2-0.7-0.2,0.4-0.3c0.8,0,1.9-0.2,2.4-0.4c0.6-0.2,0.7-0.1,0.5,0.2c-0.3,0.5-0.1,0.6,2.1,0.8c0.4,0,1,0.2,1.4,0.4
		c0.3,0.2,0.9,0.1,1.3-0.2c0.4-0.3,1.8-0.5,3.6-0.4c1.6,0.1,2.9,0,2.9-0.2c0-0.2,0.5-0.2,1.1,0c1.6,0.5,11,0.6,12.3,0.2
		c0.6-0.2,1.2-0.2,1.5,0c0.6,0.6,13.2,0.6,13.2,0c0-0.1,0.4-0.3,1-0.3c0.5,0,1,0.1,1,0.3c0,0.2,1.6,0.4,3.5,0.4c1.9,0,4.2,0.1,5,0.1
		c2,0.1,5.4,0.1,7.7,0c1.1,0,2.9-0.1,4.1,0c6.2,0.1,20.7,0.2,21.3,0.1c0.4-0.1-0.4-0.3-1.7-0.4c-1.4-0.2,1.7-0.4,7.7-0.4
		c5.6,0,10.9,0.1,11.9,0.3l1.7,0.3l-1.9,0.3c-1.9,0.3-1.8,0.3,0.7,0.4c1.9,0,2.4-0.1,1.9-0.4c-0.5-0.3-0.3-0.5,1.1-0.5
		c1.3,0,1.7,0.2,1.5,0.6c-0.2,0.4,0,0.3,0.5-0.1c0.5-0.4,0.8-0.5,0.5-0.1c-0.2,0.3-0.2,0.6,0,0.7c2,0.3,3.1,0.3,4.7,0.1l1.9-0.3
		l-1.5-0.3c-0.9-0.2,0.1-0.3,2.5-0.3c2.2,0,3.8,0.1,3.5,0.2c-0.9,0.3-0.5,1,0.5,1c0.5,0,0.9-0.2,0.7-0.5c-0.2-0.3,0.2-0.5,0.9-0.5
		c0.7,0,1.2,0.2,1.2,0.5c0,0.3,0.3,0.5,0.8,0.5c0.4,0,0.6-0.2,0.5-0.4c-0.1-0.2,1.1-0.5,2.7-0.5c1.6,0,3.1-0.2,3.3-0.3
		c0.2-0.1,0.5,0,0.7,0.3c0.2,0.3,0.5,0.4,0.8,0.2c0.2-0.2,0.3,0,0.2,0.4c-0.2,0.5,0.3,0.6,1.9,0.6c1.4,0,2.2-0.2,2.2-0.6
		c0-0.3,0.2-0.6,0.5-0.6c0.3,0,0.5,0.2,0.5,0.5c0,0.3,0.7,0.5,1.6,0.4c1.3,0,1.4-0.1,0.6-0.4c-0.7-0.3-0.3-0.4,1.6-0.4
		c1.5,0,2.4,0.2,2.3,0.4c-0.2,0.2,0.2,0.6,0.7,0.8c0.7,0.2,1.2,0,1.7-0.6c0.4-0.5,0.6-0.6,0.5-0.3c-0.2,0.3,0.3,0.6,1.4,0.7
		c2,0.2,2.8,0,2.4-0.6c-0.2-0.3,0.6,0,1.8,0.6c2,1,2.9,1,6.7,0.1c0.9-0.2,1.1-0.1,0.8,0.3c-0.5,0.9,2,0.2,3-0.7
		c0.8-0.8,1.4-0.9,1.8-0.2c0.2,0.3,0,0.5-0.3,0.5c-1.1,0,1,1.7,2.2,1.8c1.5,0.1,4.3-1.2,3.8-1.8c-0.2-0.3,0.2-0.5,0.8-0.5
		c0.9,0,1,0.1,0.5,0.7c-0.5,0.6-0.1,0.7,3.7,0.8c2.4,0,4.5,0,4.8,0c0.3-0.1,5.1-0.1,10.6-0.1c5.7,0,9.5-0.2,8.7-0.4l-1.5-0.4
		l1.6-0.1c3.4-0.3,4.6-0.1,4.2,0.5c-0.5,0.8,6.4,0.7,7.2,0c0.6-0.6,1.9-0.6,1.5,0c-0.2,0.3,0.2,0.5,0.8,0.5c0.6,0,2.7,0.1,4.6,0.3
		c3.1,0.2,3.5,0.1,3.7-0.6c0.2-0.7,0.2-0.7,0.3-0.1c0,0.7,0.9,0.8,6.2,0.9c8.5,0.1,16.4,0.3,29.1,0.7c6,0.2,19.8,0.4,30.7,0.5
		c10.9,0.1,20.7,0.4,21.7,0.7c1,0.3,2.1,0.4,2.3,0.3c0.2-0.1,1.3-0.3,2.4-0.4c1.2-0.1,2.7-0.3,3.4-0.5c0.8-0.2,1.3-0.1,1.3,0.2
		c0,0.3,1.6,0.4,5,0.3c2.7-0.1,5.6-0.2,6.4-0.1c0.8,0.1,4.9,0.1,9.2,0c4.3-0.1,8.6-0.1,9.7-0.1c1.1,0,37.6,0.1,81.3,0.3
		c43.6,0.1,85.4,0.2,92.8,0.3c10.7,0,13.6,0.2,14.1,0.7c0.5,0.5,1.8,0.7,4.5,0.6c2.1,0,6.7,0.1,10.2,0.3c3.6,0.2,6.4,0.2,6.4-0.1
		c0-0.5,2-0.5,2.8,0c0.9,0.6,8.5,1.1,10.3,0.7c0.9-0.2,1.8-0.2,2.1,0.1c0.2,0.2,1.1,0.1,2-0.3c2-0.8,2.8-0.9,2.4-0.1
		c-0.2,0.4,0.3,0.4,1.5,0.3c2.5-0.4,2.5-0.4,1.1-0.8c-1.1-0.3-1-0.4,0.6-0.4c1.7,0,3,1.1,1.7,1.5c-1,0.3,10.5,0,12.6-0.4
		c1.3-0.2,2.1-0.2,2.1,0.1c0,0.3,0.4,0.6,1,0.7c0.5,0.1,0.8,0.1,0.7-0.2c-0.1-0.2,0.1-0.4,0.6-0.4c0.5,0,1.2-0.2,1.6-0.5
		c0.6-0.4,0.5-0.5-0.4-0.3c-0.6,0.1-1.8,0.1-2.7,0c-1.5-0.3-1.5-0.3-0.3-0.7c2.2-0.6,4.4-0.5,4.7,0.3c0.2,0.6,0.5,0.6,1.4-0.3
		c1.1-1,2.2-0.9,2.2,0.2c0,0.7,3.3,2.4,3.8,2c0.1-0.1,0-0.3-0.4-0.3c-0.6,0-0.6-0.1,0-0.5c0.4-0.3,2.5-0.5,4.8-0.5
		c3.6,0,4.1,0.1,4.9,1.1c0.6,0.7,0.9,0.8,0.9,0.4c0-0.4,0.3-0.5,0.7-0.4c0.4,0.1,0.9,0.1,1.3-0.2c0.4-0.2,0.9-0.2,1.2,0.1
		c0.3,0.3,2,0.4,3.8,0.3c1.8-0.1,3.2,0,3.2,0.2c0,0.6,2,1,2.4,0.4c0.3-0.5,2.8-0.7,5.6-0.5c0.9,0.1,0.9,0.1,0.1,0.5
		c-1.3,0.7-1,1.2,0.6,1.1c3.1-0.1,3.4-0.2,3.2-0.6c-0.2-0.2-0.1-0.6,0.2-0.8c0.3-0.2,0.6,0.1,0.8,0.5c0.2,0.6,0.7,0.7,1.8,0.5
		c0.8-0.2,2.2-0.1,3.1,0.2c0.9,0.2,1.5,0.3,1.3,0.1c-0.3-0.5,4.4-1.1,5.1-0.7c0.3,0.2,0.7,0,1-0.3c0.3-0.5,0.5-0.4,0.7,0.4
		c0.2,0.6,0.5,1.1,0.8,1.1c0.3,0,0.4-0.3,0.2-0.7c-0.2-0.5,0-0.7,0.7-0.7c0.5,0,0.9,0.2,0.7,0.5c-0.2,0.2,0.8,0.6,2,0.8
		c1.3,0.2,2.6,0.5,3.1,0.7c0.4,0.2,1,0.2,1.4,0c0.5-0.3,0.4-0.5-0.3-0.9c-0.5-0.3-1.2-0.4-1.5-0.3c-0.3,0.1-0.7,0-0.9-0.3
		c-0.2-0.3,0-0.5,0.3-0.4c0.4,0.1,0.6-0.1,0.5-0.5c-0.2-0.9,0.7-0.8,1,0.1c0.4,1.1,3.3,0.9,4.1-0.2c0.3-0.5,0.8-1,1.1-1
		s0.4,0.2,0.2,0.5c-0.2,0.3,0.1,0.5,0.7,0.5c1.4,0,2.5,0.5,2.2,1c-0.1,0.2,0.3,0.4,1,0.4c1.1,0,1.2,0.1,0.8,0.9
		c-0.3,0.5-0.4,1-0.2,1.2c0.2,0.2-0.5,0-1.5-0.3c-1.9-0.6-4.2,0.2-4.2,1.4c0,0.4-0.7,0.7-2.1,0.7c-1.1,0-1.6,0.2-1,0.3
		c1.2,0.2,1.4,0.9,0.5,1.3c-0.3,0.1,0.5,0.2,1.9,0.2c2.4-0.1,2.5,0,2.8,1.2c0.2,0.9,0.5,1.2,1,1c0.4-0.2,0.7,0,0.7,0.3
		c0,0.3-0.7,0.6-1.6,0.6c-1.5,0.1-1.5,0.1,0.4,0.4c1.4,0.3,1.6,0.4,0.7,0.5l-1.2,0.1l1.2,0.4c0.7,0.2,0.9,0.4,0.5,0.4
		c-0.6,0-0.6,0.2,0,0.8c0.4,0.4,0.7,1.1,0.8,1.6c0.1,0.4,0.4,0.9,0.7,1c0.3,0.1,0.2,0.4-0.3,0.8c-0.8,0.6-0.7,0.7,0.7,1.7
		c0.8,0.6,1.4,1.3,1.3,1.5c-0.1,0.2,0,0.4,0.4,0.4c0.4,0,0.4,0.2-0.2,0.5c-0.5,0.3-1.6,0.3-2.6,0.1c-1.4-0.3-2.3-0.2-3.7,0.5
		c-1,0.5-1.8,1.2-1.8,1.5c0,1.8-7.5,5.1-11.4,5.1c-0.9,0-1.7,0.3-1.8,0.7c-0.2,0.4-0.6,0.7-1,0.7c-1.2,0-1.3,1.4-0.2,2.6l1.1,1.1
		l-2.2,0.3c-1.2,0.2-2.7,0.3-3.4,0.4c-1,0-1.1-0.1-0.5-0.5c0.5-0.4,0.2-0.4-1.2-0.1c-1.1,0.2-3,0.3-4.3,0.3
		c-1.5-0.1-2.5,0.1-2.8,0.5c-0.4,0.7-4.8,1-4.8,0.3c0-0.4,1.7-0.6,3.5-0.4c0.5,0,0.8-0.1,0.8-0.4s-0.3-0.5-0.6-0.6
		c-1.9-0.1-5.1,0.2-6.9,0.8c-1.2,0.3-2.2,0.5-2.3,0.4c-0.1-0.1-2.8,0-5.8,0.4c-3.1,0.4-5.3,0.8-5,1c0.4,0.3,0.4,0.4-0.2,0.4
		c-0.4,0-0.9,0.2-1,0.5c-0.1,0.2-1.8,0.6-3.8,0.8c-3.4,0.3-5.3,0.7-3.1,0.7c0.5,0,1.2,0.3,1.6,0.6c0.5,0.5,0.7,0.5,0.9,0
		c0.1-0.3,0.6-0.6,1-0.6c0.6,0,0.7,0.1,0.2,0.4c-0.7,0.5,3.8,1,8,1c3.5,0,3,0.5-0.7,0.7c-1.6,0.1-3.5,0.5-4.3,0.8l-1.5,0.6l1.7,0.3
		c1,0.2,1.3,0.4,0.7,0.4c-0.8,0.1-0.8,0.2,0.2,0.5c1,0.4,1,0.4-0.5,0.2c-0.9-0.1-2.7,0-3.9,0.2c-1.2,0.2-3.1,0.5-4.3,0.7
		c-1.2,0.1-2.8,0.4-3.6,0.7l-1.5,0.4l2,0.4c1.1,0.2,2.2,0.2,2.5,0.1c0.8-0.5,9.2-0.7,9.5-0.2c0.2,0.2,0.5,0.5,0.9,0.4
		c0.3,0,0.3-0.2-0.1-0.5c-0.5-0.3-0.2-0.5,1.4-0.5c1.3,0,2,0.2,1.8,0.5c-0.3,0.5,4.3,0.2,6-0.3c0.4-0.1,0.5,0,0.3,0.4
		c-0.3,0.4,0.5,0.5,2.8,0.3c1.9-0.2,2.7-0.1,2.1,0.1c-0.6,0.2-2.5,0.6-4.4,0.8c-1.8,0.2-4.3,0.8-5.4,1.3c-2.2,0.9-4.3,1.3-3,0.5
		c0.4-0.3,0.1-0.4-1-0.3c-0.9,0.1-2.1,0.2-2.6,0.2c-0.8,0-0.8,0.1-0.3,0.5c0.7,0.5,0.8,0.5-3.8,1.4c-1.5,0.3-1.8,0.5-0.9,0.5
		c0.7,0,1.4,0.3,1.5,0.6c0.1,0.3,1.1,0.1,2.5-0.5c1.9-0.8,3.3-1,6.8-1c2.5,0,4.7-0.2,5-0.5c0.5-0.4,0.8-0.4,1.2,0.1
		c1.4,1.4,0.4,2.6-2.3,3.2c-2.3,0.4-2.1,0.7,0.7,1c1.2,0.1,4.1,0.5,6.5,0.8c2.4,0.3,5.7,0.6,7.3,0.8c5,0.4,7,0.7,7.3,1.3
		c0.2,0.4-1.4,0.5-5.4,0.3c-3.2-0.1-5.2-0.1-4.5,0.1s2.8,0.4,4.7,0.4c1.9,0,4.5,0.3,5.8,0.5c1.3,0.3,3.9,0.7,5.9,1
		c1.9,0.3,3.5,0.6,3.4,0.7c-0.1,0.1-1.5,0.3-3.1,0.4c-2.1,0.2-2.7,0.2-2.2-0.2c0.5-0.4,0-0.4-1.9-0.3c-1.5,0.1-3.1,0.3-3.7,0.3
		c-0.6,0-1.2,0.2-1.4,0.5c-0.2,0.3-0.1,0.5,0.2,0.5c0.3,0,0.5,0.2,0.4,0.5c-0.2,0.7,3.9,2.3,6,2.4c1.2,0,1.8,0.2,1.8,0.7
		c0,0.4,0.3,0.8,0.6,1c0.8,0.4-1.5,0-2.8-0.4c-0.6-0.2-0.6-0.1,0.2,0.4c0.7,0.4,1.6,0.7,2.1,0.8c0.9,0,1.2,1,0.3,1
		c-0.3,0-0.4,0.1-0.3,0.3c0.2,0.2,1.6,0.4,3.1,0.5c1.5,0.1,4.8,0.3,7.3,0.4c3,0.2,4.7,0.5,5.2,1c0.4,0.4,2,0.9,3.6,1
		c1.6,0.2,2.7,0.5,2.4,0.7c-0.4,0.2-0.2,0.5,0.6,0.7c1.8,0.5,3.3,0.4,3.3-0.2c0-0.4,0.8-0.5,2.6-0.2c1.4,0.2,2.7,0.1,2.9-0.1
		c0.2-0.3-3.2-1.2-8.8-2.3c-0.9-0.2-1.5-0.4-1.4-0.5c0.3-0.3,11.2,0.8,11.5,1.3c0.3,0.5,5.3,1.7,5.6,1.3c0.1-0.1,1.7,0.1,3.5,0.6
		c1.8,0.5,5.1,1.2,7.3,1.5c2.3,0.3,4.3,0.8,4.6,1c0.3,0.2,1.4,0.6,2.6,0.9c1.2,0.3,2,0.6,1.9,0.8c-0.1,0.1-1.9-0.3-4-0.8
		c-2.1-0.5-5.7-1.3-8-1.6c-2.3-0.4-4.7-0.8-5.3-0.9c-4.8-1.2-6.8-1.3-7.9-0.6c-1.1,0.7-1.1,0.7,0.4,0.7c0.8,0,3.2,0.3,5.3,0.7
		c2.1,0.4,5.5,0.9,7.5,1.2c3.8,0.5,5.6,1.1,9.2,2.8c1.7,0.8,1.9,1,0.8,0.9c-0.9-0.1-1.3,0-1.3,0.5c0,0.5-0.5,0.7-2.2,0.5
		c-1.2-0.1-2.2,0-2.2,0.2c0,0.2,0.1,0.4,0.1,0.4c0.1,0,2,0.7,4.2,1.5l4.1,1.5l-2.9-0.3c-3.3-0.4-5.9-0.6-10.6-0.9
		c-3.3-0.2-3.3-0.2-1.8,0.5c0.9,0.4,1.6,0.8,1.6,0.8c0,0.2-3.3,0-6.9-0.4c-2.3-0.3-2.8-0.2-2.8,0.4c0,0.9,4.2,1.6,12.3,2
		c11.7,0.6,13.3,0.8,13.3,1.8c0,0.6-0.4,0.9-1.1,0.9c-1,0-1,0.1-0.1,0.5c0.6,0.3,0.1,0.3-1.7,0.2c-2.5-0.2-2.6-0.2-1.7,0.5
		c0.5,0.4,1.3,0.8,1.8,0.8c0.4,0,1.1,0.4,1.5,0.8c0.6,0.7,0.6,0.8-0.3,0.4c-1.4-0.6-5.5-1.3-6.2-1.1c-0.3,0.1,1.1,0.6,3.1,1
		c2,0.5,3.9,0.7,4.2,0.5c0.3-0.2,0.5,0.1,0.5,0.7c0,0.8-0.2,0.9-1.4,0.7c-1.6-0.3-2.5,0.6-1,1c1.4,0.4,0.3,1.4-2.2,1.9l-1.9,0.4
		l1.9,0.4c2.5,0.5,4.6,1.5,4.6,2c0,0.2-1.2,0.3-2.8,0.1c-3.8-0.5-11.4-1.1-11.7-0.9c-0.1,0.1,0.4,0.4,1.1,0.6c2.7,1,1,2.1-2,1.3
		c-1.7-0.5-2.1-0.4-3.4,0.5l-1.5,1l-2.3-1.1c-1.4-0.6-3.3-1.1-4.9-1.1c-1.4,0-2.5-0.2-2.5-0.4c0-0.2-0.9-0.3-2.1-0.3
		c-1.6,0.1-2.2,0.4-2.5,1.2c-0.3,0.7-0.7,1-1.2,0.8c-0.7-0.3-7.4-1.2-15-2.1c-11-1.3-14.5-1.5-16.3-1.3c-1.1,0.1-2.2,0.1-2.4-0.1
		c-0.2-0.2-2.2-0.3-4.4-0.1c-3.3,0.2-3.9,0.4-3.4,0.9c0.8,1,0.1,1.4-1.2,0.8c-1.3-0.6-4.8-1.6-5.7-1.6c-0.5,0-0.5,0.1-0.1,0.6
		c0.3,0.3,0.6,1,0.6,1.5c0,0.6,0.4,0.9,1.2,0.9c0.6,0,1.3,0.2,1.5,0.5c0.2,0.3,0.5,0.3,0.9,0.1c0.7-0.6,18.3-0.4,19.2,0.2
		c0.4,0.2,2.8,0.5,5.3,0.5c4.7,0.1,18.2,1,21.4,1.4c1,0.1,1.9,0.6,2,1c0.2,0.6-0.7,0.7-7.1,0.4c-4.2-0.2-7.5-0.5-7.7-0.8
		c-0.2-0.3-0.5-0.2-0.7,0.3c-0.4,0.6-1,0.7-4,0.3c-2.7-0.3-3.7-0.3-4,0.1c-0.3,0.5-0.5,0.5-1,0c-0.3-0.3-1.8-0.6-3.3-0.6
		c-2.3,0-2.5,0.1-1.5,0.5c0.7,0.3,1.7,0.4,2.3,0.2c0.7-0.2,1.2,0,1.4,0.5c0.2,0.5,0.6,0.6,1.3,0.4c1.3-0.4,4.4-0.3,5.8,0.3
		c1.4,0.5-6,0.6-9.7,0.1c-1.5-0.2-2.6-0.2-2.7,0.1c-0.2,0.5-2.3,0-2.3-0.6c0-0.2,0.5-0.5,1.1-0.7c1.1-0.3,1.1-0.3,0.1-1
		c-1.2-0.9-1.8-0.9-1.4-0.1c0.1,0.4-0.1,0.9-0.5,1.3c-0.6,0.5-1,0.5-1.7,0.1c-0.5-0.3-1.3-0.6-1.7-0.6c-0.7,0-0.7,0.1,0.1,0.7
		c1.2,0.9,0.5,0.9-3.2,0.3c-3.2-0.6-8.8-0.9-19.3-1.2c-4.4-0.1-8.3-0.4-8.7-0.5c-0.4-0.1-2.2-0.3-4.1-0.4c-2.1-0.1-3.4-0.3-3.5-0.7
		c-0.2-0.6-5.5-0.3-5.9,0.4c-0.4,0.6-7.7,1.1-7.7,0.5c0-0.3,0.4-0.5,0.8-0.6c0.5,0,0.4-0.2-0.4-0.4c-0.7-0.2-2.5-0.2-4.1,0.1
		c-1.6,0.2-4.7,0.3-6.9,0.1c-2.6-0.2-4.2-0.1-4.6,0.2c-0.8,0.6-3.3,0.9-4.1,0.4c-0.3-0.2-0.9-0.1-1.3,0.2c-0.5,0.4-0.9,0.4-1.6,0.1
		c-0.7-0.4-1.1-0.3-1.5,0.1c-0.8,0.9-0.2,1.3,1.6,0.9c1-0.2,1.4-0.1,1,0.2c-0.7,0.7-4.3,1.3-3.9,0.7c0.2-0.3,0.1-0.6-0.2-0.8
		c-0.3-0.2-0.5-0.1-0.5,0.2s-0.2,0.5-0.5,0.5c-0.3,0-0.4-0.3-0.4-0.6c0.1-0.7-2.9-0.9-4-0.3c-0.6,0.3-0.5,0.4,0.3,0.2
		c1.4-0.3,2.6,0.5,2.3,1.4c-0.3,0.7,0,0.7,1.8,0.4c1.2-0.2,3.7-0.4,5.5-0.6c5.8-0.3,6.8-0.5,7.3-0.8c0.3-0.2,2.5-0.5,4.8-0.6
		c2.3-0.1,4.4-0.2,4.5-0.2c0.1,0-0.1-0.2-0.5-0.5c-0.6-0.4-0.6-0.5,0.2-0.5c2.2,0,2.3,0.8,0.2,1.6l-2.1,0.7l1.5,0.6
		c0.8,0.3,2,0.5,2.8,0.4c1.6-0.2,1.7,0,0.2,0.6c-0.9,0.3-0.7,0.4,0.8,0.4c1.1,0,2.2-0.2,2.5-0.5c0.4-0.3,0.6-0.2,0.6,0.3
		c0,1.1,0.6,1,1.3-0.2c0.5-0.9,0.5-1-0.6-1.4c-1.8-0.7-1.5-0.9,1.3-0.9c2.4,0,2.5,0.1,2.6,1.2c0,0.7-0.1,1.2-0.4,1.2
		c-0.2,0-0.4,0.2-0.4,0.5c0,0.3,0.7,0.5,1.7,0.3c0.9-0.1,1.6,0,1.4,0.2c-0.1,0.2-2.4,0.5-5,0.7c-2.7,0.2-4.8,0.5-4.8,0.8
		c0,0.2-0.3,0.4-0.8,0.4c-0.6,0-0.7,0.3-0.4,1.1c0.3,1,0.3,1-0.5,0.2c-0.5-0.5-1.2-0.8-1.7-0.8c-1.6,0-5.8,1.6-5.8,2.2
		c0,0.4-0.7,0.7-1.8,0.8c-1.8,0.1-1.8,0.2-0.7,0.8c0.6,0.4,1.9,0.7,2.8,0.7c1.5,0,1.6,0.1,0.8,0.7c-0.8,0.6-0.7,0.6,0.4,0.6
		c1.3,0,1.3-0.2,0.9-3c0-0.2-0.4-0.4-0.9-0.4c-1.4,0-0.5-0.3,1.7-0.7c1.4-0.2,2-0.2,1.8,0.2c-0.2,0.3,0.2,0.5,0.8,0.5
		c0.9,0,1,0.1,0.4,0.5c-0.5,0.3-0.5,0.5-0.1,0.5c0.3,0,0.6,0.3,0.6,0.7c0,0.8-0.8,1-1.2,0.2c-0.2-0.3-0.8-0.5-1.4-0.5
		c-1,0-1,0,0.1,0.7c0.7,0.4,1.8,0.7,2.4,0.8c0.7,0,0.1,0.3-1.5,0.7l-2.7,0.6l4.6,0c4.4,0,6.9,0.3,12.3,1.9c1.3,0.4,2.6,0.6,2.8,0.4
		c0.2-0.1,0.3,0.1,0.1,0.5c-0.2,0.6-0.5,0.6-0.9,0.2c-0.9-0.7-8.2-1.1-9.3-0.5c-0.7,0.4-0.7,0.5-0.1,0.5c0.4,0,1.3,0.6,1.9,1.2
		c1.2,1.3,2.5,1.7,1.5,0.5c-0.5-0.6-0.5-0.7,0.2-0.7c0.4,0,0.8,0.2,0.8,0.4c0,0.2,2.3,0.4,5.1,0.4c2.8,0,5.3,0.1,5.6,0.3
		c0.3,0.2,0.1,0.7-0.6,1.2l-1.1,0.9l1.2,0.4l1.2,0.4l-1.3,0.3c-1,0.2-1.2,0.6-1.2,1.6c0.1,1.3,1.5,3,2.6,3c0.3,0,0.8,0.3,1.1,0.7
		c0.6,0.8-0.2,1.2-2.3,1.3c-1.2,0-1.2,0.1-0.3,0.4c0.5,0.2,0.8,0.4,0.6,0.4c-0.2,0,0.1,0.7,0.7,1.5c0.9,1.2,1,1.8,0.6,2.8
		c-0.3,1-0.3,1.5,0.4,2.1c0.7,0.7,1.5,0.8,4.5,0.7c3.7-0.2,5.1,0.4,3.4,1.3c-0.8,0.4-0.7,0.5,0.5,1.1c1.5,0.7,0.7,0.9-1.6,0.4
		c-0.9-0.2-1.4-0.5-1.2-0.9c0.2-0.4-0.1-0.5-1-0.4c-1.1,0.2-1.1,0.4-0.6,1.1c0.3,0.5,0.9,0.9,1.3,1c0.4,0,0.1,0.3-0.6,0.6
		c-1.3,0.6-1.3,0.7-0.6,1.4c0.4,0.4,1,0.8,1.3,0.8c0.7,0,0.5-0.8-0.2-1.1c-0.3-0.1-0.1-0.3,0.5-0.3c1.3,0,3.3,1.6,2.6,2.1
		c-0.3,0.2-0.9,0.1-1.3,0c-0.6-0.2-0.7-0.1-0.5,0.2c0.2,0.3,0.5,0.6,0.8,0.6c0.6,0,5.1,4.5,5,5c-0.1,0.2,0.4,0.4,1.1,0.4
		c0.7,0,1.2-0.2,1.2-0.4c0-0.2,0.9-0.4,2.1-0.5c1.9-0.1,1.9,0,0,0.6c-0.4,0.1-0.5,0.5-0.2,1.3c0.3,0.8,1,1.2,2.8,1.7
		c1.3,0.3,1.9,0.6,1.3,0.6c-1.1,0.1-1.5,1-0.5,1.1c0.3,0,1.6,0.1,2.8,0.2c1.2,0.1,3,0.3,4.1,0.4c1.1,0.1,4.4,0.4,7.5,0.7
		c8.4,0.8,9.6,1,10.8,1.6c1.1,0.6,1.1,0.6-0.4,0.9c-1.2,0.2-0.9,0.3,1.5,0.6c4.1,0.4,9.4,0.9,11.2,1c1.8,0.1,1.6,0.8-0.2,0.9
		c-2.5,0-3.6,1.8-1.5,2.5c0.4,0.1-0.8,0.1-2.6,0c-2.7-0.2-3.3-0.1-3.1,0.4c0.1,0.4,0.8,0.7,1.5,0.8c0.7,0.1,1.3,0.4,1.3,0.6
		s0.3,0.5,0.8,0.5s0.6-0.2,0.5-0.5c-0.4-0.6,0.4-0.6,4.1,0.2c3.7,0.8,6.3,1.8,5.4,2.1c-0.3,0.1-0.6,0.5-0.6,0.8
		c0,1.1,2.6,1.8,5.9,1.8c2.2-0.1,3.7,0.2,4.8,0.7c1,0.5,3.3,0.9,6.2,1.1c4.8,0.3,6.4,0.7,6.4,1.8c0,0.8-4.7,1.2-13.7,1.3
		c-6.7,0.1-6.5,0.7,0.3,0.9c3.9,0.1,5.3,0.7,2.7,1.3c-2.1,0.5-0.9,1.2,2.2,1.3c1.6,0.1,0.9,0.2-2,0.4c-3.2,0.2-4.7,0.6-5.2,1.1
		c-0.4,0.4-1.4,0.8-2.1,0.8l-1.3,0l1.4,0.6c1.3,0.6,1.3,0.7,0.5,0.9c-0.5,0.2-0.1,0.2,0.9,0c1.4-0.2,1.7-0.1,1.6,0.4
		c-0.2,0.4,0.8,1.1,3,2.1c3.1,1.4,3.5,1.5,9.2,1.3c4.8-0.1,5.8,0,5.3,0.5c-0.4,0.4-2.9,0.7-7.1,0.9c-7,0.3-11.5,1.1-9.8,1.8
		c0.5,0.2,1.7,0.4,2.7,0.4c1.2,0,1.9,0.3,2.3,1c0.7,1.3-1,1.7-8,1.6c-6.2-0.1-6.8,0.5-1.2,1.2l3.1,0.4l-1.9,0.4
		c-1.1,0.2-3.6,0.4-5.6,0.4c-2,0-3.8,0-4.1,0.1c-0.3,0-3.1,0.1-6.3,0.2c-3.2,0.1-7.3,0.3-9.1,0.5c-2.7,0.3-3.3,0.3-3-0.2
		c0.3-0.5-1.6-0.6-10-0.3c-5.7,0.2-21.2,0.3-34.4,0.4c-13.2,0-24,0.2-23.8,0.5c0.1,0.2,0,0.5-0.2,0.7c-0.3,0.2-0.6-0.1-0.8-0.5
		c-0.3-0.7-0.8-0.7-3.3-0.4c-1.6,0.2-6.2,0.3-10.2,0.2c-6.9-0.2-17.6-0.1-30.7,0.1c-3.4,0.1-6.2,0.3-6.4,0.6
		c-0.2,0.3-0.6,0.3-1.1-0.1c-0.4-0.4-1.3-0.5-2.3-0.3c-5.3,1-5.8,1-9.9,0.6c-3.3-0.4-23.3-0.5-25.5-0.1c-0.8,0.1-2.3-0.1-3.5-0.4
		c-1.5-0.4-2.8-0.5-4.4-0.2c-1.2,0.2-2.5,0.3-2.8,0.1c-0.3-0.2-0.4-0.1-0.1,0.3c0.3,0.4,0,0.5-1,0.4c-0.8-0.1-1.5-0.2-1.7-0.3
		c-0.2,0-0.2-0.5-0.1-1.1c0.2-0.8,0.1-0.9-0.2-0.4c-0.3,0.4-0.7,0.5-1,0.3c-0.3-0.2-0.5,0-0.5,0.4c0,1-0.3,1-1.7-0.1
		c-1-0.8-1.9-0.9-8.3-0.7c-3.9,0.1-7.8,0.4-8.6,0.6c-1.3,0.3-1.2,0.4,1.2,0.7c1.5,0.2,3.7,0.1,5-0.1c1.5-0.3,2.3-0.3,2.3,0
		c0,0.3,0.3,0.2,0.7-0.1c0.5-0.4,0.7-0.4,0.7-0.1c0,0.3,0.7,0.7,1.6,1c1.3,0.4,1.4,0.5,0.7,0.8c-0.5,0.2-1.7,0.1-2.8-0.3
		c-1.5-0.5-2-0.5-2.6,0c-0.5,0.4-0.8,0.4-1,0c-0.2-0.4-0.5-0.4-1,0c-0.4,0.3-3.3,0.6-7.2,0.6c-3.6,0.1-6.3-0.1-6-0.3
		c0.3-0.2,0.4-0.4,0.2-0.4c-0.2,0-0.7-0.2-1.2-0.3c-0.6-0.2-0.7-0.1-0.5,0.2c0.2,0.3,0.1,0.6-0.3,0.6c-0.3,0-1.2,0.1-1.8,0.3
		c-0.8,0.2-1.1,0.1-0.8-0.2c0.2-0.3,0.1-0.6-0.2-0.6c-0.3,0-0.5,0.2-0.5,0.5c0,0.3-4.2,0.5-10,0.5c-5.5,0-15.2,0.2-21.4,0.3
		c-26.1,0.6-29,0.6-29.3,0.1c-0.2-0.3-0.6-0.3-1.1-0.1c-0.9,0.4-24.2,0.6-24.2,0.2c0.1-1.2-0.2-1.5-1.3-1.2
		c-0.7,0.2-1.2,0.1-1.2-0.2c0-0.3-0.8-0.5-1.7-0.4c-0.9,0-1.7,0.2-1.7,0.5c0,0.2-0.3,0.3-0.8,0.1c-0.7-0.3-2.3,0.8-1.9,1.2
		c0.2,0.2-20,0.2-22,0l-1.2-0.1l1.1-0.4c0.6-0.2,1.1-0.8,1.1-1.3c0-0.5-0.1-0.6-0.3-0.3c-0.1,0.3-0.6,0.6-1,0.6s-0.6-0.2-0.4-0.5
		c0.2-0.3-0.4-0.5-1.7-0.4c-2.3,0.1-2.6,0.7-0.5,1.1c0.8,0.2,1.5,0.6,1.5,1c0,0.5-0.6,0.6-3,0.4c-1.7-0.1-3.6-0.2-4.2-0.2
		c-2.4,0.1-8.5,0-11-0.2c-1.4-0.1-2.6-0.1-2.7,0.1c-0.2,0.3-4.9,0.3-5.6,0c-0.1-0.1-0.4-0.1-0.7,0c-0.2,0-1.8,0.2-3.5,0.3
		c-2.2,0.1-3.1,0-3.1-0.4c0-0.4-0.1-0.4-0.4,0c-0.6,1-10.3,0.3-12.1-0.8c-0.7-0.4-0.6-0.5,0.5-0.3c0.7,0.1,1.3,0,1.3-0.2
		c0-0.6-2.5-0.9-6.5-0.7c-2.1,0.1-5.2,0.2-6.9,0.2c-1.8,0-2.9,0.2-2.8,0.5c0.2,0.3,0.9,0.3,1.7,0.2c0.9-0.2,1.4-0.1,1.4,0.3
		c0,0.3,0.5,0.5,1,0.5c1.8,0,0.5,0.6-1.6,0.8c-1.6,0.1-1.9,0.1-1.3-0.3c0.6-0.4,0.4-0.5-0.7-0.3c-1.3,0.2-5.2,0.4-7.5,0.3
		c-0.4,0-1.8,0.1-3.1,0.2c-1.3,0.1-2.8,0-3.3-0.3c-0.7-0.4-1-0.4-1.4,0.2c-0.4,0.6-0.6,0.6-0.9,0.1c-0.2-0.3-0.8-0.5-1.2-0.3
		c-0.4,0.2-1.1,0.1-1.5-0.3c-0.7-0.6-1.9-0.2-1.5,0.4c0.3,0.5-3.8,0.4-4.2-0.1c-0.2-0.2-0.7-0.2-1.3,0.1c-0.7,0.4-1,0.4-1,0
		c0-0.3-0.3-0.5-0.7-0.5s-0.7,0.2-0.7,0.5c0,0.6-10,0.7-10.2,0.1c-0.2-0.6-5.2-1.1-5.2-0.6c0,0.2,0.4,0.5,0.8,0.6
		c0.5,0.1,0.4,0.2-0.4,0.2c-0.7,0-1.8-0.2-2.4-0.3c-0.7-0.2-2-0.1-2.9,0.2C585,325.5,583.7,325.7,583.7,325.2L583.7,325.2z
		 M575.5,325.2c-0.7-0.2,0.3-0.3,2.6-0.2c2.1,0.1,4,0.3,4.1,0.4C582.5,325.9,576.7,325.6,575.5,325.2L575.5,325.2z M556.9,325
		c-0.2-0.4-0.1-0.7,0.1-0.7s0.7,0.3,1,0.7c0.5,0.6,0.5,0.7-0.1,0.7C557.5,325.7,557.1,325.4,556.9,325L556.9,325z"/>
</g>
</svg>
